<?xml version="1.0" encoding="UTF-8"?>
<svg id="_圖層_1" data-name="圖層_1" xmlns="http://www.w3.org/2000/svg" version="1.1" viewBox="0 0 32 33">
  <!-- Generator: Adobe Illustrator 29.3.1, SVG Export Plug-In . SVG Version: 2.1.0 Build 151)  -->
  <defs>
    <style>
      .st0 {
        fill: #353543;
      }

      .st1, .st2 {
        fill: #fff;
      }

      .st2 {
        display: none;
      }
    </style>
  </defs>
  <path class="st2" d="M16,.6h0c8.8,0,16,7.2,16,16h0c0,8.8-7.2,16-16,16h0C7.2,32.6,0,25.4,0,16.6h0C0,7.8,7.2.6,16,.6Z"/>
  <g id="_圖層_2" data-name="圖層_2">
    <circle class="st1" cx="15.5" cy="17" r="12.5"/>
  </g>
  <path class="st0" d="M16,.6c8.8,0,16,7.2,16,16s-7.2,16-16,16S0,25.4,0,16.6C0,7.8,7.2.6,16,.6ZM16,10.7s-5.3,0-6.7.4c-.7.2-1.3.8-1.5,1.5-.4,1.4-.4,4.2-.4,4.2,0,0,0,2.9.4,4.2.2.8.8,1.3,1.5,1.5,1.3.4,6.6.4,6.7.4,0,0,5.3,0,6.7-.4.7-.2,1.3-.8,1.5-1.5.4-1.4.4-4.2.4-4.2,0,0,0-2.9-.4-4.2-.2-.8-.8-1.3-1.5-1.5-1.3-.4-6.7-.4-6.7-.4Z"/>
  <path class="st0" d="M14.4,19.8v-5.3l4.3,2.7-4.3,2.7Z"/>
</svg>