<?xml version="1.0" encoding="UTF-8"?>
<svg id="_圖層_1" data-name="圖層_1" xmlns="http://www.w3.org/2000/svg" version="1.1" viewBox="0 0 32 33">
  <!-- Generator: Adobe Illustrator 29.3.1, SVG Export Plug-In . SVG Version: 2.1.0 Build 151)  -->
  <defs>
    <style>
      .st0 {
        fill: #353543;
      }

      .st1, .st2 {
        fill: #fff;
      }

      .st2 {
        display: none;
      }
    </style>
  </defs>
  <path class="st2" d="M16,.6h0c8.8,0,16,7.2,16,16h0c0,8.8-7.2,16-16,16h0C7.2,32.6,0,25.4,0,16.6h0C0,7.8,7.2.6,16,.6Z"/>
  <g id="_圖層_2" data-name="圖層_2">
    <ellipse class="st1" cx="16.3" cy="16.8" rx="11.4" ry="10.7"/>
  </g>
  <path class="st0" d="M16,.6c8.8,0,16,7.2,16,16s-7.2,16-16,16S0,25.4,0,16.6C0,7.8,7.2.6,16,.6ZM16,8.1c-2.3,0-2.6,0-3.5,0-.9,0-1.5.2-2.1.4-.6.2-1,.5-1.5,1-.5.5-.8.9-1,1.5-.2.5-.4,1.2-.4,2.1,0,.9,0,1.2,0,3.5s0,2.6,0,3.5c0,.9.2,1.5.4,2.1.2.6.5,1,1,1.5.5.5.9.8,1.5,1,.5.2,1.2.4,2.1.4.9,0,1.2,0,3.5,0s2.6,0,3.5,0c.9,0,1.5-.2,2.1-.4.6-.2,1-.5,1.5-1,.5-.5.8-.9,1-1.5.2-.5.4-1.2.4-2.1,0-.9,0-1.2,0-3.5s0-2.6,0-3.5c0-.9-.2-1.5-.4-2.1-.2-.6-.5-1-1-1.5-.5-.5-.9-.8-1.5-1-.5-.2-1.2-.4-2.1-.4-.9,0-1.2,0-3.5,0Z"/>
  <path class="st0" d="M15.2,9.6c.2,0,.5,0,.8,0,2.3,0,2.5,0,3.4,0,.8,0,1.3.2,1.6.3.4.2.7.3,1,.6.3.3.5.6.6,1,.1.3.3.8.3,1.6,0,.9,0,1.2,0,3.4s0,2.5,0,3.4c0,.8-.2,1.3-.3,1.6-.2.4-.3.7-.6,1-.3.3-.6.5-1,.6-.3.1-.8.3-1.6.3-.9,0-1.2,0-3.4,0s-2.5,0-3.4,0c-.8,0-1.3-.2-1.6-.3-.4-.2-.7-.3-1-.6-.3-.3-.5-.6-.6-1-.1-.3-.3-.8-.3-1.6,0-.9,0-1.2,0-3.4s0-2.5,0-3.4c0-.8.2-1.3.3-1.6.2-.4.3-.7.6-1,.3-.3.6-.5,1-.6.3-.1.8-.3,1.6-.3.8,0,1.1,0,2.7,0h0ZM15.8,12.2c-2.3.1-4.2,2-4.2,4.4,0,2.4,2,4.4,4.4,4.4,2.4,0,4.4-2,4.4-4.4,0-2.4-2-4.4-4.4-4.4h-.2ZM20.5,11c-.5,0-.9.5-.9,1,0,.6.5,1,1,1,.6,0,1-.5,1-1,0-.6-.5-1-1-1h-.1Z"/>
  <path class="st0" d="M16,13.7c1.6,0,2.8,1.3,2.8,2.8s-1.3,2.8-2.8,2.8-2.8-1.3-2.8-2.8,1.3-2.8,2.8-2.8Z"/>
</svg>