<svg width="32" height="33" viewBox="0 0 32 33" fill="none" xmlns="http://www.w3.org/2000/svg">
<path d="M0 16.5918C0 7.75524 7.16344 0.591797 16 0.591797C24.8366 0.591797 32 7.75524 32 16.5918C32 25.4284 24.8366 32.5918 16 32.5918C7.16344 32.5918 0 25.4284 0 16.5918Z" fill="#353543"/>
<path d="M21.1919 15.8124C21.0984 15.7683 21.0035 15.726 20.9073 15.6854C20.7398 12.6513 19.0537 10.9142 16.2224 10.8965C16.2096 10.8964 16.1969 10.8964 16.184 10.8964C14.4906 10.8964 13.0822 11.6071 12.2153 12.9004L13.7724 13.9507C14.42 12.9846 15.4363 12.7787 16.1848 12.7787C16.1934 12.7787 16.2021 12.7787 16.2107 12.7787C17.1429 12.7846 17.8463 13.0511 18.3016 13.5708C18.633 13.9492 18.8546 14.472 18.9643 15.1319C18.1378 14.9938 17.2439 14.9513 16.2883 15.0052C13.5965 15.1576 11.866 16.7012 11.9822 18.8461C12.0412 19.9341 12.5925 20.8701 13.5344 21.4816C14.3308 21.9985 15.3565 22.2512 16.4225 22.194C17.8303 22.1181 18.9347 21.59 19.7052 20.6244C20.2903 19.891 20.6604 18.9407 20.8238 17.7432C21.4947 18.1414 21.9919 18.6652 22.2665 19.295C22.7335 20.3656 22.7607 22.1248 21.3008 23.559C20.0217 24.8155 18.4841 25.359 16.1605 25.3758C13.5829 25.357 11.6335 24.5442 10.3661 22.96C9.17923 21.4766 8.56586 19.3339 8.54298 16.5915C8.56586 13.849 9.17923 11.7063 10.3661 10.2229C11.6335 8.63868 13.5829 7.82592 16.1604 7.80708C18.7567 7.82606 20.7401 8.64274 22.056 10.2346C22.7013 11.0152 23.1878 11.9969 23.5085 13.1415L25.3332 12.6628C24.9444 11.2539 24.3327 10.0399 23.5003 9.03303C21.8133 6.99221 19.3459 5.94649 16.1668 5.9248H16.1541C12.9814 5.94641 10.5417 6.99612 8.90269 9.04473C7.44419 10.8677 6.69186 13.4043 6.66658 16.584L6.6665 16.5915L6.66658 16.599C6.69186 19.7786 7.44419 22.3153 8.90269 24.1383C10.5417 26.1868 12.9814 27.2366 16.1541 27.2581H16.1668C18.9875 27.2389 20.9757 26.5128 22.6136 24.9038C24.7565 22.7988 24.692 20.1602 23.9857 18.5405C23.479 17.3789 22.5129 16.4355 21.1919 15.8124ZM16.3217 20.3145C15.142 20.3798 13.9163 19.8591 13.8559 18.7439C13.8111 17.917 14.4544 16.9944 16.3941 16.8844C16.6163 16.8718 16.8343 16.8657 17.0484 16.8657C17.753 16.8657 18.4122 16.933 19.0114 17.0618C18.7879 19.8065 17.4768 20.2521 16.3217 20.3145Z" fill="white"/>
</svg>
