<svg width="316" height="262" viewBox="0 0 316 262" fill="none" xmlns="http://www.w3.org/2000/svg">
<path d="M43.7222 90.6374L46.0699 101.309C46.0699 101.522 45.8565 101.771 45.4296 102.056C45.0739 102.269 44.6471 102.376 44.1491 102.376C43.7222 102.376 43.4376 102.269 43.2953 102.056C42.5128 99.637 41.5168 97.7873 40.3073 96.5067C37.675 93.7321 34.189 92.3448 29.8492 92.3448C24.9404 92.3448 21.312 94.3724 18.9643 98.4276C16.9723 101.914 15.9763 106.396 15.9763 111.874C15.9763 117.707 17.2213 122.723 19.7113 126.92C22.4859 131.474 26.2209 133.75 30.9164 133.75C32.9796 133.75 34.7937 133.395 36.3589 132.683C36.5012 132.541 36.6434 132.434 36.7857 132.363C36.928 132.221 36.9992 131.972 36.9992 131.616V121.691C36.9992 120.269 36.679 119.379 36.0387 119.024C35.4696 118.597 34.936 118.312 34.438 118.17C33.5843 118.028 32.7661 117.956 31.9835 117.956C31.8413 117.956 31.7345 117.565 31.6634 116.783C31.6634 116 31.7701 115.502 31.9835 115.289C35.5407 115.573 38.9556 115.715 42.2282 115.715C45.5008 115.715 48.5599 115.573 51.4057 115.289C51.548 115.787 51.5835 116.356 51.5124 116.996C51.5124 117.636 51.4413 117.956 51.299 117.956C51.0144 117.956 50.4097 118.063 49.4848 118.277C48.5599 118.419 47.9552 118.597 47.6707 118.81C47.0304 119.166 46.7102 120.197 46.7102 121.905V129.375L47.1371 131.403C47.1371 131.972 46.3189 132.612 44.6826 133.323C42.406 134.106 40.0227 134.889 37.5327 135.671C35.0427 136.454 32.1258 136.845 28.7821 136.845C25.5095 136.845 22.3792 136.276 19.3912 135.138C16.4743 133.928 13.9131 132.292 11.7077 130.229C9.57339 128.165 7.86595 125.711 6.58537 122.865C5.30479 120.02 4.6645 116.96 4.6645 113.688C4.6645 110.344 5.30479 107.214 6.58537 104.297C7.86595 101.309 9.60896 98.7121 11.8144 96.5067C14.0199 94.3012 16.581 92.5582 19.4979 91.2777C22.4859 89.9971 25.6518 89.3568 28.9955 89.3568C34.687 89.3568 39.5959 89.7836 43.7222 90.6374ZM60.2145 125.32L61.3883 95.4395C61.3883 94.3012 61.0326 93.5542 60.3212 93.1985C58.9695 92.6294 57.6889 92.3448 56.4794 92.3448C56.266 91.9891 56.1949 91.4911 56.266 90.8508C56.3372 90.1394 56.4083 89.7481 56.4794 89.6769C58.1157 89.7481 59.3963 89.8548 60.3212 89.9971C61.246 90.0682 62.5266 90.1038 64.1629 90.1038L71.5263 89.6769L84.8656 119.557L85.0791 119.664C85.2925 119.664 85.3992 119.522 85.3992 119.237L88.3872 111.767C92.5847 101.309 95.1459 94.0522 96.0707 89.9971C96.0707 89.9971 96.3909 89.9971 97.0312 89.9971L100.339 90.1038C100.339 90.1038 100.802 90.1038 101.727 90.1038C102.794 90.1038 106.173 89.9615 111.865 89.6769C112.007 89.8192 112.114 90.2461 112.185 90.9575C112.327 91.5978 112.327 92.0602 112.185 92.3448C111.829 92.3448 111.189 92.4159 110.264 92.5582C109.41 92.7005 108.805 92.914 108.45 93.1985C107.738 93.6965 107.418 94.6214 107.489 95.9731C107.56 97.2537 107.632 99.1034 107.703 101.522C107.774 103.87 107.845 106.467 107.916 109.312C108.058 112.158 108.165 115.04 108.236 117.956C108.307 120.802 108.414 123.15 108.556 125C108.77 128.984 109.09 131.545 109.517 132.683C109.659 133.323 110.833 133.75 113.038 133.964C113.465 133.964 113.75 133.964 113.892 133.964C114.319 134.96 114.355 135.849 113.999 136.632C109.73 136.205 106.458 135.991 104.181 135.991C101.904 135.991 98.3117 136.205 93.4028 136.632C93.2606 136.489 93.1538 136.098 93.0827 135.458C93.0827 134.817 93.1538 134.319 93.2961 133.964C94.7901 133.964 95.9284 133.821 96.711 133.537C97.5647 133.181 98.0627 132.897 98.205 132.683C98.5607 131.829 98.7386 131.011 98.7386 130.229V125.853L98.0983 104.19C98.0983 101.06 97.8849 99.4947 97.458 99.4947C97.3157 99.4947 97.209 99.637 97.1379 99.9216L84.7589 133.537C84.2609 134.533 83.6918 135.28 83.0515 135.778C82.4823 136.205 82.0555 136.418 81.7709 136.418C81.4863 136.418 81.2729 136.383 81.1306 136.311L65.3368 99.4947C65.1945 103.123 65.0878 106.075 65.0166 108.352C65.0166 110.629 64.9811 112.692 64.9099 114.542C64.6965 119.806 64.5542 123.399 64.4831 125.32C64.3408 128.521 64.4119 130.656 64.6965 131.723C64.8388 132.576 66.5107 133.252 69.7121 133.75C70.3524 133.893 70.7437 133.964 70.886 133.964C71.0283 134.248 71.0994 134.675 71.0994 135.244C71.1705 135.813 71.135 136.276 70.9927 136.632C69.5698 136.489 68.147 136.347 66.7241 136.205C65.3012 136.062 63.9495 135.991 62.6689 135.991C61.4595 135.991 58.4003 136.205 53.4914 136.632C53.0646 135.778 53.029 134.924 53.3847 134.07C54.8787 134.07 56.1949 133.75 57.3332 133.11C58.4715 132.47 59.1117 132.007 59.254 131.723C59.3963 131.438 59.503 131.011 59.5742 130.442C59.7165 129.873 59.8232 129.268 59.8943 128.628C59.9655 127.988 60.0366 127.347 60.1078 126.707C60.1789 126.067 60.2145 125.604 60.2145 125.32ZM125.258 136.632C121.63 136.205 119.069 135.991 117.575 135.991C116.152 135.991 113.626 136.205 109.998 136.632C109.856 136.489 109.784 136.134 109.784 135.564C109.713 134.924 109.749 134.426 109.891 134.07C110.887 134.07 111.883 133.786 112.879 133.217C113.946 132.576 114.587 132.114 114.8 131.829C115.725 130.193 116.543 128.557 117.254 126.92L132.301 92.3448C132.515 91.9179 132.906 91.3844 133.475 90.7441C134.044 90.0326 134.613 89.6769 135.183 89.6769C135.752 89.6769 136.143 89.8548 136.356 90.2105L150.763 125.853C151.261 126.992 151.617 127.952 151.83 128.735C152.115 129.446 152.399 130.193 152.684 130.976C153.04 131.687 153.502 132.256 154.071 132.683C154.64 133.039 155.209 133.323 155.779 133.537C156.561 133.821 157.415 133.964 158.34 133.964C158.482 134.319 158.553 134.817 158.553 135.458C158.624 136.098 158.589 136.489 158.446 136.632C154.178 136.205 150.727 135.991 148.095 135.991C145.463 135.991 142.226 136.205 138.384 136.632C138.242 136.418 138.171 135.92 138.171 135.138C138.171 134.355 138.242 133.964 138.384 133.964C140.163 133.964 141.55 133.537 142.546 132.683C142.973 132.399 143.186 132.114 143.186 131.829C143.186 131.118 142.475 129.161 141.052 125.96L138.918 120.838C138.704 120.624 138.597 120.518 138.597 120.518H124.404C124.262 120.518 124.084 120.624 123.871 120.838C123.515 121.549 123.124 122.474 122.697 123.612C122.27 124.679 121.843 125.711 121.416 126.707C120.349 129.055 119.816 130.584 119.816 131.296C119.816 131.936 120.065 132.434 120.563 132.79C121.061 133.074 121.63 133.323 122.27 133.537C123.408 133.821 124.404 133.964 125.258 133.964C125.472 134.248 125.543 134.746 125.472 135.458C125.472 136.098 125.4 136.489 125.258 136.632ZM125.472 116.783C125.472 116.996 126.717 117.103 129.207 117.103H134.222C135.005 117.103 135.965 117.067 137.103 116.996L137.21 116.783V116.569L131.448 102.803L125.472 116.569V116.783Z" fill="white"/>
<path d="M195.745 143.395C200.04 143.395 204.097 144.111 207.915 145.543C211.734 146.974 215.074 148.943 217.938 151.449C220.921 153.954 223.248 156.937 224.918 160.398C226.589 163.738 227.424 167.437 227.424 171.494C227.424 178.534 225.992 184.321 223.128 188.855C220.384 193.508 216.864 197.207 212.569 199.951C208.393 202.815 203.799 204.784 198.788 205.857C193.896 207.051 189.242 207.647 184.827 207.647C181.964 207.647 178.981 207.409 175.879 206.931C172.896 206.454 170.211 205.678 167.825 204.605C165.438 203.65 163.47 202.338 161.919 200.667C160.367 198.997 159.592 196.909 159.592 194.403C159.592 191.778 160.367 189.75 161.919 188.318C163.47 186.886 165.438 186.17 167.825 186.17C169.376 186.17 170.867 186.588 172.299 187.423C173.731 188.377 174.447 189.809 174.447 191.718C174.447 192.792 174.208 193.627 173.731 194.224C173.254 194.94 173.015 195.835 173.015 196.909C173.015 197.624 173.433 198.281 174.268 198.877C175.222 199.474 176.356 199.951 177.668 200.309C179.1 200.786 180.532 201.144 181.964 201.383C183.515 201.622 184.947 201.741 186.259 201.741C193.896 201.741 199.623 199.235 203.441 194.224C207.378 189.213 209.347 182.113 209.347 172.926C209.347 165.647 207.08 159.861 202.546 155.565C198.012 151.27 190.197 148.824 179.1 148.227C177.549 148.108 176.774 147.452 176.774 146.258C176.893 144.946 177.489 144.051 178.563 143.574C186.916 140.591 193.001 136.832 196.819 132.298C200.756 127.645 202.725 121.739 202.725 114.58C202.725 112.074 202.546 109.628 202.188 107.242C201.83 104.855 201.114 102.767 200.04 100.978C198.967 99.1878 197.475 97.756 195.566 96.6822C193.776 95.489 191.39 94.8924 188.407 94.8924C185.543 94.8924 183.038 95.31 180.89 96.1452C178.862 96.9805 177.191 97.9947 175.879 99.1878C174.566 100.262 173.552 101.455 172.836 102.767C172.24 103.961 171.941 104.975 171.941 105.81C171.941 106.168 171.941 106.645 171.941 107.242C172.061 107.838 172.24 108.435 172.478 109.031C172.836 109.509 173.373 109.926 174.089 110.284C174.805 110.642 175.819 110.821 177.132 110.821C179.16 110.821 180.532 111.418 181.248 112.611C181.964 113.804 182.322 115.117 182.322 116.548C182.322 117.98 181.606 119.293 180.174 120.486C178.862 121.679 177.012 122.276 174.626 122.276C172.359 122.276 170.509 121.858 169.078 121.023C167.646 120.188 166.512 119.173 165.677 117.98C164.842 116.668 164.245 115.296 163.887 113.864C163.649 112.313 163.529 110.881 163.529 109.568C163.529 106.824 164.126 104.199 165.319 101.693C166.632 99.1878 168.481 97.0401 170.867 95.2504C173.254 93.3413 176.177 91.8498 179.637 90.776C183.217 89.7021 187.333 89.1652 191.987 89.1652C196.64 89.1652 200.756 89.8214 204.336 91.1339C208.035 92.3271 211.077 93.9975 213.464 96.1452C215.85 98.293 217.64 100.858 218.833 103.841C220.145 106.705 220.802 109.747 220.802 112.969C220.802 116.906 220.026 120.486 218.475 123.708C216.924 126.929 214.955 129.793 212.569 132.298C210.182 134.804 207.498 136.892 204.515 138.562C201.532 140.233 198.549 141.486 195.566 142.321C195.327 142.44 195.208 142.679 195.208 143.037C195.208 143.276 195.387 143.395 195.745 143.395Z" fill="white"/>
<path d="M308.719 124.02C308.719 129.867 307.764 135.236 305.855 140.128C304.065 145.02 301.44 149.256 297.98 152.835C294.639 156.296 290.523 159.04 285.631 161.068C280.858 162.977 275.429 163.932 269.344 163.932C262.185 163.932 256.219 162.5 251.446 159.636C246.674 156.773 242.856 153.074 239.992 148.54C237.128 144.006 235.04 138.935 233.728 133.327C232.535 127.6 231.938 121.873 231.938 116.145C231.938 111.731 232.236 106.958 232.833 101.827C233.429 96.5773 234.444 91.3273 235.875 86.0774C237.307 80.8274 239.216 75.8161 241.603 71.0434C244.108 66.1514 247.151 61.856 250.73 58.1571C254.429 54.339 258.784 51.2964 263.796 49.0294C268.926 46.7623 274.892 45.6288 281.693 45.6288C289.449 45.6288 295.534 46.9413 299.949 49.5663C304.364 52.1913 306.571 55.9498 306.571 60.8418C306.571 62.9895 305.736 64.8986 304.065 66.569C302.395 68.2394 300.307 69.0747 297.801 69.0747C295.773 69.0747 293.983 68.5377 292.432 67.4639C291 66.2707 290.284 64.6599 290.284 62.6315C290.284 61.9156 290.463 61.1401 290.821 60.3048C291.298 59.3503 291.537 58.5151 291.537 57.7992C291.537 56.0094 290.881 54.5776 289.568 53.5038C288.375 52.4299 285.392 51.893 280.619 51.893C274.892 51.893 270.06 53.0265 266.122 55.2935C262.304 57.5605 259.202 60.8418 256.816 65.1372C254.429 69.3133 252.699 74.4439 251.625 80.5291C250.671 86.6143 250.134 93.475 250.015 101.111C252.997 96.5773 256.756 93.296 261.29 91.2676C265.824 89.2393 270.358 88.2251 274.892 88.2251C281.335 88.2251 286.705 89.2393 291 91.2676C295.415 93.1767 298.935 95.8017 301.56 99.1426C304.185 102.483 306.034 106.302 307.108 110.597C308.182 114.892 308.719 119.367 308.719 124.02ZM290.642 124.378C290.642 121.037 290.403 117.696 289.926 114.356C289.568 110.895 288.673 107.853 287.241 105.228C285.929 102.483 283.96 100.276 281.335 98.6057C278.83 96.8159 275.429 95.921 271.134 95.921C268.031 95.921 265.168 96.6966 262.543 98.2477C260.037 99.6795 257.83 101.768 255.921 104.512C254.012 107.137 252.52 110.358 251.446 114.177C250.492 117.875 250.015 121.932 250.015 126.347C250.015 129.807 250.313 133.387 250.909 137.085C251.506 140.784 252.58 144.125 254.131 147.108C255.801 150.091 257.949 152.537 260.574 154.446C263.199 156.355 266.6 157.31 270.776 157.31C274.952 157.31 278.352 156.236 280.977 154.088C283.602 151.94 285.631 149.256 287.063 146.034C288.494 142.813 289.449 139.293 289.926 135.475C290.403 131.537 290.642 127.838 290.642 124.378Z" fill="white"/>
<path fill-rule="evenodd" clip-rule="evenodd" d="M19.3595 49.2885H19.064H18.9655V49.19L19.9505 47.417C19.9997 47.3185 20.049 47.2446 20.0982 47.1707C20.1475 47.0968 20.1967 47.023 20.246 46.9245C20.64 46.5305 21.1325 46.3335 21.625 46.235C22.216 46.1365 22.9055 46.1365 23.4965 46.1365H33.2481L34.2331 42.7874L34.3316 42.5904C34.3316 42.5904 34.3316 42.4919 34.2331 42.4919H15.3209C14.0404 42.4919 12.6614 42.4919 11.3809 42.6889C10.2974 42.7874 9.3124 43.2799 8.5244 44.068C8.2289 44.3635 8.0319 44.659 7.83489 45.053L5.96338 48.599C5.86488 48.796 5.86488 49.0915 6.06188 49.19C6.25888 49.387 6.55439 49.387 6.75139 49.387H15.0254L11.6764 60.4191C11.4794 61.2071 11.6764 61.7981 12.2674 62.3891C12.7599 62.8816 13.4494 63.1771 14.1389 63.1771H14.2374H20.3445L24.58 49.19H19.3595V49.2885ZM73.8303 46.4316H65.2608C65.0638 46.4316 64.7683 46.4316 64.5713 46.5301C61.9117 46.9241 59.6462 49.0911 59.3507 51.7506C59.2842 52.0168 59.3075 52.3278 59.3297 52.6231V52.6232C59.3403 52.7651 59.3507 52.9033 59.3507 53.0312C59.5477 55.0012 61.1237 56.3802 63.0938 56.4787H63.6847H66.8368H67.1323C67.9203 56.4787 68.5113 57.0697 68.6098 57.8577V58.3502C68.5113 59.4337 67.3293 60.4187 66.1473 60.4187H65.8518H57.5777L56.8882 62.5857L56.7897 62.9797L56.6912 63.1767V63.2752C56.6912 63.2752 56.6912 63.3737 56.7897 63.3737H57.4792H66.4428C66.6398 63.3737 66.9353 63.3737 67.1323 63.2752C69.7918 62.8812 72.0573 60.7142 72.3528 58.0547V56.7742C72.1558 54.8042 70.5798 53.4252 68.6098 53.3267H67.9203H64.7683H64.4728C63.6847 53.3267 63.0938 52.7357 62.9953 51.9476V51.4551C63.0938 50.3716 64.0788 49.4851 65.2608 49.3866H65.5563H73.1408L74.0273 46.6286V46.5301L73.8303 46.4316ZM55.0659 54.7549C55.1398 54.8042 55.2137 54.8534 55.3122 54.9027C56.1002 55.4937 56.6912 56.2817 56.9867 57.1682C57.0852 57.5622 57.0852 57.9562 57.0852 58.3502V58.3502C56.8882 60.9112 54.4257 63.1767 51.5692 63.2752H50.6826H40.4386H40.3401C40.2416 63.2752 40.2416 63.1767 40.2416 63.1767V63.0782L43.9846 50.9626H47.9246L45.0681 60.2217H50.1901H50.4856C51.6677 60.2217 52.8497 59.2367 52.9482 58.1532V57.6607C52.8497 56.8727 52.2587 56.2817 51.4707 56.2817H51.1752H47.6291L48.5156 53.3267H50.5841H50.8797C51.9632 53.3267 53.5392 52.3416 53.6377 51.2581V50.7656C53.5392 49.9776 52.9482 49.3866 52.1602 49.3866H51.6677H43.7876L31.475 63.2752H24.58H24.383C24.2845 63.2752 24.2845 63.1767 24.2845 63.1767L24.4815 62.4872L28.52 49.2881H32.1645L28.717 60.4187C28.717 60.5172 28.8155 60.6157 28.914 60.6157C29.0125 60.6157 29.111 60.5172 29.111 60.5172L41.7191 47.3181C41.7191 47.3181 41.8176 47.1211 41.9161 47.0226C42.6056 46.4316 42.7041 46.4316 43.7876 46.4316H52.2587H52.9482C55.0167 46.5301 56.8882 47.9091 57.0852 49.8791V49.8792C57.0852 50.2732 57.0852 50.8641 56.9867 51.2581C56.6912 52.6372 55.7062 53.7207 54.5242 54.5087C54.6227 54.5087 54.7212 54.5087 54.8197 54.6072C54.9182 54.6564 54.9921 54.7057 55.0659 54.7549Z" fill="white"/>
</svg>
