<svg xmlns="http://www.w3.org/2000/svg" width="66.643" height="35.633" viewBox="0 0 66.643 35.633"><defs><style>.a{fill:#fff;}</style></defs><g transform="translate(-314.006 -59.162)"><g transform="translate(314.006 59.162)"><g transform="translate(0 0)"><path class="a" d="M448.342,60.36a1.453,1.453,0,1,1,1.431,1.2A1.33,1.33,0,0,1,448.342,60.36Z" transform="translate(-406.988 -59.162)"/><path class="a" d="M461.258,60.36a1.454,1.454,0,1,1,1.431,1.2A1.33,1.33,0,0,1,461.258,60.36Z" transform="translate(-415.928 -59.162)"/><path class="a" d="M474.173,60.36a1.454,1.454,0,1,1,1.432,1.2A1.331,1.331,0,0,1,474.173,60.36Z" transform="translate(-424.867 -59.162)"/><path class="a" d="M487.091,60.36a1.454,1.454,0,1,1,1.431,1.2A1.33,1.33,0,0,1,487.091,60.36Z" transform="translate(-433.808 -59.162)"/><path class="a" d="M456.866,71.953a1.453,1.453,0,1,1,1.431,1.2A1.33,1.33,0,0,1,456.866,71.953Z" transform="translate(-412.888 -67.186)"/><path class="a" d="M469.782,71.953a1.454,1.454,0,1,1,1.431,1.2A1.33,1.33,0,0,1,469.782,71.953Z" transform="translate(-421.828 -67.186)"/><path class="a" d="M482.7,71.953a1.454,1.454,0,1,1,1.432,1.2A1.331,1.331,0,0,1,482.7,71.953Z" transform="translate(-430.767 -67.186)"/><path class="a" d="M495.616,71.953a1.454,1.454,0,1,1,1.431,1.2A1.33,1.33,0,0,1,495.616,71.953Z" transform="translate(-439.709 -67.186)"/><path class="a" d="M465.392,83.546a1.454,1.454,0,1,1,1.431,1.2A1.33,1.33,0,0,1,465.392,83.546Z" transform="translate(-418.789 -75.21)"/><path class="a" d="M478.307,83.546a1.454,1.454,0,1,1,1.432,1.2A1.33,1.33,0,0,1,478.307,83.546Z" transform="translate(-427.728 -75.21)"/><path class="a" d="M491.223,83.546a1.454,1.454,0,1,1,1.433,1.2A1.331,1.331,0,0,1,491.223,83.546Z" transform="translate(-436.668 -75.21)"/><path class="a" d="M504.139,83.546a1.454,1.454,0,1,1,1.432,1.2A1.331,1.331,0,0,1,504.139,83.546Z" transform="translate(-445.608 -75.21)"/><path class="a" d="M486.831,95.138a1.454,1.454,0,1,1,1.431,1.2A1.331,1.331,0,0,1,486.831,95.138Z" transform="translate(-433.628 -83.233)"/><path class="a" d="M499.749,95.138a1.454,1.454,0,1,1,1.431,1.2A1.33,1.33,0,0,1,499.749,95.138Z" transform="translate(-442.569 -83.233)"/><path class="a" d="M512.665,95.138a1.454,1.454,0,1,1,1.431,1.2A1.33,1.33,0,0,1,512.665,95.138Z" transform="translate(-451.509 -83.233)"/><path class="a" d="M482.442,106.731a1.453,1.453,0,1,1,1.431,1.2A1.33,1.33,0,0,1,482.442,106.731Z" transform="translate(-430.59 -91.258)"/><path class="a" d="M495.356,106.731a1.454,1.454,0,1,1,1.431,1.2A1.33,1.33,0,0,1,495.356,106.731Z" transform="translate(-439.529 -91.258)"/><path class="a" d="M508.274,106.731a1.454,1.454,0,1,1,1.432,1.2A1.33,1.33,0,0,1,508.274,106.731Z" transform="translate(-448.47 -91.258)"/><path class="a" d="M521.189,106.731a1.454,1.454,0,1,1,1.431,1.2A1.331,1.331,0,0,1,521.189,106.731Z" transform="translate(-457.409 -91.258)"/><path class="a" d="M448.342,153.1a1.453,1.453,0,1,0,1.431-1.2A1.33,1.33,0,0,0,448.342,153.1Z" transform="translate(-406.988 -123.353)"/><path class="a" d="M461.258,153.1a1.454,1.454,0,1,0,1.431-1.2A1.33,1.33,0,0,0,461.258,153.1Z" transform="translate(-415.928 -123.353)"/><path class="a" d="M474.173,153.1a1.454,1.454,0,1,0,1.432-1.2A1.331,1.331,0,0,0,474.173,153.1Z" transform="translate(-424.867 -123.353)"/><path class="a" d="M487.091,153.1a1.454,1.454,0,1,0,1.431-1.2A1.33,1.33,0,0,0,487.091,153.1Z" transform="translate(-433.808 -123.353)"/><path class="a" d="M456.866,141.508a1.453,1.453,0,1,0,1.431-1.2A1.33,1.33,0,0,0,456.866,141.508Z" transform="translate(-412.888 -115.329)"/><path class="a" d="M469.782,141.508a1.454,1.454,0,1,0,1.431-1.2A1.33,1.33,0,0,0,469.782,141.508Z" transform="translate(-421.828 -115.329)"/><path class="a" d="M482.7,141.508a1.454,1.454,0,1,0,1.432-1.2A1.33,1.33,0,0,0,482.7,141.508Z" transform="translate(-430.767 -115.329)"/><path class="a" d="M495.616,141.508a1.454,1.454,0,1,0,1.431-1.2A1.33,1.33,0,0,0,495.616,141.508Z" transform="translate(-439.709 -115.329)"/><path class="a" d="M478.307,129.916a1.454,1.454,0,1,0,1.432-1.2A1.33,1.33,0,0,0,478.307,129.916Z" transform="translate(-427.728 -107.306)"/><path class="a" d="M491.223,129.916a1.455,1.455,0,1,0,1.433-1.2A1.331,1.331,0,0,0,491.223,129.916Z" transform="translate(-436.668 -107.306)"/><path class="a" d="M504.139,129.916a1.454,1.454,0,1,0,1.432-1.2A1.331,1.331,0,0,0,504.139,129.916Z" transform="translate(-445.608 -107.306)"/><path class="a" d="M486.831,118.323a1.454,1.454,0,1,0,1.431-1.2A1.331,1.331,0,0,0,486.831,118.323Z" transform="translate(-433.628 -99.282)"/><path class="a" d="M499.749,118.323a1.454,1.454,0,1,0,1.431-1.2A1.33,1.33,0,0,0,499.749,118.323Z" transform="translate(-442.569 -99.282)"/><path class="a" d="M512.665,118.323a1.454,1.454,0,1,0,1.431-1.2A1.33,1.33,0,0,0,512.665,118.323Z" transform="translate(-451.509 -99.282)"/><path class="a" d="M453.508,95.023h-6.57a5,5,0,0,0-.534.054,4.75,4.75,0,0,0-3.981,3.959,3.5,3.5,0,0,0,.02.961,2.957,2.957,0,0,0,2.884,2.615,3.883,3.883,0,0,0,.451.019h2.445s0,0,.006,0a1.676,1.676,0,0,1,.247.006,1.189,1.189,0,0,1,1.159,1.051,1.408,1.408,0,0,1,.008.387,2.023,2.023,0,0,1-1.866,1.607c-.062,0-.124.01-.189.014h-6.357l-.509,1.631a.068.068,0,0,0,0,.01l-.1.329-.046.148h0l-.02.066a.042.042,0,0,0,.042.06h7.257a4.925,4.925,0,0,0,.534-.054,4.748,4.748,0,0,0,3.981-3.959,3.564,3.564,0,0,0-.019-.961,2.958,2.958,0,0,0-2.885-2.615,3.981,3.981,0,0,0-.507-.018v0h-2.389s0,0-.006,0a1.518,1.518,0,0,1-.246-.006,1.188,1.188,0,0,1-1.16-1.051,1.4,1.4,0,0,1-.008-.386,1.836,1.836,0,0,1,1.742-1.55c.062,0,.124-.009.189-.014h5.772l.66-2.113h0l.011-.038.022-.07h0l.007-.024A.042.042,0,0,0,453.508,95.023Z" transform="translate(-401.593 -83.983)"/><path class="a" d="M324.289,90.594h-.245a.158.158,0,0,1-.106-.031.092.092,0,0,1-.011-.1l0,0,.758-1.371a1.4,1.4,0,0,1,.261-.358A1.757,1.757,0,0,1,326,88.222v0a11.6,11.6,0,0,1,1.443-.069l0,0h7.425l.78-2.54.056-.182a.043.043,0,0,0-.042-.06H321.218l-.006,0a24.064,24.064,0,0,0-2.985.143l0,.008a3.638,3.638,0,0,0-2.176,1.048,2.922,2.922,0,0,0-.538.74l-1.449,2.723-.009.02a.43.43,0,0,0,.051.476.73.73,0,0,0,.5.15h6.321l-2.6,8.473-.007.03a1.507,1.507,0,0,0,.438,1.495,1.994,1.994,0,0,0,1.427.588h4.844l3.272-10.67Z" transform="translate(-314.006 -77.299)"/><path class="a" d="M383.459,101.525a2.726,2.726,0,0,0-.394-.249c-.074-.04-.149-.076-.227-.111A3.884,3.884,0,0,0,384.7,98.7a3.311,3.311,0,0,0,.045-1.054,3.232,3.232,0,0,0-3.146-2.615c-.164-.017-.507-.021-.507-.021l-6.487,0c-.84,0-.936-.036-1.4.467-.1.11-.177.2-.177.2l-9.6,10.175a.264.264,0,0,1-.123.062.141.141,0,0,1-.142-.135l2.6-8.514H362.99l-3.077,10.061,0,0-.167.547a.043.043,0,0,0,.042.061h5.384l9.455-10.632h6s.276,0,.356.01a1.19,1.19,0,0,1,1.159,1.052,1.415,1.415,0,0,1,.008.386c-.1.842-1.25,1.562-2.127,1.608-.062,0-.125.009-.19.014h-1.618l-.7,2.244h2.732s0,0,.005,0a1.67,1.67,0,0,1,.246.006,1.138,1.138,0,0,1,1.107,1.051,1.432,1.432,0,0,1,.008.387,2.023,2.023,0,0,1-1.866,1.607c-.062,0-.123.009-.188.014H375.62l2.187-7.118H374.8l-2.838,9.246h0l-.017.056a.043.043,0,0,0,.041.06h7.892c.025,0,.544,0,.641-.008a4.274,4.274,0,0,0,4.19-3.738,3.073,3.073,0,0,0-.089-.9A2.968,2.968,0,0,0,383.459,101.525Z" transform="translate(-345.662 -83.975)"/></g></g><g transform="translate(317.66 84.63)"><path class="a" d="M338.328,163.6l-.93.249a17.191,17.191,0,0,1,.606,1.968l.952-.368A18.7,18.7,0,0,0,338.328,163.6Z" transform="translate(-333.851 -156.918)"/><path class="a" d="M338.328,163.6l-.93.249a17.191,17.191,0,0,1,.606,1.968l.952-.368A18.7,18.7,0,0,0,338.328,163.6Z" transform="translate(-333.851 -156.918)"/><path class="a" d="M326.85,163.812a8.048,8.048,0,0,1-.973,2.487l.94.595a10.605,10.605,0,0,0,1.049-2.865Z" transform="translate(-325.877 -157.064)"/><path class="a" d="M326.85,163.812a8.048,8.048,0,0,1-.973,2.487l.94.595a10.605,10.605,0,0,0,1.049-2.865Z" transform="translate(-325.877 -157.064)"/><path class="a" d="M343.408,144.059a11.944,11.944,0,0,0,3.049-.552l-.552-1.016a10.3,10.3,0,0,1-3.59.649v4.693a6.949,6.949,0,0,1-.984,3.73l.811.854a8.37,8.37,0,0,0,1.265-4.585v-1.027h1.168v5.634h1.114v-5.634h.995v-1.071h-3.277Z" transform="translate(-336.574 -142.307)"/><path class="a" d="M343.408,144.059a11.944,11.944,0,0,0,3.049-.552l-.552-1.016a10.3,10.3,0,0,1-3.59.649v4.693a6.949,6.949,0,0,1-.984,3.73l.811.854a8.37,8.37,0,0,0,1.265-4.585v-1.027h1.168v5.634h1.114v-5.634h.995v-1.071h-3.277Z" transform="translate(-336.574 -142.307)"/><path class="a" d="M331.462,151.738h-1.773v-.876h1.957v-1.027H330.6c.14-.314.27-.649.4-1.017l-1.006-.357a13.55,13.55,0,0,1-.421,1.373h-.952a12.542,12.542,0,0,0-.465-1.373l-.995.378a6.456,6.456,0,0,1,.454.995h-1.1v1.027h2.054v.876h-1.882v1.027h1.882v2.563c0,.205-.13.313-.368.313a1.8,1.8,0,0,1-.443-.075L328,156.6h.562c.746,0,1.125-.335,1.125-1.006v-2.833h1.773Z" transform="translate(-326.315 -146.44)"/><path class="a" d="M331.462,151.738h-1.773v-.876h1.957v-1.027H330.6c.14-.314.27-.649.4-1.017l-1.006-.357a13.55,13.55,0,0,1-.421,1.373h-.952a12.542,12.542,0,0,0-.465-1.373l-.995.378a6.456,6.456,0,0,1,.454.995h-1.1v1.027h2.054v.876h-1.882v1.027h1.882v2.563c0,.205-.13.313-.368.313a1.8,1.8,0,0,1-.443-.075L328,156.6h.562c.746,0,1.125-.335,1.125-1.006v-2.833h1.773Z" transform="translate(-326.315 -146.44)"/><path class="a" d="M331.823,142.834h-1.968c-.13-.346-.249-.66-.379-.941l-1.168.195a6.118,6.118,0,0,1,.422.746H326.86v1.038h4.963Z" transform="translate(-326.557 -141.893)"/><path class="a" d="M331.823,142.834h-1.968c-.13-.346-.249-.66-.379-.941l-1.168.195a6.118,6.118,0,0,1,.422.746H326.86v1.038h4.963Z" transform="translate(-326.557 -141.893)"/><path class="a" d="M375.657,159.061c-.281.022-.562.054-.865.076v-2.628h.952v-.951H369.9v.951h.779v2.876c-.271,0-.552.011-.833.033l.13.984c1.352-.065,2.617-.141,3.8-.238v1.006h1.017v-1.092l.865-.087Zm-1.882.151c-.649.043-1.341.076-2.076.119v-.465h2.076Zm0-1.125H371.7v-.422h2.076Zm0-1.179H371.7v-.4h2.076Z" transform="translate(-356.313 -151.351)"/><path class="a" d="M375.657,159.061c-.281.022-.562.054-.865.076v-2.628h.952v-.951H369.9v.951h.779v2.876c-.271,0-.552.011-.833.033l.13.984c1.352-.065,2.617-.141,3.8-.238v1.006h1.017v-1.092l.865-.087Zm-1.882.151c-.649.043-1.341.076-2.076.119v-.465h2.076Zm0-1.125H371.7v-.422h2.076Zm0-1.179H371.7v-.4h2.076Z" transform="translate(-356.313 -151.351)"/><path class="a" d="M380.809,146.664h3.158v4.931c0,.26-.13.4-.368.4-.27,0-.562-.022-.887-.054l.26.995c.335.022.681.043,1.027.043.724,0,1.092-.346,1.092-1.038v-8.608h-4.282Zm1.125-2.487h2.033v.411h-2.033Zm0,1.168h2.033v.5h-2.033Z" transform="translate(-363.899 -142.89)"/><path class="a" d="M380.809,146.664h3.158v4.931c0,.26-.13.4-.368.4-.27,0-.562-.022-.887-.054l.26.995c.335.022.681.043,1.027.043.724,0,1.092-.346,1.092-1.038v-8.608h-4.282Zm1.125-2.487h2.033v.411h-2.033Zm0,1.168h2.033v.5h-2.033Z" transform="translate(-363.899 -142.89)"/><path class="a" d="M368.7,143.333h-4.325V153H365.5v-6.347h3.2Zm-1.125,2.5H365.5v-.487h2.076Zm0-1.244H365.5v-.433h2.076Z" transform="translate(-352.521 -142.89)"/><path class="a" d="M368.7,143.333h-4.325V153H365.5v-6.347h3.2Zm-1.125,2.5H365.5v-.487h2.076Zm0-1.244H365.5v-.433h2.076Z" transform="translate(-352.521 -142.89)"/><path class="a" d="M401.841,146.032a8.837,8.837,0,0,1-.973,1.492,1.21,1.21,0,0,1-.465.292l.27.93a13.34,13.34,0,0,0,2.4-.519l.087.465.833-.206a19.588,19.588,0,0,0-.53-2.206l-.8.26c.087.281.163.584.238.908q-.535.13-1.071.227a25.321,25.321,0,0,0,2.1-3.5l-.974-.368c-.216.454-.421.876-.616,1.276l-.8.13a16.59,16.59,0,0,0,1.352-2.8L401.862,142a19.565,19.565,0,0,1-1.038,2.844,1.059,1.059,0,0,1-.454.4l.27.984Q401.257,146.129,401.841,146.032Z" transform="translate(-377.438 -141.966)"/><path class="a" d="M401.841,146.032a8.837,8.837,0,0,1-.973,1.492,1.21,1.21,0,0,1-.465.292l.27.93a13.34,13.34,0,0,0,2.4-.519l.087.465.833-.206a19.588,19.588,0,0,0-.53-2.206l-.8.26c.087.281.163.584.238.908q-.535.13-1.071.227a25.321,25.321,0,0,0,2.1-3.5l-.974-.368c-.216.454-.421.876-.616,1.276l-.8.13a16.59,16.59,0,0,0,1.352-2.8L401.862,142a19.565,19.565,0,0,1-1.038,2.844,1.059,1.059,0,0,1-.454.4l.27.984Q401.257,146.129,401.841,146.032Z" transform="translate(-377.438 -141.966)"/><path class="a" d="M419.944,159.61v-.843h-1.8v-1.189h1.99v-.952H419c-.086-.357-.162-.681-.248-.962l-.941.151a7.022,7.022,0,0,1,.292.811h-1.3v.952h.454v2.033Z" transform="translate(-388.816 -151.424)"/><path class="a" d="M419.944,159.61v-.843h-1.8v-1.189h1.99v-.952H419c-.086-.357-.162-.681-.248-.962l-.941.151a7.022,7.022,0,0,1,.292.811h-1.3v.952h.454v2.033Z" transform="translate(-388.816 -151.424)"/><path class="a" d="M409.725,151.481a14.75,14.75,0,0,0-.562-1.687l-.714.249a17.187,17.187,0,0,1,.508,1.914l.768-.357v1.373h1.027V144.4h3.86v7.158c0,.248-.1.378-.281.378l-1.319-.032.281.995h1.362c.66,0,.995-.368.995-1.1V143.4h-5.926Z" transform="translate(-383.03 -142.939)"/><path class="a" d="M409.725,151.481a14.75,14.75,0,0,0-.562-1.687l-.714.249a17.187,17.187,0,0,1,.508,1.914l.768-.357v1.373h1.027V144.4h3.86v7.158c0,.248-.1.378-.281.378l-1.319-.032.281.995h1.362c.66,0,.995-.368.995-1.1V143.4h-5.926Z" transform="translate(-383.03 -142.939)"/><path class="a" d="M404.9,165.319q.179.973.292,2.238l.9-.205c-.119-.8-.259-1.536-.41-2.206Z" transform="translate(-380.574 -157.988)"/><path class="a" d="M404.9,165.319q.179.973.292,2.238l.9-.205c-.119-.8-.259-1.536-.41-2.206Z" transform="translate(-380.574 -157.988)"/><path class="a" d="M400.159,167.809l.9.281a14.045,14.045,0,0,0,.346-2.649l-.876-.119A11.061,11.061,0,0,1,400.159,167.809Z" transform="translate(-377.292 -158.11)"/><path class="a" d="M400.159,167.809l.9.281a14.045,14.045,0,0,0,.346-2.649l-.876-.119A11.061,11.061,0,0,1,400.159,167.809Z" transform="translate(-377.292 -158.11)"/><path class="a" d="M416.6,149.95h3.449V149h-.735a6.259,6.259,0,0,0,.389-1.319l-.908-.13a8.268,8.268,0,0,1-.324,1.449h-.844l.519-.238a9.532,9.532,0,0,0-.519-1.168l-.778.27a8.059,8.059,0,0,1,.5,1.136H416.6Z" transform="translate(-388.67 -145.808)"/><path class="a" d="M416.6,149.95h3.449V149h-.735a6.259,6.259,0,0,0,.389-1.319l-.908-.13a8.268,8.268,0,0,1-.324,1.449h-.844l.519-.238a9.532,9.532,0,0,0-.519-1.168l-.778.27a8.059,8.059,0,0,1,.5,1.136H416.6Z" transform="translate(-388.67 -145.808)"/></g></g></svg>