<?xml version="1.0" encoding="UTF-8"?>
<svg id="_圖層_1" data-name="圖層_1" xmlns="http://www.w3.org/2000/svg" version="1.1" xmlns:xlink="http://www.w3.org/1999/xlink" viewBox="0 0 1098.3 603.2">
  <!-- Generator: Adobe Illustrator 29.3.1, SVG Export Plug-In . SVG Version: 2.1.0 Build 151)  -->
  <defs>
    <style>
      .st0 {
        mask: url(#mask-15);
      }

      .st1 {
        mask: url(#mask-5);
      }

      .st2 {
        mask: url(#mask-13);
      }

      .st3 {
        fill: url(#_未命名漸層_173);
      }

      .st4 {
        fill: #040000;
      }

      .st5 {
        mask: url(#mask-1);
      }

      .st6 {
        fill: url(#_未命名漸層_174);
      }

      .st7 {
        mask: url(#mask-10);
      }

      .st8 {
        mask: url(#mask-6);
      }

      .st9 {
        mask: url(#mask-7);
      }

      .st10 {
        mask: url(#mask-18);
      }

      .st11 {
        fill: url(#_未命名漸層_1713);
      }

      .st12 {
        fill: #fff;
      }

      .st13 {
        mask: url(#mask-17);
      }

      .st14 {
        mask: url(#mask);
      }

      .st15 {
        fill: url(#_未命名漸層_31);
      }

      .st16 {
        mask: url(#mask-30);
      }

      .st17 {
        mask: url(#mask-20);
      }

      .st18 {
        fill: url(#_未命名漸層_1711);
      }

      .st19 {
        fill: url(#_未命名漸層_1712);
      }

      .st20 {
        mask: url(#mask-8);
      }

      .st21 {
        mask: url(#mask-2);
      }

      .st22 {
        mask: url(#mask-9);
      }

      .st23 {
        fill: url(#_未命名漸層_32);
      }

      .st24 {
        fill: url(#_未命名漸層_177);
      }

      .st25 {
        mask: url(#mask-21);
      }

      .st26 {
        fill: url(#_未命名漸層_172);
      }

      .st27 {
        fill: url(#_未命名漸層_171);
      }

      .st28 {
        fill: url(#_未命名漸層_178);
      }

      .st29 {
        mask: url(#mask-28);
      }

      .st30 {
        mask: url(#mask-23);
      }

      .st31 {
        mask: url(#mask-26);
      }

      .st32 {
        fill: url(#_未命名漸層_175);
      }

      .st33 {
        fill: #da3b2b;
      }

      .st34 {
        mask: url(#mask-24);
      }

      .st35 {
        fill: url(#_未命名漸層_3);
      }

      .st36 {
        mask: url(#mask-16);
      }

      .st37 {
        mask: url(#mask-19);
      }

      .st38 {
        mask: url(#mask-25);
      }

      .st39 {
        mask: url(#mask-29);
      }

      .st40 {
        fill: url(#_未命名漸層_17);
      }

      .st41 {
        fill: url(#_未命名漸層_1710);
      }

      .st42 {
        fill: url(#_未命名漸層_176);
      }

      .st43 {
        mask: url(#mask-11);
      }

      .st44 {
        mask: url(#mask-12);
      }

      .st45 {
        fill: url(#_未命名漸層_179);
      }

      .st46 {
        mask: url(#mask-22);
      }

      .st47 {
        mask: url(#mask-4);
      }

      .st48 {
        mask: url(#mask-14);
      }

      .st49 {
        mask: url(#mask-27);
      }

      .st50 {
        mask: url(#mask-3);
      }
    </style>
    <mask id="mask" x="539.4" y="94.4" width="405" height="407.8" maskUnits="userSpaceOnUse">
      <g id="mask0_844_3152">
        <path class="st12" d="M842.3,196.4h-102.2c-2.1,0-6.3.5-8.4.8-31.6,4.7-58.8,31.4-62.4,62.4-.6,5.3-.4,10.3.3,15.1,2.9,23.3,20.8,40,45.2,41.2,2.3.2,4.7.3,7,.3h38.3s0,0,0,0c1.3,0,2.6,0,3.9,0,9.8.5,17,7.2,18.1,16.6.3,1.9.4,4,.1,6.1-1.5,13.3-15.5,24.6-29.2,25.3-1,0-1.9.1-2.9.2h-99.6l-8,25.7s0,0,0,.1l-1.6,5.2-.7,2.3-.3,1.1c-.2.5.1.9.6.9h113.7c2.1,0,6.3-.5,8.4-.9,31.6-4.7,58.8-31.4,62.4-62.4.6-5.3.5-10.3-.3-15.1-2.9-23.3-20.9-40-45.2-41.2-2.6-.2-5.2-.3-8-.3h-37.4s0,0,0,0c-1.3,0-2.6,0-3.9,0-9.8-.5-17-7.2-18.2-16.6-.3-1.9-.4-4-.1-6.1,1.5-13.3,13.5-23.7,27.3-24.5,1,0,1.9-.1,2.9-.2h90.4l10.3-33.3.2-.6.3-1.1v-.4c.2-.5,0-.9-.5-.9h-.7,0Z"/>
      </g>
    </mask>
    <linearGradient id="_未命名漸層_3" data-name="未命名漸層 3" x1="357.9" y1="913.3" x2="579.4" y2="665.7" gradientTransform="translate(0 782.3) scale(1 -1)" gradientUnits="userSpaceOnUse">
      <stop offset="0" stop-color="#0f9695"/>
      <stop offset=".6" stop-color="#0a6fb4"/>
      <stop offset="1" stop-color="#11337f"/>
    </linearGradient>
    <mask id="mask-1" x="-93.9" y="-20.8" width="587.6" height="591" maskUnits="userSpaceOnUse">
      <g id="mask1_844_3152">
        <path class="st12" d="M142.8,149.5h0c-15.7,0-31.5.6-46.8,2.3h0c-12.5,1.5-24.5,7-34.1,16.6-3.5,3.5-6.3,7.5-8.4,11.7l-22.7,43v.3c-.6,1.1-.9,2.2-.9,3.2v.4c0,1.5.5,2.8,1.5,3.9,1.8,1.9,5.4,2.4,7.9,2.4h99l-40.7,133.7v.5c-2.1,9.8.3,17,6.8,23.6,6.2,6.3,14.2,9.3,22.3,9.3h75.9l51.3-168.3h-66.7c-.5,0-1.3,0-1.6-.5-.4-.4-.4-1-.2-1.6l11.9-21.7c1-2,2.4-3.9,4.1-5.6,4.6-4.7,10.5-7.3,16.4-8,7.4-.9,15-1.3,22.6-1.1h116.3l12.2-40.1.9-2.9c.1-.5-.1-1-.7-1h-226.1Z"/>
      </g>
    </mask>
    <linearGradient id="_未命名漸層_31" data-name="未命名漸層 3" x1="68.9" y1="654" x2="290.4" y2="406.4" xlink:href="#_未命名漸層_3"/>
    <mask id="mask-2" x="149.6" y="0" width="593.8" height="596.6" maskUnits="userSpaceOnUse">
      <g id="mask2_844_3152">
        <path class="st12" d="M461.3,203.7c-1.6,1.7-2.8,3.2-2.8,3.2l-150.4,160.5s-1.2,1-1.9,1c-1.2,0-2.2-1-2.2-2.1l40.7-134.3h-43.5l-48.2,158.7h0c0,0-2.6,8.7-2.6,8.7-.1.5.1,1,.7,1h84.3l148.1-167.7h94s4.3,0,5.6.1c9.8.5,17,7.2,18.2,16.6.3,1.9.4,4,.1,6.1-1.5,13.3-19.6,24.6-33.3,25.3-1,0-2,.1-3,.2h-25.3l-11,35.4h42.8s0,0,0,0c1.3,0,2.6,0,3.9,0,9.8.5,16.2,7.2,17.4,16.6.3,1.9.4,4,.1,6.1-1.5,13.3-15.5,24.6-29.2,25.3-1,0-1.9.1-2.9.2h-61.7l34.2-112.3h-47.2l-44.5,145.8-.3.9c-.1.5.1.9.6.9h123.6c.4,0,8.5,0,10-.1,34.8-1.7,64.2-28.1,65.6-59,.2-4.9-.2-9.7-1.4-14.2-2.4-11.4-8.9-21.1-18.1-27.9-1.9-1.5-4-2.8-6.2-3.9-1.2-.6-2.3-1.2-3.6-1.7,14.5-9.3,26-22.1,29.2-38.8,1-5.2,1.4-11.8.7-16.6-2.9-23.3-24.9-40-49.3-41.2-2.6-.3-8-.3-8-.3h-101.6c-1.6,0-3.1,0-4.4,0-9.2,0-11.1.4-17.6,7.4"/>
      </g>
    </mask>
    <linearGradient id="_未命名漸層_32" data-name="未命名漸層 3" x1="194.6" y1="765.8" x2="413.9" y2="520.6" xlink:href="#_未命名漸層_3"/>
    <mask id="mask-3" x="29.8" y="22.2" width="1044" height="562.1" maskUnits="userSpaceOnUse">
      <g id="mask3_844_3152">
        <path class="st12" d="M1073.8,22.2H29.8v562.1h1044V22.2Z"/>
      </g>
    </mask>
    <mask id="mask-4" x="142.6" y="529.4" width="24.4" height="35" maskUnits="userSpaceOnUse">
      <g id="mask4_844_3152">
        <path class="st12" d="M142.6,533.3c3.7,10.1,6.9,20.4,9.5,31l14.9-5.8c-2.4-8.9-5.7-18.6-9.8-29.2l-14.6,3.9Z"/>
      </g>
    </mask>
    <linearGradient id="_未命名漸層_17" data-name="未命名漸層 17" x1="78.8" y1="235.5" x2="687.4" y2="235.5" gradientTransform="translate(0 782.3) scale(1 -1)" gradientUnits="userSpaceOnUse">
      <stop offset="0" stop-color="#767474"/>
      <stop offset=".4" stop-color="#565353"/>
      <stop offset="1" stop-color="#241b18"/>
    </linearGradient>
    <mask id="mask-5" x="29.8" y="22.2" width="1044" height="562.1" maskUnits="userSpaceOnUse">
      <g id="mask5_844_3152">
        <path class="st12" d="M1073.8,22.2H29.8v562.1h1044V22.2Z"/>
      </g>
    </mask>
    <mask id="mask-6" x="87" y="530.4" width="31.2" height="48.6" maskUnits="userSpaceOnUse">
      <g id="mask6_844_3152">
        <path class="st12" d="M87,569.6l14.7,9.4c7.1-12.8,12.5-27.8,16.4-45.2l-15.9-3.4c-2.9,13.8-8,27-15.2,39.2Z"/>
      </g>
    </mask>
    <linearGradient id="_未命名漸層_171" data-name="未命名漸層 17" x1="78.8" y1="227.6" x2="687.4" y2="227.6" xlink:href="#_未命名漸層_17"/>
    <mask id="mask-7" x="29.8" y="22.2" width="1044" height="562.1" maskUnits="userSpaceOnUse">
      <g id="mask7_844_3152">
        <path class="st12" d="M1073.8,22.2H29.8v562.1h1044V22.2Z"/>
      </g>
    </mask>
    <mask id="mask-8" x="161.5" y="426.9" width="83.9" height="156.9" maskUnits="userSpaceOnUse">
      <g id="mask8_844_3152">
        <path class="st12" d="M177,437.1v74c-.7,25.1-5.9,44.7-15.4,58.9l12.7,13.5c12.3-18.1,19-42.2,19.8-72.3v-16.2h18.3v88.9h17.5v-88.9h15.6v-16.9h-51.3v-26.5c17.5-1,33.4-3.9,47.8-8.7l-8.6-16c-16.6,6.5-35.3,9.9-56.2,10.2"/>
      </g>
    </mask>
    <linearGradient id="_未命名漸層_172" data-name="未命名漸層 17" x1="78.9" y1="277" x2="687.4" y2="277" xlink:href="#_未命名漸層_17"/>
    <mask id="mask-9" x="29.8" y="22.2" width="1044" height="562.1" maskUnits="userSpaceOnUse">
      <g id="mask9_844_3152">
        <path class="st12" d="M1073.8,22.2H29.8v562.1h1044V22.2Z"/>
      </g>
    </mask>
    <mask id="mask-10" x="90.1" y="455.9" width="80.5" height="128.5" maskUnits="userSpaceOnUse">
      <g id="mask10_844_3152">
        <path class="st12" d="M138,477.5h-14.9c-2.4-8.4-4.7-15.5-7.3-21.7l-15.6,6c2.7,4.8,5.1,10.1,7.1,15.7h-17.3v16.2h32.2v13.8h-29.5v16.2h29.5v40.4c0,3.3-2,5-5.7,5s-4.4-.5-6.9-1.2l3.9,16.4h8.8c11.7,0,17.6-5.3,17.6-15.9v-44.7h27.8v-16.2h-27.8v-13.8h30.7v-16.2h-16.4c2.2-5,4.2-10.2,6.3-16l-15.8-5.6c-1.9,7.5-4.1,14.7-6.6,21.7"/>
      </g>
    </mask>
    <linearGradient id="_未命名漸層_173" data-name="未命名漸層 17" x1="78.8" y1="262.2" x2="687.4" y2="262.2" xlink:href="#_未命名漸層_17"/>
    <mask id="mask-11" x="29.8" y="22.2" width="1044" height="562.1" maskUnits="userSpaceOnUse">
      <g id="mask11_844_3152">
        <path class="st12" d="M1073.8,22.2H29.8v562.1h1044V22.2Z"/>
      </g>
    </mask>
    <mask id="mask-12" x="91.8" y="423.9" width="77.7" height="31.3" maskUnits="userSpaceOnUse">
      <g id="mask12_844_3152">
        <path class="st12" d="M114.5,427c2.4,3.6,4.6,7.5,6.6,11.8h-29.3v16.4h77.7v-16.4h-30.8c-2-5.4-3.9-10.4-5.9-14.9l-18.3,3.1h0Z"/>
      </g>
    </mask>
    <linearGradient id="_未命名漸層_174" data-name="未命名漸層 17" x1="78.8" y1="342.7" x2="687.4" y2="342.7" xlink:href="#_未命名漸層_17"/>
    <mask id="mask-13" x="29.8" y="22.2" width="1044" height="562.1" maskUnits="userSpaceOnUse">
      <g id="mask13_844_3152">
        <path class="st12" d="M1073.8,22.2H29.8v562.1h1044V22.2Z"/>
      </g>
    </mask>
    <mask id="mask-14" x="299.1" y="490.3" width="92.3" height="88.5" maskUnits="userSpaceOnUse">
      <g id="mask14_844_3152">
        <path class="st12" d="M328.1,542.5h32.5v5.4c-10.2.7-21,1.2-32.5,1.9v-7.3ZM328.1,523.6h32.5v6.7h-32.5v-6.7ZM328.1,505.4h32.5v6.3h-32.5v-6.3ZM300,490.3v15h12.2v45.4c-4.2,0-8.6.2-13,.5l2,15.5c21.2-1,41-2.2,59.5-3.7v15.9h15.9v-17.2l13.6-1.4v-14.7c-4.4.3-8.8.8-13.6,1.2v-41.5h14.9v-15h-91.5Z"/>
      </g>
    </mask>
    <linearGradient id="_未命名漸層_175" data-name="未命名漸層 17" x1="88.5" y1="247.8" x2="697.1" y2="247.8" xlink:href="#_未命名漸層_17"/>
    <mask id="mask-15" x="29.8" y="22.2" width="1044" height="562.1" maskUnits="userSpaceOnUse">
      <g id="mask15_844_3152">
        <path class="st12" d="M1073.8,22.2H29.8v562.1h1044V22.2Z"/>
      </g>
    </mask>
    <mask id="mask-16" x="351.9" y="431" width="67.1" height="152.2" maskUnits="userSpaceOnUse">
      <g id="mask16_844_3152">
        <path class="st12" d="M369.6,462.7h31.8v7.9h-31.8v-7.9ZM369.6,444.3h31.8v6.5h-31.8v-6.5ZM351.9,431v52.5h49.5v77.8c0,4.1-2,6.3-5.7,6.3s-8.8-.3-13.9-.8l4,15.7c5.3.3,10.7.7,16.1.7,11.3,0,17.1-5.4,17.1-16.4v-135.8h-67.1Z"/>
      </g>
    </mask>
    <linearGradient id="_未命名漸層_176" data-name="未命名漸層 17" x1="88.5" y1="275.3" x2="697.1" y2="275.3" xlink:href="#_未命名漸層_17"/>
    <mask id="mask-17" x="29.8" y="22.2" width="1044" height="562.1" maskUnits="userSpaceOnUse">
      <g id="mask17_844_3152">
        <path class="st12" d="M1073.8,22.2H29.8v562.1h1044V22.2Z"/>
      </g>
    </mask>
    <mask id="mask-18" x="272.7" y="431" width="67.8" height="152.5" maskUnits="userSpaceOnUse">
      <g id="mask18_844_3152">
        <path class="st12" d="M290.3,462.7h32.6v7.7h-32.6v-7.7ZM290.3,443.9h32.6v6.8h-32.6v-6.8ZM272.7,431v152.5h17.6v-100.1h50.2v-52.3h-67.8Z"/>
      </g>
    </mask>
    <linearGradient id="_未命名漸層_177" data-name="未命名漸層 17" x1="88.5" y1="275.1" x2="697.1" y2="275.1" xlink:href="#_未命名漸層_17"/>
    <mask id="mask-19" x="29.8" y="22.2" width="1044" height="562.1" maskUnits="userSpaceOnUse">
      <g id="mask19_844_3152">
        <path class="st12" d="M1073.8,22.2H29.8v562.1h1044V22.2Z"/>
      </g>
    </mask>
    <mask id="mask-20" x="446.3" y="424.5" width="56.8" height="106.5" maskUnits="userSpaceOnUse">
      <g id="mask20_844_3152">
        <path class="st12" d="M453.4,469.4c-2,3.1-4.4,5.1-7.1,6.3l4.2,15.5c6.5-1,12.7-2,18.8-3.1-6.1,11.1-11.2,18.9-15.2,23.6-2,2-4.4,3.6-7.3,4.6l4.2,14.7c11.9-1.4,24.4-4.1,37.6-8.2l1.3,7.3,13-3.3c-2.4-13.2-5.3-24.7-8.3-34.8l-12.5,4.1c1.3,4.4,2.6,9.2,3.7,14.3-5.6,1.4-11.2,2.6-16.8,3.6,8.8-11.4,19.6-29.9,32.8-55.3l-15.2-5.8c-3.4,7.2-6.6,13.8-9.6,20.2l-12.5,2c7.1-11.4,14.2-26.1,21.2-44.2l-16.1-6.5c-4.6,16.2-10,31.2-16.3,44.9"/>
      </g>
    </mask>
    <linearGradient id="_未命名漸層_178" data-name="未命名漸層 17" x1="98.1" y1="304.6" x2="706.7" y2="304.6" xlink:href="#_未命名漸層_17"/>
    <mask id="mask-21" x="29.8" y="22.2" width="1044" height="562.1" maskUnits="userSpaceOnUse">
      <g id="mask21_844_3152">
        <path class="st12" d="M1073.8,22.2H29.8v562.1h1044V22.2Z"/>
      </g>
    </mask>
    <mask id="mask-22" x="525.5" y="490.8" width="52.2" height="62.3" maskUnits="userSpaceOnUse">
      <g id="mask22_844_3152">
        <path class="st12" d="M541.3,493.2c1.7,3.9,3.2,8.2,4.6,12.8h-20.3v15h7.1v32h42v-13.3h-28.1v-18.8h31.2v-15h-17.8c-1.3-5.6-2.6-10.7-3.9-15.1l-14.8,2.4h0Z"/>
      </g>
    </mask>
    <linearGradient id="_未命名漸層_179" data-name="未命名漸層 17" x1="98.1" y1="260.4" x2="706.7" y2="260.4" xlink:href="#_未命名漸層_17"/>
    <mask id="mask-23" x="29.8" y="22.2" width="1044" height="562.1" maskUnits="userSpaceOnUse">
      <g id="mask23_844_3152">
        <path class="st12" d="M1073.8,22.2H29.8v562.1h1044V22.2Z"/>
      </g>
    </mask>
    <mask id="mask-24" x="485.2" y="431.3" width="112.8" height="151" maskUnits="userSpaceOnUse">
      <g id="mask24_844_3152">
        <path class="st12" d="M505.2,431.3v127.4c-2.6-9.4-5.4-18.3-8.8-26.6l-11.2,3.9c2.9,8.7,5.6,18.7,8,30.2l12-5.6v21.7h16.1v-135.2h60.5v112.9c0,3.9-1.5,6-4.4,6l-20.7-.5,4.4,15.7h21.4c10.3,0,15.6-5.8,15.6-17.4v-132.4h-92.8,0Z"/>
      </g>
    </mask>
    <linearGradient id="_未命名漸層_1710" data-name="未命名漸層 17" x1="98.1" y1="275.5" x2="706.7" y2="275.5" xlink:href="#_未命名漸層_17"/>
    <mask id="mask-25" x="29.8" y="22.2" width="1044" height="562.1" maskUnits="userSpaceOnUse">
      <g id="mask25_844_3152">
        <path class="st12" d="M1073.8,22.2H29.8v562.1h1044V22.2Z"/>
      </g>
    </mask>
    <mask id="mask-26" x="468.2" y="536.9" width="18.6" height="38.1" maskUnits="userSpaceOnUse">
      <g id="mask26_844_3152">
        <path class="st12" d="M468.2,539.6c1.9,10.2,3.4,22,4.6,35.3l14-3.3c-1.9-12.6-4-24.2-6.4-34.8l-12.2,2.7h0Z"/>
      </g>
    </mask>
    <linearGradient id="_未命名漸層_1711" data-name="未命名漸層 17" x1="98.1" y1="226.5" x2="706.7" y2="226.5" xlink:href="#_未命名漸層_17"/>
    <mask id="mask-27" x="29.8" y="22.2" width="1044" height="562.1" maskUnits="userSpaceOnUse">
      <g id="mask27_844_3152">
        <path class="st12" d="M1073.8,22.2H29.8v562.1h1044V22.2Z"/>
      </g>
    </mask>
    <mask id="mask-28" x="445.3" y="537.7" width="19.5" height="43.7" maskUnits="userSpaceOnUse">
      <g id="mask28_844_3152">
        <path class="st12" d="M445.3,577l14.1,4.4c2.9-12.1,4.8-26.1,5.4-41.8l-13.7-1.9c-.7,14.7-2.6,27.8-5.8,39.2"/>
      </g>
    </mask>
    <linearGradient id="_未命名漸層_1712" data-name="未命名漸層 17" x1="98.1" y1="222.8" x2="706.7" y2="222.8" xlink:href="#_未命名漸層_17"/>
    <mask id="mask-29" x="29.8" y="22.2" width="1044" height="562.1" maskUnits="userSpaceOnUse">
      <g id="mask29_844_3152">
        <path class="st12" d="M1073.8,22.2H29.8v562.1h1044V22.2Z"/>
      </g>
    </mask>
    <mask id="mask-30" x="524.5" y="451.5" width="54.1" height="37.9" maskUnits="userSpaceOnUse">
      <g id="mask30_844_3152">
        <path class="st12" d="M553.9,474.3h-13.2l8.2-3.7c-2.4-6.5-5.1-12.6-8.2-18.4l-12.2,4.3c2.7,5.1,5.4,11.1,7.8,17.9h-11.7v15h54.1v-15h-11.5c2.7-6.5,4.7-13.3,6.1-20.8l-14.2-2c-1,7.9-2.7,15.3-5.1,22.9"/>
      </g>
    </mask>
    <linearGradient id="_未命名漸層_1713" data-name="未命名漸層 17" x1="98.1" y1="311.9" x2="706.7" y2="311.9" xlink:href="#_未命名漸層_17"/>
  </defs>
  <path class="st33" d="M677.6,41.1c0-10.4,10.1-18.9,22.4-18.9s22.4,8.4,22.4,18.9-10,18.9-22.4,18.9-22.4-8.4-22.4-18.9Z"/>
  <path class="st33" d="M739.9,41.1c0-10.4,10-18.9,22.4-18.9s22.4,8.4,22.4,18.9-10,18.9-22.4,18.9-22.4-8.4-22.4-18.9Z"/>
  <path class="st33" d="M802.2,41.1c0-10.4,10-18.9,22.4-18.9s22.4,8.4,22.4,18.9-10,18.9-22.4,18.9-22.4-8.4-22.4-18.9Z"/>
  <path class="st33" d="M864.5,41.1c0-10.4,10.1-18.9,22.4-18.9s22.4,8.4,22.4,18.9-10,18.9-22.4,18.9-22.4-8.4-22.4-18.9Z"/>
  <path class="st33" d="M718.7,97.5c0-10.4,10-18.9,22.4-18.9s22.4,8.4,22.4,18.9-10,18.9-22.4,18.9-22.4-8.5-22.4-18.9Z"/>
  <path class="st33" d="M781,97.5c0-10.4,10-18.9,22.4-18.9s22.4,8.4,22.4,18.9-10,18.9-22.4,18.9-22.4-8.5-22.4-18.9Z"/>
  <path class="st33" d="M843.3,97.5c0-10.4,10-18.9,22.4-18.9s22.4,8.4,22.4,18.9-10,18.9-22.4,18.9-22.4-8.5-22.4-18.9Z"/>
  <path class="st33" d="M905.6,97.5c0-10.4,10-18.9,22.4-18.9s22.4,8.4,22.4,18.9-10,18.9-22.4,18.9-22.4-8.5-22.4-18.9Z"/>
  <path class="st33" d="M759.9,153.7c0-10.4,10-18.9,22.4-18.9s22.4,8.4,22.4,18.9-10,18.9-22.4,18.9-22.4-8.4-22.4-18.9Z"/>
  <path class="st33" d="M822.1,153.7c0-10.4,10-18.9,22.4-18.9s22.4,8.4,22.4,18.9-10,18.9-22.4,18.9-22.4-8.4-22.4-18.9Z"/>
  <path class="st33" d="M884.4,153.7c0-10.4,10-18.9,22.4-18.9s22.4,8.4,22.4,18.9-10,18.9-22.4,18.9-22.4-8.4-22.4-18.9Z"/>
  <path class="st33" d="M946.7,153.7c0-10.4,10-18.9,22.4-18.9s22.4,8.4,22.4,18.9-10,18.9-22.4,18.9-22.4-8.4-22.4-18.9Z"/>
  <path class="st33" d="M863.2,210c0-10.4,10-18.9,22.4-18.9s22.4,8.4,22.4,18.9-10,18.9-22.4,18.9-22.4-8.5-22.4-18.9Z"/>
  <path class="st33" d="M925.5,210c0-10.4,10-18.9,22.4-18.9s22.4,8.4,22.4,18.9-10,18.9-22.4,18.9-22.4-8.5-22.4-18.9Z"/>
  <path class="st33" d="M987.8,210c0-10.4,10-18.9,22.4-18.9s22.4,8.4,22.4,18.9-10,18.9-22.4,18.9-22.4-8.5-22.4-18.9Z"/>
  <path class="st33" d="M842.1,266.3c0-10.4,10-18.9,22.4-18.9s22.4,8.4,22.4,18.9-10,18.9-22.4,18.9-22.4-8.5-22.4-18.9Z"/>
  <path class="st33" d="M904.3,266.3c0-10.4,10-18.9,22.4-18.9s22.4,8.4,22.4,18.9-10,18.9-22.4,18.9-22.4-8.5-22.4-18.9Z"/>
  <path class="st33" d="M966.7,266.3c0-10.4,10-18.9,22.4-18.9s22.4,8.4,22.4,18.9-10,18.9-22.4,18.9-22.4-8.5-22.4-18.9Z"/>
  <path class="st33" d="M1028.9,266.3c0-10.4,10-18.9,22.4-18.9s22.4,8.4,22.4,18.9-10,18.9-22.4,18.9-22.4-8.5-22.4-18.9Z"/>
  <path class="st33" d="M677.6,491.5c0,10.4,10,18.9,22.4,18.9s22.4-8.4,22.4-18.9-10-18.9-22.4-18.9-22.4,8.5-22.4,18.9Z"/>
  <path class="st33" d="M739.9,491.5c0,10.4,10,18.9,22.4,18.9s22.4-8.4,22.4-18.9-10-18.9-22.4-18.9-22.4,8.5-22.4,18.9Z"/>
  <path class="st33" d="M802.2,491.5c0,10.4,10,18.9,22.4,18.9s22.4-8.4,22.4-18.9-10-18.9-22.4-18.9-22.4,8.5-22.4,18.9Z"/>
  <path class="st33" d="M864.5,491.5c0,10.4,10,18.9,22.4,18.9s22.4-8.4,22.4-18.9-10-18.9-22.4-18.9-22.4,8.5-22.4,18.9Z"/>
  <path class="st33" d="M718.7,435.2c0,10.4,10,18.9,22.4,18.9s22.4-8.4,22.4-18.9-10-18.9-22.4-18.9-22.4,8.5-22.4,18.9Z"/>
  <path class="st33" d="M781,435.2c0,10.4,10,18.9,22.4,18.9s22.4-8.4,22.4-18.9-10-18.9-22.4-18.9-22.4,8.5-22.4,18.9Z"/>
  <path class="st33" d="M843.3,435.2c0,10.4,10,18.9,22.4,18.9s22.4-8.4,22.4-18.9-10-18.9-22.4-18.9-22.4,8.5-22.4,18.9Z"/>
  <path class="st33" d="M905.6,435.2c0,10.4,10,18.9,22.4,18.9s22.4-8.4,22.4-18.9-10-18.9-22.4-18.9-22.4,8.5-22.4,18.9Z"/>
  <path class="st33" d="M822.1,378.9c0,10.4,10,18.9,22.4,18.9s22.4-8.5,22.4-18.9-10-18.9-22.4-18.9-22.4,8.4-22.4,18.9Z"/>
  <path class="st33" d="M884.4,378.9c0,10.4,10,18.9,22.4,18.9s22.4-8.5,22.4-18.9-10-18.9-22.4-18.9-22.4,8.4-22.4,18.9Z"/>
  <path class="st33" d="M946.7,378.9c0,10.4,10,18.9,22.4,18.9s22.4-8.5,22.4-18.9-10-18.9-22.4-18.9-22.4,8.4-22.4,18.9Z"/>
  <path class="st33" d="M863.2,322.6c0,10.4,10,18.9,22.4,18.9s22.4-8.4,22.4-18.9-10-18.9-22.4-18.9-22.4,8.5-22.4,18.9Z"/>
  <path class="st33" d="M925.5,322.6c0,10.4,10,18.9,22.4,18.9s22.4-8.4,22.4-18.9-10-18.9-22.4-18.9-22.4,8.5-22.4,18.9Z"/>
  <path class="st33" d="M987.8,322.6c0,10.4,10,18.9,22.4,18.9s22.4-8.4,22.4-18.9-10-18.9-22.4-18.9-22.4,8.5-22.4,18.9Z"/>
  <g class="st14">
    <path class="st35" d="M753.9,94.4l-214.5,191.9,190.4,215.9,214.5-191.9-190.4-215.9Z"/>
  </g>
  <g class="st5">
    <path class="st15" d="M220-20.8L-93.9,259.9l273.7,310.3,313.9-280.7L220-20.8Z"/>
  </g>
  <g class="st21">
    <path class="st23" d="M469.8,0L149.6,286.2l273.7,310.4,320.2-286.2L469.8,0Z"/>
  </g>
  <g class="st50">
    <path class="st4" d="M157.2,529.4l-14.6,3.9c3.7,10.1,6.9,20.4,9.5,31l14.9-5.8c-2.4-8.9-5.7-18.6-9.8-29.2"/>
  </g>
  <g class="st47">
    <path class="st40" d="M167,529.4h-24.4v35h24.4v-35Z"/>
  </g>
  <g class="st1">
    <path class="st4" d="M102.3,530.4c-2.9,13.8-8,27-15.2,39.2l14.8,9.4c7.1-12.8,12.5-27.8,16.4-45.2l-15.9-3.4h0Z"/>
  </g>
  <g class="st8">
    <path class="st27" d="M118.2,530.4h-31.2v48.6h31.2v-48.6Z"/>
  </g>
  <g class="st9">
    <path class="st4" d="M194.1,451.6c17.5-1,33.4-3.9,47.8-8.7l-8.6-16c-16.6,6.5-35.2,9.9-56.2,10.2v74.1c-.7,25.1-5.9,44.7-15.4,58.9l12.7,13.5c12.3-18.1,19-42.2,19.8-72.3v-16.2h18.3v88.9h17.5v-88.9h15.6v-16.9h-51.3v-26.4h0Z"/>
  </g>
  <g class="st20">
    <path class="st26" d="M245.5,426.9h-83.9v156.9h83.9v-156.9Z"/>
  </g>
  <g class="st22">
    <path class="st4" d="M167.7,507.5h-27.8v-13.8h30.7v-16.2h-16.4c2.2-5,4.2-10.2,6.3-16l-15.8-5.6c-1.9,7.5-4.1,14.7-6.6,21.7h-14.9c-2.4-8.4-4.7-15.5-7.3-21.7l-15.6,6c2.7,4.8,5.1,10.1,7.1,15.7h-17.3v16.2h32.2v13.8h-29.5v16.2h29.5v40.4c0,3.3-2,5-5.7,5s-4.4-.5-6.9-1.2l3.9,16.4h8.8c11.7,0,17.6-5.3,17.6-15.9v-44.7h27.8v-16.2Z"/>
  </g>
  <g class="st7">
    <path class="st3" d="M170.5,455.9h-80.4v128.4h80.4v-128.4Z"/>
  </g>
  <g class="st43">
    <path class="st4" d="M169.6,438.8h-30.8c-2-5.4-3.9-10.4-5.9-14.9l-18.3,3.1c2.4,3.6,4.6,7.5,6.6,11.8h-29.3v16.4h77.7v-16.4h0Z"/>
  </g>
  <g class="st44">
    <path class="st6" d="M169.5,424h-77.7v31.2h77.7v-31.2Z"/>
  </g>
  <g class="st2">
    <path class="st4" d="M390.1,545.6c-4.4.3-8.8.9-13.6,1.2v-41.5h14.9v-15h-91.5v15h12.2v45.4c-4.2,0-8.6.2-13,.5l2,15.5c21.2-1,41-2.2,59.5-3.7v15.9h15.9v-17.2l13.6-1.4v-14.7ZM360.6,548c-10.2.7-21,1.2-32.5,1.9v-7.3h32.5v5.4ZM360.6,530.3h-32.5v-6.7h32.5v6.7ZM360.6,511.7h-32.5v-6.3h32.5v6.3Z"/>
  </g>
  <g class="st48">
    <path class="st32" d="M391.4,490.3h-92.3v88.5h92.3v-88.5Z"/>
  </g>
  <g class="st0">
    <path class="st4" d="M351.9,483.5h49.5v77.8c0,4.1-2,6.3-5.7,6.3s-8.8-.3-13.9-.8l4,15.7c5.3.3,10.7.7,16.1.7,11.3,0,17.1-5.4,17.1-16.4v-135.8h-67.1v52.5h0ZM369.6,444.3h31.8v6.5h-31.8v-6.5ZM369.6,462.7h31.8v7.9h-31.8v-7.9Z"/>
  </g>
  <g class="st36">
    <path class="st42" d="M419,431h-67.1v152.1h67.1v-152.1Z"/>
  </g>
  <g class="st13">
    <path class="st4" d="M340.4,431h-67.8v152.5h17.6v-100.1h50.2v-52.3ZM322.8,470.4h-32.5v-7.7h32.5v7.7ZM322.8,450.8h-32.5v-6.8h32.5v6.8Z"/>
  </g>
  <g class="st10">
    <path class="st24" d="M340.5,431h-67.8v152.5h67.8v-152.5Z"/>
  </g>
  <g class="st37">
    <path class="st4" d="M469.3,488.1c-6.1,11.1-11.2,18.9-15.2,23.6-2,2-4.4,3.6-7.3,4.6l4.2,14.7c11.9-1.4,24.4-4.1,37.6-8.2l1.3,7.3,13-3.3c-2.4-13.2-5.3-24.7-8.3-34.8l-12.5,4.1c1.3,4.4,2.6,9.2,3.7,14.3-5.6,1.4-11.2,2.6-16.8,3.6,8.8-11.4,19.6-29.9,32.8-55.3l-15.2-5.8c-3.4,7.2-6.6,13.8-9.6,20.2l-12.5,2c7.1-11.4,14.2-26.1,21.2-44.2l-16.1-6.5c-4.6,16.2-10,31.2-16.3,44.9-2,3.1-4.4,5.1-7.1,6.3l4.2,15.5c6.4-1,12.7-2,18.8-3.1"/>
  </g>
  <g class="st17">
    <path class="st28" d="M503.1,424.5h-56.8v106.4h56.8v-106.4Z"/>
  </g>
  <g class="st25">
    <path class="st4" d="M574.7,553.1v-13.3h-28.1v-18.8h31.2v-15h-17.8c-1.4-5.6-2.6-10.7-3.9-15.2l-14.8,2.4c1.7,3.9,3.2,8.2,4.6,12.8h-20.3v15h7.1v32h42.1Z"/>
  </g>
  <g class="st46">
    <path class="st45" d="M577.7,490.8h-52.2v62.3h52.2v-62.3Z"/>
  </g>
  <g class="st30">
    <path class="st4" d="M505.2,558.7c-2.6-9.4-5.4-18.3-8.8-26.6l-11.2,3.9c2.9,8.7,5.6,18.7,8,30.2l12-5.6v21.7h16.1v-135.2h60.5v112.9c0,3.9-1.5,6-4.4,6l-20.7-.5,4.4,15.7h21.4c10.3,0,15.6-5.8,15.6-17.4v-132.4h-92.8v127.4h0Z"/>
  </g>
  <g class="st34">
    <path class="st41" d="M598,431.3h-112.8v151h112.8v-151Z"/>
  </g>
  <g class="st38">
    <path class="st4" d="M468.2,539.6c1.9,10.2,3.4,22,4.6,35.3l14-3.3c-1.8-12.6-4-24.2-6.4-34.8l-12.2,2.7h0Z"/>
  </g>
  <g class="st31">
    <path class="st18" d="M486.8,536.9h-18.6v38h18.6v-38Z"/>
  </g>
  <g class="st49">
    <path class="st4" d="M445.3,577l14,4.4c2.9-12.1,4.7-26.1,5.4-41.8l-13.7-1.9c-.7,14.7-2.6,27.8-5.7,39.2"/>
  </g>
  <g class="st29">
    <path class="st19" d="M464.7,537.8h-19.5v43.7h19.5v-43.7Z"/>
  </g>
  <g class="st39">
    <path class="st4" d="M524.5,489.3h54v-15h-11.5c2.7-6.5,4.7-13.3,6.1-20.8l-14.2-2c-1,7.9-2.7,15.3-5.1,22.9h-13.2l8.2-3.7c-2.4-6.5-5.1-12.6-8.2-18.4l-12.2,4.3c2.7,5.1,5.4,11.1,7.8,17.9h-11.7v15h0Z"/>
  </g>
  <g class="st16">
    <path class="st11" d="M578.6,451.5h-54.1v37.9h54.1v-37.9Z"/>
  </g>
</svg>