<svg width="58" height="32" viewBox="0 0 58 32" fill="none" xmlns="http://www.w3.org/2000/svg">
<path d="M35.9902 1.66245C35.9902 1.08241 36.5502 0.612976 37.2361 0.612976C37.922 0.612976 38.4819 1.08241 38.4819 1.66245C38.4819 2.2425 37.9246 2.71193 37.2361 2.71193C36.5475 2.71193 35.9902 2.2425 35.9902 1.66245Z" fill="#E73828"/>
<path d="M39.4517 1.66245C39.4517 1.08241 40.0089 0.612976 40.6975 0.612976C41.3861 0.612976 41.9433 1.08241 41.9433 1.66245C41.9433 2.2425 41.3861 2.71193 40.6975 2.71193C40.0089 2.71193 39.4517 2.2425 39.4517 1.66245Z" fill="#E73828"/>
<path d="M42.9133 1.66245C42.9133 1.08241 43.4706 0.612976 44.1592 0.612976C44.8477 0.612976 45.405 1.08241 45.405 1.66245C45.405 2.2425 44.8477 2.71193 44.1592 2.71193C43.4706 2.71193 42.9133 2.2425 42.9133 1.66245Z" fill="#E73828"/>
<path d="M46.3721 1.66245C46.3721 1.08241 46.932 0.612976 47.6179 0.612976C48.3038 0.612976 48.8638 1.08241 48.8638 1.66245C48.8638 2.2425 48.3065 2.71193 47.6179 2.71193C46.9293 2.71193 46.3721 2.2425 46.3721 1.66245Z" fill="#E73828"/>
<path d="M38.2756 4.79203C38.2756 4.21199 38.8329 3.74255 39.5215 3.74255C40.21 3.74255 40.7673 4.21199 40.7673 4.79203C40.7673 5.37208 40.21 5.84151 39.5215 5.84151C38.8329 5.84151 38.2756 5.36938 38.2756 4.79203Z" fill="#E73828"/>
<path d="M41.7371 4.79203C41.7371 4.21199 42.2943 3.74255 42.9829 3.74255C43.6715 3.74255 44.2287 4.21199 44.2287 4.79203C44.2287 5.37208 43.6715 5.84151 42.9829 5.84151C42.2943 5.84151 41.7371 5.36938 41.7371 4.79203Z" fill="#E73828"/>
<path d="M45.196 4.79203C45.196 4.21199 45.7533 3.74255 46.4419 3.74255C47.1304 3.74255 47.6877 4.21199 47.6877 4.79203C47.6877 5.37208 47.1304 5.84151 46.4419 5.84151C45.7533 5.84151 45.196 5.36938 45.196 4.79203Z" fill="#E73828"/>
<path d="M48.6577 4.79203C48.6577 4.21199 49.215 3.74255 49.9036 3.74255C50.5921 3.74255 51.1494 4.21199 51.1494 4.79203C51.1494 5.37208 50.5921 5.84151 49.9036 5.84151C49.215 5.84151 48.6577 5.36938 48.6577 4.79203Z" fill="#E73828"/>
<path d="M40.561 7.91886C40.561 7.33882 41.1183 6.86938 41.8069 6.86938C42.4954 6.86938 43.0527 7.33882 43.0527 7.91886C43.0527 8.49891 42.4954 8.96834 41.8069 8.96834C41.1183 8.96834 40.561 8.49891 40.561 7.91886Z" fill="#E73828"/>
<path d="M44.0198 7.91886C44.0198 7.33882 44.5771 6.86938 45.2656 6.86938C45.9542 6.86938 46.5115 7.33882 46.5115 7.91886C46.5115 8.49891 45.9542 8.96834 45.2656 8.96834C44.5771 8.96834 44.0198 8.49891 44.0198 7.91886Z" fill="#E73828"/>
<path d="M47.4814 7.91886C47.4814 7.33882 48.0387 6.86938 48.7273 6.86938C49.4158 6.86938 49.9731 7.33882 49.9731 7.91886C49.9731 8.49891 49.4158 8.96834 48.7273 8.96834C48.0387 8.96834 47.4814 8.49891 47.4814 7.91886Z" fill="#E73828"/>
<path d="M50.9404 7.91886C50.9404 7.33882 51.4977 6.86938 52.1863 6.86938C52.8748 6.86938 53.4321 7.33882 53.4321 7.91886C53.4321 8.49891 52.8748 8.96834 52.1863 8.96834C51.4977 8.96834 50.9404 8.49891 50.9404 7.91886Z" fill="#E73828"/>
<path d="M46.3027 11.0457C46.3027 10.4656 46.86 9.99622 47.5486 9.99622C48.2371 9.99622 48.7944 10.4656 48.7944 11.0457C48.7944 11.6257 48.2371 12.0952 47.5486 12.0952C46.86 12.0952 46.3027 11.6257 46.3027 11.0457Z" fill="#E73828"/>
<path d="M49.7642 11.0457C49.7642 10.4656 50.3214 9.99622 51.01 9.99622C51.6986 9.99622 52.2558 10.4656 52.2558 11.0457C52.2558 11.6257 51.6986 12.0952 51.01 12.0952C50.3214 12.0952 49.7642 11.6257 49.7642 11.0457Z" fill="#E73828"/>
<path d="M53.2256 11.0457C53.2256 10.4656 53.7829 9.99622 54.4714 9.99622C55.16 9.99622 55.7173 10.4656 55.7173 11.0457C55.7173 11.6257 55.16 12.0952 54.4714 12.0952C53.7829 12.0952 53.2256 11.6257 53.2256 11.0457Z" fill="#E73828"/>
<path d="M45.1289 14.1726C45.1289 13.5925 45.6862 13.1231 46.3747 13.1231C47.0633 13.1231 47.6206 13.5925 47.6206 14.1726C47.6206 14.7526 47.0633 15.2221 46.3747 15.2221C45.6862 15.2221 45.1289 14.7526 45.1289 14.1726Z" fill="#E73828"/>
<path d="M48.5879 14.1726C48.5879 13.5925 49.1452 13.1231 49.8337 13.1231C50.5223 13.1231 51.0796 13.5925 51.0796 14.1726C51.0796 14.7526 50.5223 15.2221 49.8337 15.2221C49.1452 15.2221 48.5879 14.7526 48.5879 14.1726Z" fill="#E73828"/>
<path d="M52.0496 14.1726C52.0496 13.5925 52.6068 13.1231 53.2954 13.1231C53.984 13.1231 54.5412 13.5925 54.5412 14.1726C54.5412 14.7526 53.984 15.2221 53.2954 15.2221C52.6068 15.2221 52.0496 14.7526 52.0496 14.1726Z" fill="#E73828"/>
<path d="M55.5083 14.1726C55.5083 13.5925 56.0656 13.1231 56.7541 13.1231C57.4427 13.1231 58 13.5925 58 14.1726C58 14.7526 57.4427 15.2221 56.7541 15.2221C56.0656 15.2221 55.5083 14.7526 55.5083 14.1726Z" fill="#E73828"/>
<path d="M35.9902 26.6827C35.9902 27.2627 36.5475 27.7321 37.2361 27.7321C37.9246 27.7321 38.4819 27.2627 38.4819 26.6827C38.4819 26.1026 37.9246 25.6332 37.2361 25.6332C36.5475 25.6332 35.9902 26.1053 35.9902 26.6827Z" fill="#E73828"/>
<path d="M39.4517 26.6827C39.4517 27.2627 40.0089 27.7321 40.6975 27.7321C41.3861 27.7321 41.9433 27.2627 41.9433 26.6827C41.9433 26.1026 41.3861 25.6332 40.6975 25.6332C40.0089 25.6332 39.4517 26.1053 39.4517 26.6827Z" fill="#E73828"/>
<path d="M42.9133 26.6827C42.9133 27.2627 43.4706 27.7321 44.1592 27.7321C44.8477 27.7321 45.405 27.2627 45.405 26.6827C45.405 26.1026 44.8477 25.6332 44.1592 25.6332C43.4706 25.6332 42.9133 26.1053 42.9133 26.6827Z" fill="#E73828"/>
<path d="M46.3721 26.6827C46.3721 27.2627 46.9293 27.7321 47.6179 27.7321C48.3065 27.7321 48.8638 27.2627 48.8638 26.6827C48.8638 26.1026 48.3065 25.6332 47.6179 25.6332C46.9293 25.6332 46.3721 26.1053 46.3721 26.6827Z" fill="#E73828"/>
<path d="M38.2756 23.5558C38.2756 24.1359 38.8329 24.6053 39.5215 24.6053C40.21 24.6053 40.7673 24.1359 40.7673 23.5558C40.7673 22.9758 40.21 22.5063 39.5215 22.5063C38.8329 22.5063 38.2756 22.9785 38.2756 23.5558Z" fill="#E73828"/>
<path d="M41.7371 23.5558C41.7371 24.1359 42.2943 24.6053 42.9829 24.6053C43.6715 24.6053 44.2287 24.1359 44.2287 23.5558C44.2287 22.9758 43.6715 22.5063 42.9829 22.5063C42.2943 22.5063 41.7371 22.9785 41.7371 23.5558Z" fill="#E73828"/>
<path d="M45.196 23.5558C45.196 24.1359 45.7533 24.6053 46.4419 24.6053C47.1304 24.6053 47.6877 24.1359 47.6877 23.5558C47.6877 22.9758 47.1304 22.5063 46.4419 22.5063C45.7533 22.5063 45.196 22.9785 45.196 23.5558Z" fill="#E73828"/>
<path d="M48.6577 23.5558C48.6577 24.1359 49.215 24.6053 49.9036 24.6053C50.5921 24.6053 51.1494 24.1359 51.1494 23.5558C51.1494 22.9758 50.5921 22.5063 49.9036 22.5063C49.215 22.5063 48.6577 22.9785 48.6577 23.5558Z" fill="#E73828"/>
<path d="M44.0198 20.429C44.0198 21.009 44.5771 21.4785 45.2656 21.4785C45.9542 21.4785 46.5115 21.009 46.5115 20.429C46.5115 19.8489 45.9542 19.3795 45.2656 19.3795C44.5771 19.3795 44.0198 19.8489 44.0198 20.429Z" fill="#E73828"/>
<path d="M47.4814 20.429C47.4814 21.009 48.0387 21.4785 48.7273 21.4785C49.4158 21.4785 49.9731 21.009 49.9731 20.429C49.9731 19.8489 49.4158 19.3795 48.7273 19.3795C48.0387 19.3795 47.4814 19.8489 47.4814 20.429Z" fill="#E73828"/>
<path d="M50.9404 20.429C50.9404 21.009 51.4977 21.4785 52.1863 21.4785C52.8748 21.4785 53.4321 21.009 53.4321 20.429C53.4321 19.8489 52.8748 19.3795 52.1863 19.3795C51.4977 19.3795 50.9404 19.8489 50.9404 20.429Z" fill="#E73828"/>
<path d="M46.3027 17.2994C46.3027 17.8795 46.86 18.3516 47.5486 18.3516C48.2371 18.3516 48.7944 17.8822 48.7944 17.2994C48.7944 16.7167 48.2371 16.2499 47.5486 16.2499C46.86 16.2499 46.3027 16.7194 46.3027 17.2994Z" fill="#E73828"/>
<path d="M49.7642 17.2994C49.7642 17.8795 50.3214 18.3516 51.01 18.3516C51.6986 18.3516 52.2558 17.8822 52.2558 17.2994C52.2558 16.7167 51.6986 16.2499 51.01 16.2499C50.3214 16.2499 49.7642 16.7194 49.7642 17.2994Z" fill="#E73828"/>
<path d="M53.2256 17.2994C53.2256 17.8795 53.7829 18.3516 54.4714 18.3516C55.16 18.3516 55.7173 17.8822 55.7173 17.2994C55.7173 16.7167 55.16 16.2499 54.4714 16.2499C53.7829 16.2499 53.2256 16.7194 53.2256 17.2994Z" fill="#E73828"/>
<mask id="mask0_844_3152" style="mask-type:luminance" maskUnits="userSpaceOnUse" x="33" y="10" width="13" height="12">
<path d="M45.1424 10.2876H39.4651C39.3472 10.2876 39.1141 10.3173 38.9989 10.3335C37.244 10.5925 35.7302 12.079 35.5346 13.803C35.5025 14.097 35.5105 14.3776 35.5534 14.6447C35.7168 15.937 36.7108 16.8651 38.0638 16.9352C38.1924 16.9487 38.3237 16.9541 38.455 16.9514H40.585C40.585 16.9514 40.585 16.9541 40.5903 16.9541C40.6627 16.9514 40.735 16.9541 40.8047 16.9595C41.3486 16.9892 41.7478 17.3615 41.8121 17.8822C41.8281 17.9901 41.8335 18.1034 41.8201 18.2221C41.7371 18.9613 40.9601 19.5899 40.1965 19.6304C40.1429 19.6304 40.0893 19.6385 40.0331 19.6439H34.5005L34.0584 21.0738C34.0584 21.0738 34.0557 21.0792 34.053 21.0819L33.9646 21.3705L33.9244 21.5L33.9083 21.5594C33.8976 21.5891 33.9164 21.6106 33.9432 21.6106H40.2581C40.376 21.6106 40.6091 21.581 40.7243 21.5621C42.4792 21.3031 43.993 19.8166 44.1885 18.0926C44.2207 17.7985 44.2153 17.518 44.1725 17.2509C44.009 15.9586 43.0124 15.0305 41.662 14.9604C41.52 14.9469 41.3727 14.9415 41.22 14.9442H39.1409C39.1409 14.9442 39.1409 14.9415 39.1355 14.9415C39.0632 14.9442 38.9908 14.9415 38.9212 14.9361C38.3773 14.9064 37.9781 14.5341 37.9111 14.0134C37.8924 13.9055 37.8897 13.7922 37.9031 13.6762C37.9861 12.9369 38.6559 12.3569 39.4195 12.3164C39.4731 12.3137 39.5267 12.3083 39.583 12.3029H44.6065L45.1799 10.4522L45.1906 10.4198L45.2093 10.3578L45.2147 10.3362C45.2227 10.3065 45.2067 10.2849 45.1799 10.2849H45.1397L45.1424 10.2876Z" fill="white"/>
</mask>
<g mask="url(#mask0_844_3152)">
<path d="M40.2302 4.62122L28.311 15.2809L38.8917 27.277L50.8108 16.6173L40.2302 4.62122Z" fill="url(#paint0_linear_844_3152)"/>
</g>
<mask id="mask1_844_3152" style="mask-type:luminance" maskUnits="userSpaceOnUse" x="0" y="7" width="19" height="15">
<path d="M6.27744 7.68414L6.27208 7.68954C5.39865 7.67875 4.51986 7.71922 3.67322 7.81364V7.81904C2.9793 7.89728 2.3095 8.20214 1.77901 8.73632C1.58343 8.93327 1.42803 9.15179 1.31014 9.38381L0.0482261 11.7714L0.0401885 11.7903C0.0133962 11.8524 0 11.9117 0 11.9684V11.99C0 12.0709 0.0294715 12.1465 0.0857354 12.2058C0.184867 12.3137 0.385809 12.338 0.525129 12.338H6.02559L3.76432 19.7653L3.75896 19.7923C3.64643 20.3345 3.78039 20.7392 4.13941 21.1034C4.48235 21.4515 4.92978 21.6187 5.37989 21.6187H9.59432L12.4423 12.2679H8.73429C8.70482 12.2679 8.66195 12.2625 8.6432 12.2409C8.62176 12.2193 8.61908 12.1869 8.63248 12.1518L9.29157 10.9459C9.34783 10.8326 9.42553 10.7274 9.51931 10.6329C9.77651 10.3739 10.1007 10.2256 10.4329 10.1878C10.8428 10.1392 11.2662 10.1176 11.6895 10.1257H18.1518L18.8296 7.89997L18.8779 7.7408C18.8859 7.71112 18.8698 7.68684 18.8403 7.68684H6.27744V7.68414Z" fill="white"/>
</mask>
<g mask="url(#mask1_844_3152)">
<path d="M10.5649 -1.77532L-6.87305 13.8201L8.33344 31.0608L25.7714 15.4654L10.5649 -1.77532Z" fill="url(#paint1_linear_844_3152)"/>
</g>
<mask id="mask2_844_3152" style="mask-type:luminance" maskUnits="userSpaceOnUse" x="12" y="10" width="23" height="12">
<path d="M23.974 10.695C23.8855 10.7921 23.8212 10.8731 23.8212 10.8731L15.4647 19.7896C15.4647 19.7896 15.3977 19.8435 15.3576 19.8435C15.2906 19.8435 15.2343 19.7896 15.2343 19.7248L17.4956 12.2625H15.0816L12.405 21.0792C12.405 21.0792 12.405 21.0792 12.405 21.0846L12.2604 21.5648C12.2523 21.5945 12.2684 21.6188 12.2979 21.6188H16.9838L25.2118 12.3002H30.4363C30.4363 12.3002 30.6774 12.3002 30.7471 12.3083C31.2909 12.338 31.6901 12.7103 31.7571 13.231C31.7759 13.3389 31.7786 13.4522 31.7652 13.5683C31.6821 14.3075 30.6774 14.9361 29.9138 14.9766C29.8602 14.9792 29.804 14.9846 29.7477 14.99H28.3411L27.7302 16.9568H30.1094C30.1094 16.9568 30.1121 16.9595 30.1148 16.9595C30.1898 16.9568 30.2594 16.9595 30.3291 16.9649C30.873 16.9946 31.2266 17.3669 31.2936 17.8876C31.3097 17.9955 31.3151 18.1088 31.3017 18.2275C31.2186 18.9667 30.4416 19.5953 29.678 19.6358C29.6245 19.6358 29.5709 19.6439 29.5146 19.6493H26.0852L27.9874 13.4118H25.3672L22.8969 21.5135L22.8808 21.5621C22.8728 21.5918 22.8889 21.6134 22.9157 21.6134H29.7825C29.804 21.6134 30.2568 21.6107 30.3398 21.6053C32.2715 21.5135 33.9059 20.0459 33.9862 18.3273C33.9996 18.0548 33.9728 17.7904 33.9085 17.5395C33.7746 16.9082 33.4129 16.3687 32.9012 15.9883C32.794 15.9073 32.6788 15.8345 32.5582 15.7697C32.4939 15.7347 32.4296 15.7023 32.36 15.6726C33.1664 15.1546 33.8041 14.4451 33.9836 13.517C34.0398 13.2283 34.0639 12.8614 34.0211 12.5943C33.8576 11.302 32.6359 10.374 31.2829 10.3038C31.1409 10.2876 30.8408 10.2849 30.8408 10.2849H25.1957C25.1046 10.2822 25.0215 10.2822 24.9492 10.2822C24.4375 10.2822 24.3303 10.3065 23.974 10.6923" fill="white"/>
</mask>
<g mask="url(#mask2_844_3152)">
<path d="M24.4448 -0.621746L6.65747 15.2805L21.8627 32.5259L39.65 16.6236L24.4448 -0.621746Z" fill="url(#paint2_linear_844_3152)"/>
</g>
<mask id="mask3_844_3152" style="mask-type:luminance" maskUnits="userSpaceOnUse" x="0" y="0" width="58" height="32">
<path d="M58 0.612976H0V31.841H58V0.612976Z" fill="white"/>
</mask>
<g mask="url(#mask3_844_3152)">
<path d="M7.07573 28.7897L6.2666 29.0083C6.4729 29.5667 6.65241 30.1441 6.79441 30.7322L7.62229 30.4085C7.49101 29.9148 7.30346 29.3752 7.07573 28.787" fill="black"/>
</g>
<mask id="mask4_844_3152" style="mask-type:luminance" maskUnits="userSpaceOnUse" x="6" y="28" width="2" height="3">
<path d="M6.2666 29.0083C6.4729 29.5667 6.65241 30.1441 6.79441 30.7322L7.62229 30.4112C7.49101 29.9174 7.30346 29.3779 7.07573 28.7897L6.2666 29.0083Z" fill="white"/>
</mask>
<g mask="url(#mask4_844_3152)">
<path d="M7.62229 28.7897H6.2666V30.7322H7.62229V28.7897Z" fill="url(#paint3_linear_844_3152)"/>
</g>
<mask id="mask5_844_3152" style="mask-type:luminance" maskUnits="userSpaceOnUse" x="0" y="0" width="58" height="32">
<path d="M58 0.612976H0V31.841H58V0.612976Z" fill="white"/>
</mask>
<g mask="url(#mask5_844_3152)">
<path d="M4.02681 28.8464C3.86606 29.6153 3.58474 30.3437 3.18018 31.0263L4.00002 31.547C4.39655 30.8347 4.69662 30.0011 4.91364 29.0352L4.02949 28.8464H4.02681Z" fill="black"/>
</g>
<mask id="mask6_844_3152" style="mask-type:luminance" maskUnits="userSpaceOnUse" x="3" y="28" width="2" height="4">
<path d="M3.18018 31.0263L3.99734 31.547C4.39387 30.8374 4.69394 30.0011 4.91096 29.0352L4.02681 28.8464C3.86606 29.6153 3.58474 30.3437 3.18018 31.0263Z" fill="white"/>
</mask>
<g mask="url(#mask6_844_3152)">
<path d="M4.91096 28.8464H3.18018V31.547H4.91096V28.8464Z" fill="url(#paint4_linear_844_3152)"/>
</g>
<mask id="mask7_844_3152" style="mask-type:luminance" maskUnits="userSpaceOnUse" x="0" y="0" width="58" height="32">
<path d="M58 0.612976H0V31.841H58V0.612976Z" fill="white"/>
</mask>
<g mask="url(#mask7_844_3152)">
<path d="M9.12807 24.4677C10.0979 24.4111 10.9821 24.2492 11.7832 23.9848L11.3036 23.0945C10.3819 23.456 9.34776 23.6449 8.17962 23.6637V27.778C8.14211 29.1701 7.85007 30.2601 7.32227 31.0479L8.02958 31.7952C8.71547 30.7916 9.08252 29.4534 9.13075 27.778V26.8769H10.1462V31.8141H11.1161V26.8769H11.9814V25.9381H9.13075V24.4704L9.12807 24.4677Z" fill="black"/>
</g>
<mask id="mask8_844_3152" style="mask-type:luminance" maskUnits="userSpaceOnUse" x="7" y="23" width="5" height="9">
<path d="M8.17693 23.6637V27.7753C8.13942 29.1674 7.84739 30.2574 7.31958 31.0452L8.02422 31.7952C8.7101 30.7916 9.07984 29.4534 9.12538 27.778V26.8769H10.1435V31.8141H11.1134V26.8769H11.9788V25.9381H9.12806V24.4677C10.0979 24.4111 10.9821 24.2492 11.7832 23.9848L11.3036 23.0945C10.3819 23.4533 9.34508 23.6449 8.17961 23.6637" fill="white"/>
</mask>
<g mask="url(#mask8_844_3152)">
<path d="M11.9822 23.0945H7.323V31.8141H11.9822V23.0945Z" fill="url(#paint5_linear_844_3152)"/>
</g>
<mask id="mask9_844_3152" style="mask-type:luminance" maskUnits="userSpaceOnUse" x="0" y="0" width="58" height="32">
<path d="M58 0.612976H0V31.841H58V0.612976Z" fill="white"/>
</mask>
<g mask="url(#mask9_844_3152)">
<path d="M7.66 27.5757H6.11677V26.8095H7.82076V25.9084H6.90714C7.03038 25.6332 7.14291 25.3391 7.25544 25.0181L6.37933 24.7051C6.27484 25.1233 6.15428 25.5199 6.01228 25.9084H5.18439C5.05311 25.4444 4.92183 25.0451 4.77983 24.7051L3.91444 25.037C4.06448 25.3014 4.19576 25.5954 4.30829 25.9084H3.34912V26.8095H5.13617V27.5757H3.49916V28.4768H5.13617V30.7241C5.13617 30.9049 5.02364 30.9993 4.81734 30.9993C4.70481 30.9993 4.57353 30.9723 4.43153 30.9319L4.64855 31.8411H5.13885C5.78722 31.8411 6.11677 31.547 6.11677 30.9588V28.4768H7.66V27.5757Z" fill="black"/>
</g>
<mask id="mask10_844_3152" style="mask-type:luminance" maskUnits="userSpaceOnUse" x="3" y="24" width="5" height="8">
<path d="M6.01204 25.9084H5.18416C5.05287 25.4444 4.92159 25.0451 4.77959 24.7051L3.9142 25.037C4.06424 25.3014 4.19552 25.5954 4.31073 25.9084H3.35156V26.8095H5.13861V27.5757H3.5016V28.4768H5.13861V30.7241C5.13861 30.9049 5.02608 30.9993 4.81978 30.9993C4.70725 30.9993 4.57329 30.9723 4.43397 30.9346L4.65099 31.8438H5.14129C5.78966 31.8438 6.11921 31.5497 6.11921 30.9615V28.4795H7.66244V27.5784H6.11921V26.8122H7.8232V25.9111H6.90958C7.03282 25.6359 7.14535 25.3418 7.25788 25.0208L6.38177 24.7078C6.27728 25.1233 6.15672 25.5226 6.01472 25.9111" fill="white"/>
</mask>
<g mask="url(#mask10_844_3152)">
<path d="M7.81735 24.7051H3.34839V31.8411H7.81735V24.7051Z" fill="url(#paint6_linear_844_3152)"/>
</g>
<mask id="mask11_844_3152" style="mask-type:luminance" maskUnits="userSpaceOnUse" x="0" y="0" width="58" height="32">
<path d="M58 0.612976H0V31.841H58V0.612976Z" fill="white"/>
</mask>
<g mask="url(#mask11_844_3152)">
<path d="M7.76423 23.7582H6.0522C5.93968 23.456 5.83519 23.1808 5.72266 22.9326L4.70723 23.1026C4.83851 23.3022 4.96176 23.5208 5.07428 23.7555H3.44531V24.6647H7.76423V23.7555V23.7582Z" fill="black"/>
</g>
<mask id="mask12_844_3152" style="mask-type:luminance" maskUnits="userSpaceOnUse" x="3" y="22" width="5" height="3">
<path d="M4.70479 23.1026C4.83607 23.3022 4.95932 23.5208 5.07184 23.7555H3.44287V24.6647H7.76179V23.7555H6.04976C5.93723 23.4533 5.83274 23.1781 5.72022 22.9299L4.70479 23.0999V23.1026Z" fill="white"/>
</mask>
<g mask="url(#mask12_844_3152)">
<path d="M7.76179 22.9332H3.44287V24.6679H7.76179V22.9332Z" fill="url(#paint7_linear_844_3152)"/>
</g>
<mask id="mask13_844_3152" style="mask-type:luminance" maskUnits="userSpaceOnUse" x="0" y="0" width="58" height="32">
<path d="M58 0.612976H0V31.841H58V0.612976Z" fill="white"/>
</mask>
<g mask="url(#mask13_844_3152)">
<path d="M20.0164 29.6908C19.7726 29.7097 19.5261 29.7394 19.2635 29.7582V27.4543H20.0914V26.6206H15.0089V27.4543H15.6868V29.9741C15.451 29.9741 15.2072 29.9849 14.9634 30.0011L15.0759 30.8644C16.2521 30.8077 17.3533 30.7403 18.3794 30.6566V31.5389H19.2635V30.5811L20.0164 30.5056V29.6908ZM18.3794 29.823C17.8141 29.8608 17.2139 29.8904 16.5736 29.9282V29.5208H18.3794V29.823ZM18.3794 28.8383H16.5736V28.4687H18.3794V28.8383ZM18.3794 27.805H16.5736V27.4543H18.3794V27.805Z" fill="black"/>
</g>
<mask id="mask14_844_3152" style="mask-type:luminance" maskUnits="userSpaceOnUse" x="14" y="26" width="7" height="6">
<path d="M16.5712 29.5181H18.377V29.8203C17.8116 29.8581 17.2115 29.8878 16.5712 29.9255V29.5181ZM16.5712 28.4687H18.3796V28.8383H16.5712V28.4687ZM16.5712 27.4543H18.3796V27.805H16.5712V27.4543ZM15.0092 26.6179V27.4516H15.687V29.9714C15.4512 29.9714 15.2074 29.9822 14.9636 29.9984L15.0762 30.8617C16.2523 30.805 17.3535 30.7376 18.3796 30.654V31.5362H19.2638V30.5784L20.0167 30.5029V29.6881C19.7728 29.707 19.5264 29.734 19.2638 29.7556V27.4516H20.0917V26.6179H15.0092Z" fill="white"/>
</mask>
<g mask="url(#mask14_844_3152)">
<path d="M20.0917 26.6179H14.9636V31.5362H20.0917V26.6179Z" fill="url(#paint8_linear_844_3152)"/>
</g>
<mask id="mask15_844_3152" style="mask-type:luminance" maskUnits="userSpaceOnUse" x="0" y="0" width="58" height="32">
<path d="M58 0.612976H0V31.841H58V0.612976Z" fill="white"/>
</mask>
<g mask="url(#mask15_844_3152)">
<path d="M17.8972 26.2402H20.6461V30.5622C20.6461 30.7888 20.5336 30.913 20.3273 30.913C20.0915 30.913 19.837 30.8941 19.5557 30.8671L19.7807 31.7385C20.0728 31.7574 20.3728 31.7763 20.6756 31.7763C21.3052 31.7763 21.6267 31.4741 21.6267 30.8671V23.3238H17.8999V26.2429L17.8972 26.2402ZM18.8778 24.0603H20.6461V24.4191H18.8778V24.0603ZM18.8778 25.0855H20.6461V25.5226H18.8778V25.0855Z" fill="black"/>
</g>
<mask id="mask16_844_3152" style="mask-type:luminance" maskUnits="userSpaceOnUse" x="17" y="23" width="5" height="9">
<path d="M18.8778 25.0855H20.6461V25.5226H18.8778V25.0855ZM18.8778 24.0603H20.6461V24.4218H18.8778V24.0603ZM17.8972 23.3211V26.2402H20.6461V30.5622C20.6461 30.7889 20.5336 30.913 20.3273 30.913C20.0915 30.913 19.837 30.8941 19.5557 30.8671L19.7807 31.7385C20.0728 31.7574 20.3728 31.7763 20.6756 31.7763C21.3052 31.7763 21.6267 31.4741 21.6267 30.8671V23.3238H17.8999L17.8972 23.3211Z" fill="white"/>
</mask>
<g mask="url(#mask16_844_3152)">
<path d="M21.624 23.3211H17.8972V31.7736H21.624V23.3211Z" fill="url(#paint9_linear_844_3152)"/>
</g>
<mask id="mask17_844_3152" style="mask-type:luminance" maskUnits="userSpaceOnUse" x="0" y="0" width="58" height="32">
<path d="M58 0.612976H0V31.841H58V0.612976Z" fill="white"/>
</mask>
<g mask="url(#mask17_844_3152)">
<path d="M17.257 23.3211H13.4927V31.7925H14.4706V26.2294H17.257V23.3211ZM16.2791 25.5118H14.4733V25.0855H16.2791V25.5118ZM16.2791 24.4218H14.4733V24.0414H16.2791V24.4218Z" fill="black"/>
</g>
<mask id="mask18_844_3152" style="mask-type:luminance" maskUnits="userSpaceOnUse" x="13" y="23" width="5" height="9">
<path d="M14.4733 25.0855H16.2818V25.5118H14.4733V25.0855ZM14.4733 24.0414H16.2818V24.4218H14.4733V24.0414ZM13.4954 23.3211V31.7925H14.4733V26.2294H17.2597V23.3211H13.4954Z" fill="white"/>
</mask>
<g mask="url(#mask18_844_3152)">
<path d="M17.2597 23.3211H13.4954V31.7925H17.2597V23.3211Z" fill="url(#paint10_linear_844_3152)"/>
</g>
<mask id="mask19_844_3152" style="mask-type:luminance" maskUnits="userSpaceOnUse" x="0" y="0" width="58" height="32">
<path d="M58 0.612976H0V31.841H58V0.612976Z" fill="white"/>
</mask>
<g mask="url(#mask19_844_3152)">
<path d="M24.4186 26.4965C24.0783 27.1116 23.797 27.5487 23.572 27.805C23.4594 27.9183 23.3282 28.0046 23.1674 28.0613L23.4032 28.8761C24.0623 28.8005 24.7589 28.6494 25.493 28.4201L25.568 28.8275L26.2914 28.6467C26.1601 27.9156 25.9994 27.2735 25.8306 26.7123L25.134 26.939C25.209 27.1845 25.276 27.4516 25.3403 27.7348C25.0295 27.8104 24.7187 27.8778 24.4079 27.9345C24.8982 27.3005 25.4983 26.2753 26.2325 24.8643L25.3858 24.5432C25.1983 24.9425 25.0188 25.3094 24.85 25.6629L24.1534 25.7762C24.5472 25.1422 24.9437 24.3274 25.3296 23.3211L24.4347 22.9623C24.1802 23.8634 23.8801 24.697 23.5318 25.4551C23.4193 25.6251 23.288 25.7384 23.1379 25.8059L23.3737 26.6692C23.73 26.6125 24.0783 26.5559 24.4186 26.4992" fill="black"/>
</g>
<mask id="mask20_844_3152" style="mask-type:luminance" maskUnits="userSpaceOnUse" x="23" y="22" width="4" height="7">
<path d="M23.5345 25.4551C23.4219 25.6251 23.2907 25.7384 23.1406 25.8058L23.3764 26.6692C23.7354 26.6125 24.0837 26.5559 24.4213 26.4992C24.0837 27.1143 23.7997 27.5514 23.5747 27.8077C23.4621 27.921 23.3309 28.0073 23.1701 28.064L23.4059 28.8787C24.065 28.8032 24.7616 28.6521 25.4957 28.4228L25.5707 28.8302L26.2941 28.6494C26.1628 27.9183 26.002 27.2762 25.8333 26.7177L25.1367 26.9444C25.2117 27.1899 25.2786 27.457 25.343 27.7402C25.0322 27.8158 24.7214 27.8832 24.4106 27.9399C24.9009 27.3059 25.501 26.2807 26.2351 24.8697L25.3885 24.5459C25.201 24.9452 25.0214 25.3121 24.8527 25.6656L24.1561 25.7789C24.5499 25.1449 24.9464 24.3301 25.3322 23.3238L24.4374 22.965C24.1828 23.8661 23.8828 24.6997 23.5345 25.4578" fill="white"/>
</mask>
<g mask="url(#mask20_844_3152)">
<path d="M26.2941 22.9617H23.1406V28.8755H26.2941V22.9617Z" fill="url(#paint11_linear_844_3152)"/>
</g>
<mask id="mask21_844_3152" style="mask-type:luminance" maskUnits="userSpaceOnUse" x="0" y="0" width="58" height="32">
<path d="M58 0.612976H0V31.841H58V0.612976Z" fill="white"/>
</mask>
<g mask="url(#mask21_844_3152)">
<path d="M30.2726 30.1063V29.3671H28.7106V28.323H30.4414V27.4893H29.4528C29.3777 27.1764 29.3108 26.8931 29.2357 26.6449L28.4159 26.7771C28.5097 26.9956 28.5954 27.233 28.6704 27.4866H27.5398V28.3203H27.9363V30.1009H30.2699L30.2726 30.1063Z" fill="black"/>
</g>
<mask id="mask22_844_3152" style="mask-type:luminance" maskUnits="userSpaceOnUse" x="27" y="26" width="4" height="5">
<path d="M28.4186 26.7798C28.5124 26.9983 28.5981 27.2357 28.6731 27.4893H27.5425V28.323H27.939V30.1036H30.2726V29.3644H28.7106V28.3203H30.4414V27.4866H29.4528C29.3778 27.1737 29.3108 26.8904 29.2358 26.6449L28.4159 26.7771L28.4186 26.7798Z" fill="white"/>
</mask>
<g mask="url(#mask22_844_3152)">
<path d="M30.4414 26.6481H27.5425V30.1068H30.4414V26.6481Z" fill="url(#paint12_linear_844_3152)"/>
</g>
<mask id="mask23_844_3152" style="mask-type:luminance" maskUnits="userSpaceOnUse" x="0" y="0" width="58" height="32">
<path d="M58 0.612976H0V31.841H58V0.612976Z" fill="white"/>
</mask>
<g mask="url(#mask23_844_3152)">
<path d="M26.4146 30.4192C26.2726 29.8985 26.1145 29.4048 25.9243 28.9408L25.3027 29.1593C25.4635 29.6422 25.6135 30.2007 25.7448 30.8374L26.4119 30.5244V31.7277H27.3068V24.2141H30.6666V30.4867C30.6666 30.7052 30.5808 30.8185 30.4227 30.8185L29.2734 30.7888L29.5172 31.6603H30.7041C31.2774 31.6603 31.5695 31.3365 31.5695 30.6944V23.34H26.4119V30.4192H26.4146Z" fill="black"/>
</g>
<mask id="mask24_844_3152" style="mask-type:luminance" maskUnits="userSpaceOnUse" x="25" y="23" width="7" height="9">
<path d="M26.4146 23.34V30.4192C26.2726 29.8985 26.1145 29.4048 25.9243 28.9408L25.3027 29.1593C25.4635 29.6422 25.6135 30.2007 25.7448 30.8374L26.4119 30.5244V31.7277H27.3068V24.2141H30.6666V30.4867C30.6666 30.7052 30.5808 30.8185 30.4227 30.8185L29.2734 30.7888L29.5172 31.6603H30.7041C31.2774 31.6603 31.5695 31.3392 31.5695 30.6944V23.34H26.4119H26.4146Z" fill="white"/>
</mask>
<g mask="url(#mask24_844_3152)">
<path d="M31.5695 23.34H25.3027V31.7277H31.5695V23.34Z" fill="url(#paint13_linear_844_3152)"/>
</g>
<mask id="mask25_844_3152" style="mask-type:luminance" maskUnits="userSpaceOnUse" x="0" y="0" width="58" height="32">
<path d="M58 0.612976H0V31.841H58V0.612976Z" fill="white"/>
</mask>
<g mask="url(#mask25_844_3152)">
<path d="M24.3542 29.359C24.4587 29.9282 24.5418 30.5811 24.6088 31.3203L25.3884 31.1396C25.2866 30.4381 25.1634 29.7933 25.0321 29.2052L24.3542 29.3563V29.359Z" fill="black"/>
</g>
<mask id="mask26_844_3152" style="mask-type:luminance" maskUnits="userSpaceOnUse" x="24" y="29" width="2" height="3">
<path d="M24.3542 29.359C24.4587 29.9282 24.5418 30.5811 24.6088 31.3203L25.3884 31.1396C25.2839 30.4381 25.1634 29.7933 25.0321 29.2052L24.3542 29.3563V29.359Z" fill="white"/>
</mask>
<g mask="url(#mask26_844_3152)">
<path d="M25.3884 29.2052H24.3542V31.3176H25.3884V29.2052Z" fill="url(#paint14_linear_844_3152)"/>
</g>
<mask id="mask27_844_3152" style="mask-type:luminance" maskUnits="userSpaceOnUse" x="0" y="0" width="58" height="32">
<path d="M58 0.612976H0V31.841H58V0.612976Z" fill="white"/>
</mask>
<g mask="url(#mask27_844_3152)">
<path d="M23.0815 31.4337L23.8612 31.6792C24.0219 31.0074 24.1238 30.2304 24.1613 29.3563L23.3977 29.2511C23.3602 30.0659 23.2557 30.7943 23.0789 31.431" fill="black"/>
</g>
<mask id="mask28_844_3152" style="mask-type:luminance" maskUnits="userSpaceOnUse" x="23" y="29" width="2" height="3">
<path d="M23.0815 31.4337L23.8639 31.6792C24.0246 31.0074 24.1291 30.2304 24.164 29.3563L23.403 29.2511C23.3655 30.0659 23.2611 30.7943 23.0815 31.431" fill="white"/>
</mask>
<g mask="url(#mask28_844_3152)">
<path d="M24.164 29.2543H23.0815V31.6797H24.164V29.2543Z" fill="url(#paint15_linear_844_3152)"/>
</g>
<mask id="mask29_844_3152" style="mask-type:luminance" maskUnits="userSpaceOnUse" x="0" y="0" width="58" height="32">
<path d="M58 0.612976H0V31.841H58V0.612976Z" fill="white"/>
</mask>
<g mask="url(#mask29_844_3152)">
<path d="M27.4863 26.5613H30.4871V25.7276H29.8467C29.9968 25.3661 30.1093 24.9884 30.1843 24.5702L29.3939 24.4569C29.3377 24.894 29.2439 25.3094 29.1126 25.7276H28.3785L28.8313 25.5199C28.7 25.1611 28.55 24.8184 28.3785 24.4974L27.7007 24.7348C27.8507 25.0181 28.0007 25.3499 28.132 25.7303H27.4836V26.564L27.4863 26.5613Z" fill="black"/>
</g>
<mask id="mask30_844_3152" style="mask-type:luminance" maskUnits="userSpaceOnUse" x="27" y="24" width="4" height="3">
<path d="M29.1153 25.7276H28.3812L28.834 25.5199C28.7027 25.161 28.5527 24.8184 28.3812 24.4974L27.7033 24.7348C27.8534 25.0181 28.0034 25.3499 28.1374 25.7303H27.4863V26.5639H30.4897V25.7303H29.8494C29.9994 25.3715 30.112 24.9911 30.187 24.5729L29.3966 24.4596C29.3404 24.8967 29.2466 25.3121 29.1153 25.7303" fill="white"/>
</mask>
<g mask="url(#mask30_844_3152)">
<path d="M30.4897 24.4596H27.4863V26.5639H30.4897V24.4596Z" fill="url(#paint16_linear_844_3152)"/>
</g>
<defs>
<linearGradient id="paint0_linear_844_3152" x1="18.3556" y1="-8.01268" x2="30.6607" y2="5.74621" gradientUnits="userSpaceOnUse">
<stop stop-color="#009D9C"/>
<stop offset="0.56" stop-color="#0075C1"/>
<stop offset="1" stop-color="#0B308E"/>
</linearGradient>
<linearGradient id="paint1_linear_844_3152" x1="2.24288" y1="6.44319" x2="14.548" y2="20.2021" gradientUnits="userSpaceOnUse">
<stop stop-color="#009D9C"/>
<stop offset="0.56" stop-color="#0075C1"/>
<stop offset="1" stop-color="#0B308E"/>
</linearGradient>
<linearGradient id="paint2_linear_844_3152" x1="9.27301" y1="0.192284" x2="21.4539" y2="13.8171" gradientUnits="userSpaceOnUse">
<stop stop-color="#009D9C"/>
<stop offset="0.56" stop-color="#0075C1"/>
<stop offset="1" stop-color="#0B308E"/>
</linearGradient>
<linearGradient id="paint3_linear_844_3152" x1="2.72466" y1="29.5397" x2="36.5366" y2="29.5397" gradientUnits="userSpaceOnUse">
<stop stop-color="#757474"/>
<stop offset="0.37" stop-color="#555353"/>
<stop offset="1" stop-color="#251B18"/>
</linearGradient>
<linearGradient id="paint4_linear_844_3152" x1="2.72471" y1="29.9741" x2="36.5366" y2="29.9741" gradientUnits="userSpaceOnUse">
<stop stop-color="#757474"/>
<stop offset="0.37" stop-color="#555353"/>
<stop offset="1" stop-color="#251B18"/>
</linearGradient>
<linearGradient id="paint5_linear_844_3152" x1="2.72544" y1="27.2088" x2="36.5373" y2="27.2088" gradientUnits="userSpaceOnUse">
<stop stop-color="#757474"/>
<stop offset="0.37" stop-color="#555353"/>
<stop offset="1" stop-color="#251B18"/>
</linearGradient>
<linearGradient id="paint6_linear_844_3152" x1="2.72413" y1="28.0559" x2="36.536" y2="28.0559" gradientUnits="userSpaceOnUse">
<stop stop-color="#757474"/>
<stop offset="0.37" stop-color="#555353"/>
<stop offset="1" stop-color="#251B18"/>
</linearGradient>
<linearGradient id="paint7_linear_844_3152" x1="2.72484" y1="23.5672" x2="36.5367" y2="23.5672" gradientUnits="userSpaceOnUse">
<stop stop-color="#757474"/>
<stop offset="0.37" stop-color="#555353"/>
<stop offset="1" stop-color="#251B18"/>
</linearGradient>
<linearGradient id="paint8_linear_844_3152" x1="3.26074" y1="28.8653" x2="37.0726" y2="28.8653" gradientUnits="userSpaceOnUse">
<stop stop-color="#757474"/>
<stop offset="0.37" stop-color="#555353"/>
<stop offset="1" stop-color="#251B18"/>
</linearGradient>
<linearGradient id="paint9_linear_844_3152" x1="3.26058" y1="27.314" x2="37.0725" y2="27.314" gradientUnits="userSpaceOnUse">
<stop stop-color="#757474"/>
<stop offset="0.37" stop-color="#555353"/>
<stop offset="1" stop-color="#251B18"/>
</linearGradient>
<linearGradient id="paint10_linear_844_3152" x1="3.2607" y1="27.314" x2="37.0726" y2="27.314" gradientUnits="userSpaceOnUse">
<stop stop-color="#757474"/>
<stop offset="0.37" stop-color="#555353"/>
<stop offset="1" stop-color="#251B18"/>
</linearGradient>
<linearGradient id="paint11_linear_844_3152" x1="3.79659" y1="25.6947" x2="37.6085" y2="25.6947" gradientUnits="userSpaceOnUse">
<stop stop-color="#757474"/>
<stop offset="0.37" stop-color="#555353"/>
<stop offset="1" stop-color="#251B18"/>
</linearGradient>
<linearGradient id="paint12_linear_844_3152" x1="3.79646" y1="28.1536" x2="37.6084" y2="28.1536" gradientUnits="userSpaceOnUse">
<stop stop-color="#757474"/>
<stop offset="0.37" stop-color="#555353"/>
<stop offset="1" stop-color="#251B18"/>
</linearGradient>
<linearGradient id="paint13_linear_844_3152" x1="3.79655" y1="27.314" x2="37.6084" y2="27.314" gradientUnits="userSpaceOnUse">
<stop stop-color="#757474"/>
<stop offset="0.37" stop-color="#555353"/>
<stop offset="1" stop-color="#251B18"/>
</linearGradient>
<linearGradient id="paint14_linear_844_3152" x1="3.79651" y1="30.0415" x2="37.6084" y2="30.0415" gradientUnits="userSpaceOnUse">
<stop stop-color="#757474"/>
<stop offset="0.37" stop-color="#555353"/>
<stop offset="1" stop-color="#251B18"/>
</linearGradient>
<linearGradient id="paint15_linear_844_3152" x1="3.79644" y1="30.2445" x2="37.6083" y2="30.2445" gradientUnits="userSpaceOnUse">
<stop stop-color="#757474"/>
<stop offset="0.37" stop-color="#555353"/>
<stop offset="1" stop-color="#251B18"/>
</linearGradient>
<linearGradient id="paint16_linear_844_3152" x1="3.79656" y1="25.2905" x2="37.6085" y2="25.2905" gradientUnits="userSpaceOnUse">
<stop stop-color="#757474"/>
<stop offset="0.37" stop-color="#555353"/>
<stop offset="1" stop-color="#251B18"/>
</linearGradient>
</defs>
</svg>
