<svg width="128" height="65" viewBox="0 0 128 65" fill="none" xmlns="http://www.w3.org/2000/svg">
<g clip-path="url(#clip0_636_1795)">
<path d="M74.8202 45.7318C74.2387 45.7318 73.9215 45.0533 74.2974 44.6069L84.3596 32.6357C86.5065 30.0276 87.1938 28.6531 87.1938 26.979C87.1938 24.4268 85.4139 22.7791 82.6561 22.7791C80.3212 22.7791 78.7058 24.3328 78.2506 26.4181C78.1772 26.7529 77.8835 26.9937 77.5428 26.9937H75.0963C74.6675 26.9937 74.3327 26.6237 74.3738 26.1949C74.5617 24.1801 75.4458 22.5089 76.6617 21.3929C78.1478 20.033 80.2213 19.3135 82.659 19.3135C87.4963 19.3135 91.006 22.4061 91.006 26.6707C91.006 29.2229 89.9957 31.411 87.3994 34.4713L80.7001 42.272H90.5831C90.9825 42.272 91.3085 42.598 91.3085 42.9974V45.0034C91.3085 45.4057 90.9825 45.7288 90.5831 45.7288H74.8231L74.8202 45.7318Z" fill="#0F0E1B"/>
<path d="M94.6392 45.8838C95.726 45.8838 96.607 45.0028 96.607 43.916C96.607 42.8292 95.726 41.9482 94.6392 41.9482C93.5524 41.9482 92.6714 42.8292 92.6714 43.916C92.6714 45.0028 93.5524 45.8838 94.6392 45.8838Z" fill="#0F0E1B"/>
<path d="M115.506 27.4235L111.785 21.5701C111.626 21.3204 111.262 21.3204 111.104 21.5701L107.383 27.4235C107.212 27.6908 107.406 28.0432 107.723 28.0432H109.418V37.8586C109.418 41.7325 107.036 42.5461 105.039 42.5461C103.042 42.5461 100.642 41.7325 100.642 37.8586V27.5116C100.642 25.8904 101.074 24.6657 101.926 23.8727C102.672 23.1766 103.717 22.8242 105.039 22.8242C105.711 22.8242 106.428 22.9211 107.083 23.1942C107.174 23.2324 107.28 23.203 107.333 23.1179L109.065 20.3894C109.13 20.2866 109.092 20.1486 108.98 20.1016C107.841 19.5935 106.519 19.3174 105.039 19.3174C102.625 19.3174 100.557 20.0399 99.0591 21.4085C97.4555 22.8741 96.6067 25.0269 96.6067 27.632V37.7882C96.6067 40.3786 97.4555 42.5197 99.062 43.9852C100.563 45.3539 102.63 46.0793 105.039 46.0793C107.447 46.0793 109.524 45.3568 111.021 43.9911C112.625 42.5285 113.471 40.3845 113.471 37.7882V28.0432H115.166C115.483 28.0432 115.677 27.6908 115.506 27.4235Z" fill="#0F0E1B"/>
<path fill-rule="evenodd" clip-rule="evenodd" d="M102.8 42.0988L102.301 45.7293C103.148 45.9608 104.065 46.0793 105.039 46.0793C107.447 46.0793 109.523 45.3568 111.021 43.9911C112.625 42.5285 113.471 40.3844 113.471 37.7881V28.0432H115.165C115.483 28.0432 115.677 27.6907 115.506 27.4235L111.785 21.57C111.626 21.3204 111.262 21.3204 111.104 21.57L107.382 27.4235C107.212 27.6907 107.406 28.0432 107.723 28.0432H109.418V37.8586C109.418 41.7325 107.036 42.5461 105.039 42.5461C104.3 42.5461 103.507 42.4348 102.8 42.0988Z" fill="#0F0E1B"/>
<path d="M71.2665 29.1037H69.7275V27.7468C69.7275 26.8892 69.4955 26.2166 69.0402 25.7496C68.585 25.2827 67.9183 25.0448 67.0636 25.0448H61.5656C61.4863 25.0448 61.4217 24.9802 61.4217 24.9009V23.4647C61.4217 23.3854 61.4863 23.3208 61.5656 23.3208H70.8876C71.29 23.3208 71.613 22.9947 71.613 22.5953V21.4499C71.613 21.0475 71.287 20.7244 70.8876 20.7244H61.4217V19.5526C61.4217 19.1502 61.0957 18.8271 60.6962 18.8271H58.9428C58.5434 18.8271 58.2174 19.1532 58.2174 19.5526V20.7244H48.1729C47.3916 20.7244 46.7778 20.9418 46.3461 21.3735C45.9143 21.8053 45.697 22.4191 45.697 23.2003C45.697 23.2003 45.7528 35.4094 45.5472 38.7547C45.4327 40.6108 44.7013 42.6844 44.0435 44.2645C43.8878 44.6404 44.0669 45.0751 44.4429 45.2307L45.9349 45.8505C46.3108 46.0061 46.7426 45.8299 46.9012 45.451C47.656 43.6477 48.5341 41.4244 48.7133 39.3685C48.8249 38.1467 48.8895 26.0933 48.9012 23.7231C48.9012 23.4999 49.0833 23.3208 49.3066 23.3208H58.1851C58.2644 23.3208 58.329 23.3854 58.329 23.4647V24.9009C58.329 24.9802 58.2644 25.0448 58.1851 25.0448H51.2832C50.8837 25.0448 50.5577 25.3708 50.5577 25.7702V26.8011C50.5577 27.2005 50.8837 27.5265 51.2832 27.5265H58.1851C58.2644 27.5265 58.329 27.5911 58.329 27.6704V28.9568C58.329 29.0361 58.2644 29.1008 58.1851 29.1008H51.2832C50.8808 29.1008 50.5577 29.4268 50.5577 29.8262V30.8571C50.5577 31.2595 50.8837 31.5825 51.2832 31.5825H58.1851C58.2644 31.5825 58.329 31.6471 58.329 31.7264V33.0892C58.329 33.1685 58.2644 33.2331 58.1851 33.2331H51.2832C50.8837 33.2331 50.5577 33.5591 50.5577 33.9586V34.2552C50.5489 34.3257 50.543 34.3962 50.543 34.4725C50.543 34.5489 50.5489 34.6223 50.5577 34.6928V34.9894C50.5577 35.3918 50.8837 35.7149 51.2832 35.7149H58.1851C58.2644 35.7149 58.329 35.7795 58.329 35.8588V42.003C58.329 43.0867 57.4508 43.9678 56.3642 43.9678H54.9632C54.5608 43.9678 54.2378 44.2938 54.2378 44.6933V45.8387C54.2378 46.2411 54.5638 46.5641 54.9632 46.5641H56.9721C58.3319 46.5641 59.4245 46.1676 60.2204 45.3835C61.0164 44.5993 61.4187 43.5126 61.4187 42.1557V35.8588C61.4187 35.7795 61.4833 35.7149 61.5626 35.7149H67.0989C67.883 35.7149 68.5263 35.4946 69.0079 35.0599C69.4896 34.6223 69.7245 34.029 69.7245 33.239V31.5796H71.2635C71.663 31.5796 71.989 31.2536 71.989 30.8541V29.8233C71.989 29.4209 71.663 29.0978 71.2635 29.0978L71.2665 29.1037ZM66.673 33.0951C66.673 33.1744 66.6084 33.239 66.5291 33.239H61.5626C61.4833 33.239 61.4187 33.1744 61.4187 33.0951V31.7323C61.4187 31.653 61.4833 31.5884 61.5626 31.5884H66.5291C66.6084 31.5884 66.673 31.653 66.673 31.7323V33.0951ZM66.673 28.9598C66.673 29.0391 66.6084 29.1037 66.5291 29.1037H61.5626C61.4833 29.1037 61.4187 29.0391 61.4187 28.9598V27.6734C61.4187 27.5941 61.4833 27.5295 61.5626 27.5295H66.5291C66.6084 27.5295 66.673 27.5941 66.673 27.6734V28.9598Z" fill="#0F0E1B"/>
<path d="M70.6085 43.0113C67.2632 41.6515 66.1677 40.1947 65.9298 39.8247L69.5365 39.0875C69.8272 39.0287 70.0034 38.7292 69.9153 38.4472L69.4924 37.0903C69.4102 36.8289 69.1458 36.6733 68.8786 36.7291L63.2219 37.8892C62.8783 37.9832 62.5963 38.224 62.4495 38.55C62.3056 38.8731 62.3144 39.2373 62.4701 39.5515L62.4759 39.5662C63.5685 41.5751 66.4027 43.9335 69.5864 45.4167C69.9388 45.5812 70.3559 45.4138 70.5057 45.0555L70.9785 43.9042C71.1224 43.5547 70.955 43.1523 70.6026 43.0113H70.6085Z" fill="#0F0E1B"/>
<path d="M57.4774 40.3747L57.4862 40.363C57.6976 40.0839 57.774 39.7256 57.6918 39.382C57.6095 39.0354 57.3775 38.7447 57.0544 38.589L51.7091 36.4039C51.4565 36.3011 51.1658 36.4039 51.0395 36.6477L50.3728 37.9017C50.2347 38.1631 50.3522 38.4891 50.6254 38.6008L54.0352 39.99C53.7327 40.3071 52.3876 41.5407 48.8485 42.2573C48.4784 42.3337 48.2376 42.6949 48.3169 43.065L48.5695 44.2838C48.6488 44.6656 49.0276 44.9065 49.4036 44.8096C52.8075 43.9402 56.0294 42.1457 57.4715 40.3747H57.4774Z" fill="#0F0E1B"/>
<path d="M17.6925 30.0074H17.39C18.0362 29.4788 19.9951 25.643 20.7558 20.3829C20.8087 20.0158 20.5591 19.6721 20.1919 19.6104L18.6559 19.3491C18.2682 19.2815 17.9011 19.5576 17.8629 19.9511C17.5104 23.3815 15.7248 27.6696 13.6982 30.5273C13.2459 31.1646 13.3928 32.0545 14.033 32.5097C14.7555 33.0237 15.7982 32.6948 16.1712 31.89V44.9303C16.1712 45.3297 16.4972 45.6557 16.8966 45.6557H18.4209C18.8203 45.6557 19.1464 45.3297 19.1464 44.9303V31.4642C19.1464 30.6594 18.4943 30.0074 17.6896 30.0074H17.6925Z" fill="#0F0E1B"/>
<path d="M41.4851 25.1965H40.5159V23.5371C40.4924 21.9981 39.6554 21.2257 37.9607 21.1758H34.78V19.5487C34.78 19.1492 34.454 18.8232 34.0545 18.8232H32.6448C32.2453 18.8232 31.9193 19.1492 31.9193 19.5487V21.1758H28.4331C28.0337 21.1758 27.7077 21.5018 27.7077 21.9012V22.7441C27.7077 23.1436 28.0337 23.4696 28.4331 23.4696H31.7725C31.8518 23.4696 31.9164 23.5342 31.9164 23.6135V25.2024C31.9164 25.2817 31.8518 25.3463 31.7725 25.3463H28.4331C28.0337 25.3463 27.7077 25.6723 27.7077 26.0717V26.9499C27.7077 27.3493 28.0337 27.6753 28.4331 27.6753H31.7725C31.8518 27.6753 31.9164 27.74 31.9164 27.8222V29.4111C31.9164 29.4904 31.8518 29.555 31.7725 29.555H28.4331C28.0337 29.555 27.7077 29.881 27.7077 30.2805V31.1586C27.7077 31.5581 28.0337 31.8841 28.4331 31.8841H31.7725C31.8518 31.8841 31.9164 31.9487 31.9164 32.0309V33.4319C31.9164 33.5112 31.8518 33.5758 31.7725 33.5758H28.4331C28.0337 33.5758 27.7077 33.9018 27.7077 34.3012V35.1794C27.7077 35.5788 28.0337 35.9048 28.4331 35.9048H31.7725C31.8518 35.9048 31.9164 35.9694 31.9164 36.0517V37.6788C31.9164 37.7581 31.8518 37.8227 31.7725 37.8227H28.4478C28.0454 37.8227 27.7224 38.1487 27.7224 38.5481V39.4263C27.7224 39.8257 28.0484 40.1517 28.4478 40.1517H31.7725C31.8518 40.1517 31.9164 40.2163 31.9164 40.2986V43.0182C29.2702 42.748 26.8471 42.0843 25.3082 40.7655L25.3346 40.7215C25.3346 40.7215 25.3522 40.6892 25.3845 40.6216C25.4051 40.5776 25.4256 40.5365 25.4433 40.4953C25.8397 39.6319 27.1673 36.269 27.1115 30.1659C27.1085 29.6872 26.9822 29.3142 26.7267 29.0587C26.4712 28.8032 26.1011 28.6769 25.6224 28.6769H23.5136L26.6415 23.7368C26.9529 23.2111 27.1085 22.6032 27.1085 21.9335C27.1085 21.4049 26.9382 21.0172 26.5916 20.7499C26.2274 20.468 25.8133 20.3329 25.317 20.3329H22.0334C21.634 20.3329 21.308 20.6589 21.308 21.0583V22.1274C21.308 22.5268 21.634 22.8528 22.0334 22.8528H24.0364L20.4386 28.6769C20.4386 28.6769 20.1479 29.1174 20.2095 29.6872C20.3006 30.5301 20.9937 31.1968 21.8572 31.1968H22.3242H24.3301V31.3789C24.3301 33.7608 24.151 35.8196 23.6693 37.4996C23.6253 37.6788 23.5518 37.9049 23.4578 38.1546C23.032 37.062 22.8352 35.7844 22.8675 34.3012C22.8851 33.5758 22.3095 32.9737 21.584 32.959C20.8645 32.9473 20.2565 33.517 20.2389 34.2425C20.1743 37.0561 20.8263 39.3969 22.1714 41.2296L22.1098 41.1767C21.7867 41.6878 21.1112 42.3633 20.092 43.0593C19.8218 43.2444 19.7308 43.6027 19.8894 43.8905L20.5678 45.127C20.7587 45.4735 21.1993 45.6028 21.5488 45.4177C22.8088 44.7393 23.8073 43.6027 24.1363 43.1974C26.5241 44.9684 29.9515 45.7966 34.3805 45.7966C36.0722 45.7966 38.6685 45.7291 40.7802 45.4706C41.118 45.4295 41.3706 45.1417 41.3706 44.801V43.5469C41.3706 43.1005 40.98 42.7598 40.5365 42.8126C38.8007 43.027 36.7889 43.1768 34.7682 43.1621V40.2927C34.7682 40.2134 34.8328 40.1488 34.9121 40.1488H39.8052C40.2075 40.1488 40.5306 39.8228 40.5306 39.4233V38.5422C40.5306 38.1428 40.2046 37.8168 39.8052 37.8168H34.9121C34.8328 37.8168 34.7682 37.7522 34.7682 37.6729V36.0458C34.7682 35.9665 34.8328 35.9019 34.9121 35.9019H39.7523C40.1517 35.9019 40.4777 35.5759 40.4777 35.1764V34.2983C40.4777 33.8988 40.1517 33.5728 39.7523 33.5728H34.9121C34.8328 33.5728 34.7682 33.5082 34.7682 33.4289V32.028C34.7682 31.9487 34.8328 31.8841 34.9121 31.8841H37.4526C38.2897 31.8841 39.3999 31.6814 39.8433 31.2849C40.281 30.8914 40.5042 30.3128 40.5042 29.5609V27.8251H41.4734C41.8757 27.8251 42.1988 27.4991 42.1988 27.0997V25.9161C42.1988 25.5167 41.8728 25.1906 41.4734 25.1906L41.4851 25.1965ZM37.6612 29.558H34.9268C34.8475 29.558 34.7829 29.4933 34.7829 29.414V27.8251C34.7829 27.7458 34.8475 27.6812 34.9268 27.6812H37.6612C37.7405 27.6812 37.8051 27.7458 37.8051 27.8251V29.414C37.8051 29.4933 37.7405 29.558 37.6612 29.558ZM37.6612 25.3463H34.9268C34.8475 25.3463 34.7829 25.2817 34.7829 25.2024V23.6135C34.7829 23.5342 34.8475 23.4696 34.9268 23.4696H37.6612C37.7405 23.4696 37.8051 23.5342 37.8051 23.6135V25.2024C37.8051 25.2817 37.7405 25.3463 37.6612 25.3463Z" fill="#0F0E1B"/>
</g>
<defs>
<clipPath id="clip0_636_1795">
<rect width="102.874" height="28.1482" fill="white" transform="translate(13.4399 18.6172)"/>
</clipPath>
</defs>
</svg>
