<svg width="128" height="65" viewBox="0 0 128 65" fill="none" xmlns="http://www.w3.org/2000/svg">
<g clip-path="url(#clip0_636_1823)">
<g clip-path="url(#clip1_636_1823)">
<path fill-rule="evenodd" clip-rule="evenodd" d="M71.3744 13.5398C71.3744 12.7736 72.1405 12.1777 72.9918 12.1777C73.9282 12.1777 74.6093 12.7736 74.6093 13.5398C74.6093 14.3059 73.9282 14.9018 72.9918 14.9018C72.0554 14.9018 71.3744 14.3059 71.3744 13.5398ZM75.801 13.5398C75.801 12.7736 76.5672 12.1777 77.4185 12.1777C78.2698 12.1777 79.0359 12.7736 79.0359 13.5398C79.0359 14.3059 78.2698 14.9018 77.4185 14.9018C76.5672 14.9018 75.801 14.3059 75.801 13.5398ZM81.9302 12.1777C81.079 12.1777 80.3128 12.7736 80.3128 13.5398C80.3128 14.3059 81.079 14.9018 81.9302 14.9018C82.7815 14.9018 83.5477 14.3059 83.5477 13.5398C83.5477 12.7736 82.7815 12.1777 81.9302 12.1777ZM84.8247 13.5398C84.8247 12.7736 85.5908 12.1777 86.4421 12.1777C87.3785 12.1777 88.0595 12.7736 88.0595 13.5398C88.0595 14.3059 87.3785 14.9018 86.4421 14.9018C85.5057 14.9018 84.8247 14.3059 84.8247 13.5398ZM75.8862 16.1785C75.0349 16.1785 74.2687 16.7744 74.2687 17.5406C74.2687 18.3067 75.0349 18.9026 75.8862 18.9026C76.8226 18.9026 77.5036 18.3067 77.5036 17.5406C77.5036 16.7744 76.7374 16.1785 75.8862 16.1785ZM78.7805 17.5406C78.7805 16.7744 79.5467 16.1785 80.3979 16.1785C81.2492 16.1785 82.0154 16.7744 82.0154 17.5406C82.0154 18.3067 81.2492 18.9026 80.3979 18.9026C79.5467 18.9026 78.7805 18.3067 78.7805 17.5406ZM84.9098 16.1785C84.0585 16.1785 83.2924 16.7744 83.2924 17.5406C83.2924 18.3067 84.0585 18.9026 84.9098 18.9026C85.7611 18.9026 86.5272 18.3067 86.5272 17.5406C86.5272 16.7744 85.7611 16.1785 84.9098 16.1785ZM87.8041 17.5406C87.8041 16.7744 88.5703 16.1785 89.4216 16.1785C90.2729 16.1785 91.039 16.7744 91.039 17.5406C91.039 18.3067 90.2729 18.9026 89.4216 18.9026C88.4852 18.9026 87.8041 18.3067 87.8041 17.5406ZM78.8657 20.265C78.0144 20.265 77.2483 20.8609 77.2483 21.6271C77.2483 22.3081 78.0144 22.9891 78.8657 22.9891C79.717 22.9891 80.4831 22.3932 80.4831 21.6271C80.4831 20.8609 79.717 20.265 78.8657 20.265ZM81.76 21.6271C81.76 20.8609 82.5261 20.265 83.3774 20.265C84.2287 20.265 84.9949 20.8609 84.9949 21.6271C84.9949 22.3932 84.2287 22.9891 83.3774 22.9891C82.5261 22.9891 81.76 22.3081 81.76 21.6271ZM87.8893 20.265C87.038 20.265 86.2718 20.8609 86.2718 21.6271C86.2718 22.3081 86.9529 22.9891 87.8893 22.9891C88.7405 22.9891 89.5067 22.3932 89.5067 21.6271C89.5067 20.8609 88.7405 20.265 87.8893 20.265ZM90.7836 21.6271C90.7836 20.8609 91.5498 20.265 92.401 20.265C93.3375 20.265 94.0185 20.8609 94.0185 21.6271C94.0185 22.3932 93.3375 22.9891 92.401 22.9891C91.4646 22.9891 90.7836 22.3081 90.7836 21.6271ZM86.3569 24.2658C85.5056 24.2658 84.7395 24.8617 84.7395 25.6278C84.7395 26.394 85.4205 26.9899 86.3569 26.9899C87.2082 26.9899 87.9743 26.394 87.9743 25.6278C87.9743 24.8617 87.2082 24.2658 86.3569 24.2658ZM89.2513 25.6278C89.2513 24.8617 90.0175 24.2658 90.8687 24.2658C91.72 24.2658 92.4862 24.8617 92.4862 25.6278C92.4862 26.394 91.72 26.9899 90.8687 26.9899C89.9323 26.9899 89.2513 26.394 89.2513 25.6278ZM95.2954 24.2658C94.4441 24.2658 93.6779 24.8617 93.6779 25.6278C93.6779 26.394 94.4441 26.9899 95.2954 26.9899C96.1467 26.9899 96.9128 26.394 96.9128 25.6278C96.9128 24.8617 96.2318 24.2658 95.2954 24.2658ZM83.2072 29.6291C83.2072 28.863 83.8882 28.2671 84.8246 28.2671C85.6759 28.2671 86.4421 28.863 86.4421 29.6291C86.4421 30.3953 85.6759 30.9912 84.8246 30.9912C83.8882 30.9912 83.2072 30.3953 83.2072 29.6291ZM89.3364 28.2671C88.4851 28.2671 87.719 28.863 87.719 29.6291C87.719 30.3953 88.4851 30.9912 89.3364 30.9912C90.1877 30.9912 90.9539 30.3953 90.9539 29.6291C90.9539 28.863 90.1877 28.2671 89.3364 28.2671ZM92.2308 29.6291C92.2308 28.863 92.9969 28.2671 93.8482 28.2671C94.6995 28.2671 95.4656 28.863 95.4656 29.6291C95.4656 30.3953 94.6995 30.9912 93.8482 30.9912C92.9118 30.9912 92.2308 30.3953 92.2308 29.6291ZM98.2749 28.2671C97.4236 28.2671 96.6575 28.863 96.6575 29.6291C96.6575 30.3953 97.4236 30.9912 98.2749 30.9912C99.1262 30.9912 99.8924 30.3953 99.8924 29.6291C99.8924 28.863 99.1262 28.2671 98.2749 28.2671ZM71.3744 45.8032C71.3744 46.5693 72.1405 47.1652 72.9918 47.1652C73.9282 47.1652 74.6093 46.5693 74.6093 45.8032C74.6093 45.037 73.9282 44.4411 72.9918 44.4411C72.0554 44.4411 71.3744 45.037 71.3744 45.8032ZM77.4185 47.1652C76.5672 47.1652 75.801 46.5693 75.801 45.8032C75.801 45.037 76.5672 44.4411 77.4185 44.4411C78.2698 44.4411 79.0359 45.037 79.0359 45.8032C79.0359 46.5693 78.2698 47.1652 77.4185 47.1652ZM80.3128 45.8032C80.3128 46.5693 81.079 47.1652 81.9302 47.1652C82.7815 47.1652 83.5477 46.5693 83.5477 45.8032C83.5477 45.037 82.7815 44.4411 81.9302 44.4411C81.079 44.4411 80.3128 45.037 80.3128 45.8032ZM86.4421 47.1652C85.5908 47.1652 84.8247 46.5693 84.8247 45.8032C84.8247 45.037 85.5057 44.4411 86.4421 44.4411C87.3785 44.4411 88.0595 45.037 88.0595 45.8032C88.0595 46.5693 87.3785 47.1652 86.4421 47.1652ZM74.2687 41.7172C74.2687 42.4834 75.0349 43.0793 75.8862 43.0793C76.7374 43.0793 77.5036 42.4834 77.5036 41.7172C77.5036 40.951 76.8226 40.3552 75.8862 40.3552C75.0349 40.4403 74.2687 41.0362 74.2687 41.7172ZM80.3979 43.0793C79.5467 43.0793 78.7805 42.4834 78.7805 41.7172C78.7805 41.0362 79.5467 40.4403 80.3979 40.3552C81.2492 40.3552 82.0154 40.951 82.0154 41.7172C82.0154 42.4834 81.2492 43.0793 80.3979 43.0793ZM83.2924 41.7172C83.2924 42.4834 84.0585 43.0793 84.9098 43.0793C85.7611 43.0793 86.5272 42.4834 86.5272 41.7172C86.5272 40.951 85.7611 40.3552 84.9098 40.3552C84.0585 40.4403 83.2924 41.0362 83.2924 41.7172ZM89.4216 43.0793C88.5703 43.0793 87.8041 42.4834 87.8041 41.7172C87.8041 41.0362 88.4852 40.4403 89.4216 40.3552C90.2729 40.3552 91.039 40.951 91.039 41.7172C91.039 42.4834 90.2729 43.0793 89.4216 43.0793ZM81.76 37.7164C81.76 38.4826 82.5261 39.0785 83.3774 39.0785C84.2287 39.0785 84.9949 38.4826 84.9949 37.7164C84.9949 36.9503 84.2287 36.3544 83.3774 36.3544C82.5261 36.3544 81.76 36.9503 81.76 37.7164ZM87.8893 39.0785C87.038 39.0785 86.2718 38.4826 86.2718 37.7164C86.2718 36.9503 86.9529 36.3544 87.8893 36.3544C88.7405 36.3544 89.5067 36.9503 89.5067 37.7164C89.5067 38.4826 88.7405 39.0785 87.8893 39.0785ZM90.7836 37.7164C90.7836 38.4826 91.5498 39.0785 92.401 39.0785C93.3375 39.0785 94.0185 38.4826 94.0185 37.7164C94.0185 36.9503 93.3375 36.3544 92.401 36.3544C91.4646 36.3544 90.7836 36.9503 90.7836 37.7164ZM86.3569 35.0772C85.5056 35.0772 84.7395 34.4813 84.7395 33.7151C84.7395 32.949 85.4205 32.3531 86.3569 32.3531C87.2082 32.3531 87.9743 32.949 87.9743 33.7151C87.9743 34.4813 87.2082 35.0772 86.3569 35.0772ZM89.2513 33.7151C89.2513 34.4813 90.0175 35.0772 90.8687 35.0772C91.72 35.0772 92.4862 34.4813 92.4862 33.7151C92.4862 32.949 91.72 32.3531 90.8687 32.3531C89.9323 32.3531 89.2513 32.949 89.2513 33.7151ZM95.2954 35.0772C94.4441 35.0772 93.6779 34.4813 93.6779 33.7151C93.6779 32.949 94.4441 32.3531 95.2954 32.3531C96.1467 32.3531 96.9128 32.949 96.9128 33.7151C96.9128 34.4813 96.2318 35.0772 95.2954 35.0772Z" fill="#0F0E1B"/>
<path fill-rule="evenodd" clip-rule="evenodd" d="M36.2165 27.161H35.9611H35.876V27.0758L36.7272 25.5435C36.7698 25.4584 36.8124 25.3945 36.8549 25.3307C36.8975 25.2669 36.9401 25.203 36.9826 25.1179C37.3231 24.7774 37.7488 24.6071 38.1744 24.522C38.6852 24.4369 39.2811 24.4369 39.7919 24.4369H48.2196L49.0708 21.5425L49.156 21.3722C49.156 21.3722 49.156 21.2871 49.0708 21.2871H32.7262C31.6196 21.2871 30.4278 21.2871 29.3211 21.4574C28.3847 21.5425 27.5334 21.9681 26.8524 22.6492C26.597 22.9045 26.4267 23.1599 26.2565 23.5004L24.639 26.5651C24.5539 26.7353 24.5539 26.9907 24.7242 27.0758C24.8944 27.2461 25.1498 27.2461 25.3201 27.2461H32.4708L29.5765 36.7804C29.4062 37.4615 29.5765 37.9722 30.0873 38.483C30.5129 38.9086 31.1088 39.164 31.7047 39.164H31.7898H37.0678L40.7283 27.0758H36.2165V27.161ZM83.2924 24.6919H75.8862C75.716 24.6919 75.4606 24.6919 75.2903 24.7771C72.9919 25.1176 71.0339 26.9904 70.7785 29.2888C70.721 29.5188 70.7412 29.7877 70.7604 30.0429V30.0429C70.7696 30.1655 70.7785 30.285 70.7785 30.3955C70.9488 32.0981 72.3108 33.2899 74.0134 33.375H74.5242H77.2483H77.5037C78.1847 33.375 78.6954 33.8858 78.7806 34.5668V34.9924C78.6954 35.9289 77.6739 36.7801 76.6524 36.7801H76.397H69.2462L68.6503 38.653L68.5652 38.9935L68.4801 39.1637V39.2488C68.4801 39.2488 68.4801 39.334 68.5652 39.334H69.1611H76.9078C77.078 39.334 77.3334 39.334 77.5037 39.2488C79.8021 38.9083 81.7601 37.0355 82.0154 34.7371V33.6304C81.8452 31.9278 80.4831 30.736 78.7806 30.6509H78.1847H75.4606H75.2052C74.5242 30.6509 74.0134 30.1401 73.9283 29.4591V29.0335C74.0134 28.0971 74.8647 27.3309 75.8862 27.2458H76.1416H82.6965L83.4626 24.8622V24.7771L83.2924 24.6919ZM67.0754 31.8853C67.1393 31.9278 67.2031 31.9704 67.2883 32.013C67.9693 32.5237 68.48 33.2047 68.7354 33.9709C68.8206 34.3114 68.8206 34.6519 68.8206 34.9924V34.9924C68.6503 37.2058 66.5221 39.1637 64.0534 39.2488H63.2872H54.4339H54.3488C54.2636 39.2488 54.2636 39.1637 54.2636 39.1637V39.0786L57.4985 28.6078H60.9036L58.4349 36.6099H62.8616H63.117C64.1385 36.6099 65.16 35.7586 65.2452 34.8222V34.3965C65.16 33.7155 64.6493 33.2047 63.9683 33.2047H63.7129H60.6483L61.4144 30.6509H63.2021H63.4575C64.3939 30.6509 65.7559 29.7996 65.8411 28.8632V28.4376C65.7559 27.7565 65.2452 27.2458 64.5641 27.2458H64.1385H57.3283L46.6872 39.2488H40.7283H40.558C40.4729 39.2488 40.4729 39.1637 40.4729 39.1637L40.6431 38.5678L44.1334 27.1606H47.2831L44.3036 36.7801C44.3036 36.8653 44.3888 36.9504 44.4739 36.9504C44.559 36.9504 44.6441 36.8653 44.6441 36.8653L55.5406 25.4581C55.5406 25.4581 55.6257 25.2878 55.7108 25.2027C56.3067 24.6919 56.3918 24.6919 57.3283 24.6919H64.6493H65.2452C67.0329 24.7771 68.6503 25.9688 68.8206 27.6714V27.6714C68.8206 28.012 68.8206 28.5227 68.7354 28.8632C68.48 30.055 67.6288 30.9914 66.6072 31.6724C66.6924 31.6724 66.7775 31.6724 66.8626 31.7576C66.9477 31.8001 67.0116 31.8427 67.0754 31.8853Z" fill="#0F0E1B"/>
<path fill-rule="evenodd" clip-rule="evenodd" d="M55.2001 47.2516C55.5406 46.9111 55.8811 46.3152 56.3068 45.5491C55.8811 45.6342 55.4555 45.7193 54.9447 45.7193L54.6042 44.6127C54.7745 44.5275 54.9447 44.4424 55.115 44.187C55.6257 43.1655 55.9663 42.1439 56.3068 40.9521L57.4986 41.3778C56.9878 42.6547 56.477 43.6763 55.9663 44.5275L56.9027 44.3573C57.0729 43.9316 57.3283 43.4209 57.5837 42.9101L58.6904 43.3357C57.7539 45.2086 56.9027 46.4855 56.3068 47.3368C56.5196 47.2942 56.7111 47.2516 56.9027 47.2091C57.0942 47.1665 57.2857 47.1239 57.4986 47.0814L57.2432 46.0598L58.1796 45.8045C58.435 46.4855 58.6052 47.3368 58.7755 48.2732L57.8391 48.5286L57.7539 48.0178C56.8175 48.3583 55.8811 48.5286 55.0298 48.6137L54.6893 47.5921C54.8596 47.507 55.0298 47.4219 55.2001 47.2516ZM32.4709 42.0589H34.6842V43.3358H33.0325L33.918 43.6764C33.8329 44.0169 33.6626 44.4426 33.4924 44.7831H34.6842V45.8897H32.4708V46.9113H34.3437V48.1882H32.3006V51.4231C32.3006 52.1892 31.8749 52.5297 31.0237 52.5297H30.4278L30.1724 51.338C30.3426 51.4231 30.5129 51.4231 30.6832 51.4231C30.9385 51.4231 31.1088 51.338 31.1088 51.0826V48.1882H28.9806V46.9964H31.1088V45.9749H28.8103V44.7831H30.0873C29.917 44.3575 29.7467 44.0169 29.5765 43.6764L29.5765 43.6764L30.462 43.3358H29.0657V42.144H31.1939C31.0237 41.8035 30.8534 41.5481 30.6832 41.2927L30.6832 41.2927L32.0452 41.0374C32.1609 41.2109 32.2373 41.4237 32.3278 41.6758L32.3278 41.6758L32.3278 41.6759L32.3278 41.6759C32.3705 41.7948 32.4163 41.9225 32.4709 42.0589ZM30.7167 43.3358C30.8758 43.7439 31.0349 44.2264 31.1939 44.7831H32.3006C32.4708 44.4426 32.5654 44.1021 32.66 43.7615L32.66 43.7615C32.6994 43.6196 32.7389 43.4777 32.7838 43.3358H30.7167ZM39.877 42.3144C38.8555 42.655 37.7488 42.8252 36.4719 42.9103V44.8683H40.1324V46.0601H39.0257V52.4447H37.7488V46.0601H36.4719V47.2519C36.3868 49.4652 35.876 51.1678 35.0247 52.4447L34.0883 51.5083C34.2733 51.2307 34.4333 50.9217 34.5697 50.583L33.4924 50.9974C33.3221 50.2312 33.0668 49.4651 32.8114 48.7841L33.8329 48.5287C34.084 49.282 34.3351 49.953 34.5862 50.5417C34.9415 49.6412 35.1339 48.5341 35.195 47.2519V41.9739C36.7273 41.8888 38.0893 41.6334 39.2811 41.2078L39.877 42.3144ZM28.7252 51.4231C29.236 50.5718 29.6616 49.6354 29.8319 48.6139L30.9386 48.8693C30.6832 50.1462 30.2575 51.1677 29.7468 52.1042L28.7252 51.4231ZM50.6032 49.6351C50.5742 49.6351 50.5459 49.6357 50.5181 49.6369V49.6351H50.6032ZM50.5181 49.6369C50.3823 49.6424 50.2586 49.66 50.135 49.6777C49.986 49.699 49.837 49.7202 49.6668 49.7202V46.7408H50.7735V45.6341H44.1335V46.7408H44.9847V49.9756H44.0483L44.2186 51.0823C45.7509 50.9972 47.1981 50.912 48.475 50.8269V51.9336H49.5817V50.7418L50.5181 50.6567V49.6369ZM48.475 49.8054C48.0813 49.8491 47.6876 49.8704 47.2823 49.8923C46.8989 49.913 46.5052 49.9342 46.0914 49.9756V49.4649H48.475V49.8054ZM48.475 48.5285H46.0914V48.0177H48.475V48.5285ZM48.475 47.2515H46.0914V46.8259H48.475V47.2515ZM51.4544 45.2085H47.8791H47.7939V41.4629H52.6462V51.0824C52.6462 51.8485 52.3057 52.2742 51.4544 52.2742C51.2298 52.2742 51.0051 52.2505 50.7929 52.2281C50.6032 52.208 50.4234 52.1891 50.2626 52.1891L50.0073 51.0824C50.4329 51.1675 50.6883 51.1675 51.0288 51.1675H51.0288C51.2842 51.1675 51.4544 50.9973 51.4544 50.7419V45.2085ZM51.4544 42.3993H49.156V42.825H51.4544V42.3993ZM51.4544 43.7614H49.156V44.3573H51.4544V43.7614ZM47.0278 41.4629H42.1755V52.3593H43.4524V45.2085H47.0278V41.4629ZM45.7509 44.2721H43.3673V43.7614H45.7509V44.2721ZM45.7509 42.9101H43.3673V42.3993H45.7509V42.9101ZM63.8832 50.2311V49.2947H61.8401V47.9326H64.1386V46.826H62.8617C62.7765 46.4003 62.6914 46.0598 62.6063 45.7193L61.5847 45.8896C61.6164 45.9845 61.6598 46.0913 61.7063 46.2055L61.7064 46.2057L61.7064 46.2058C61.7848 46.3985 61.8718 46.6122 61.9253 46.826H60.4781V47.9326H60.9888V50.2311H63.8832ZM58.6007 49.4672C58.7223 49.818 58.848 50.1808 58.9457 50.5716V41.4629H65.6709V50.9121C65.6709 51.7634 65.3303 52.1891 64.5642 52.1891H63.0319L62.6914 51.0824H64.2237C64.4791 51.0824 64.5642 50.9121 64.5642 50.6567V42.5696H60.2227V52.1891H59.0309V50.6567L58.1796 51.0824C58.0577 50.5339 57.8922 49.9854 57.7455 49.4993L57.7454 49.4992L57.7454 49.4992L57.7454 49.499L57.7454 49.499C57.6872 49.3062 57.632 49.1234 57.5837 48.9542L58.3498 48.6988C58.4224 48.9527 58.5104 49.2067 58.6007 49.4672ZM56.2217 49.2097C56.3919 49.9758 56.477 50.8271 56.5622 51.7635L57.5837 51.5082C57.5144 51.1267 57.4591 50.7736 57.4065 50.4371L57.4065 50.4371L57.4065 50.437C57.33 49.9475 57.259 49.4935 57.1581 49.0394L56.2217 49.2097ZM55.6257 52.2744L54.6042 51.9339C54.7745 51.0826 54.9447 50.1462 55.0298 49.1246L56.0514 49.2949C55.9663 50.4016 55.796 51.4231 55.6257 52.2744ZM60.3929 45.634H64.2237V44.5273H63.3724C63.5426 44.1016 63.7129 43.5909 63.798 42.995L62.7765 42.8247C62.6914 43.4206 62.6062 43.9314 62.436 44.4422H61.4996L62.0955 44.1868C62.0585 44.0944 62.0216 43.998 61.9838 43.8994L61.9837 43.8993C61.8473 43.5434 61.6995 43.158 61.4996 42.8247L60.6483 43.1652C60.6885 43.2456 60.7334 43.3306 60.7808 43.4204L60.7809 43.4206C60.9344 43.7114 61.1141 44.052 61.2442 44.4422H60.3929V45.634Z" fill="#0F0E1B"/>
</g>
</g>
<defs>
<clipPath id="clip0_636_1823">
<rect width="128" height="64" fill="white" transform="translate(0 0.591797)"/>
</clipPath>
<clipPath id="clip1_636_1823">
<rect width="83" height="63.8462" fill="white" transform="translate(22 1.1543)"/>
</clipPath>
</defs>
</svg>
