<svg width="128" height="65" viewBox="0 0 128 65" fill="none" xmlns="http://www.w3.org/2000/svg">
<path d="M72.8459 20.1814C73.1435 20.1818 73.4345 20.0932 73.6821 19.9269C73.9297 19.7607 74.1228 19.5242 74.2368 19.2475C74.3509 18.9708 74.3808 18.6662 74.3228 18.3724C74.2648 18.0785 74.1215 17.8086 73.9111 17.5968C73.7006 17.3849 73.4324 17.2407 73.1405 17.1823C72.8486 17.124 72.546 17.1541 72.2711 17.2689C71.9962 17.3837 71.7613 17.578 71.5961 17.8272C71.4309 18.0764 71.343 18.3694 71.3433 18.669C71.3433 19.0701 71.5016 19.4548 71.7834 19.7384C72.0652 20.0221 72.4474 20.1814 72.8459 20.1814Z" fill="#0F0E1B"/>
<path d="M86.5806 24.9495H94.3895L94.6117 23.7979H86.8028L86.5806 24.9495Z" fill="#0F0E1B"/>
<path d="M66.8683 18.1725L65.0887 15.4941C61.9113 18.7381 57.79 19.7086 57.79 19.7086C57.8203 19.8736 57.8638 20.0359 57.92 20.1939C62.6031 19.7653 66.8683 18.1725 66.8683 18.1725Z" fill="#0F0E1B"/>
<path d="M55.7741 28.9782C55.8602 28.9782 55.9854 28.9782 56.1451 28.9782C57.3851 28.9715 58.6204 28.8251 59.828 28.5418L58.7966 33.8812H61.4934C61.4934 33.8812 62.0616 30.9334 62.708 27.5886C63.6244 27.1896 64.4998 26.7015 65.322 26.1312L65.7054 25.865L65.1764 25.093L64.7929 25.3592C64.1994 25.7734 63.5757 26.1421 62.9272 26.4621C63.1369 25.3766 63.3482 24.28 63.5454 23.2544H67.9281C67.8388 24.2784 67.7919 25.2442 67.7887 26.1375C67.7887 26.6385 67.7981 27.1191 67.8247 27.5744C66.658 27.9748 65.6211 28.6867 64.825 29.634C64.0288 30.5814 63.5032 31.7286 63.3044 32.9532L63.27 33.1454H64.5393C64.6895 32.1953 65.082 31.3007 65.6784 30.549C66.2748 29.7973 67.0548 29.2143 67.9421 28.8569C68.1628 30.582 68.6246 31.885 69.3227 32.7499C69.6299 33.1497 70.0257 33.4719 70.4783 33.6907C70.931 33.9095 71.4282 34.0189 71.9303 34.0103H71.9413C73.7741 34.0103 75.0811 32.7499 75.1202 30.9743C75.1625 29.1499 73.8133 27.2357 71.1587 27.1081C70.454 27.0713 69.7475 27.1173 69.0534 27.2451C69.0075 25.9141 69.0488 24.5815 69.1771 23.2559H74.5755L74.7978 22.1042H69.2961C69.4901 20.4311 69.7891 18.605 70.1976 16.6546L70.2884 16.2197H69.019L68.983 16.3962C68.5604 18.4097 68.2458 20.3349 68.0439 22.1042H63.7677C63.9399 21.2157 64.0933 20.4137 64.2169 19.7693C63.3056 20.1143 62.3558 20.3455 61.3886 20.4578L61.0755 22.1042H57.3284L57.1061 23.2559H60.8486L60.0221 27.5366C58.6492 27.9038 57.232 28.0766 55.8117 28.0502H55.5847L55.4094 28.9955H55.7741V28.9782ZM71.0961 28.348C72.5048 28.4173 73.9135 29.3279 73.8759 30.9381C73.8461 32.2726 72.8115 32.7499 71.935 32.7515C71.6181 32.7589 71.304 32.6906 71.0184 32.5523C70.7327 32.414 70.4837 32.2096 70.2915 31.9559C69.7093 31.2359 69.3305 30.0527 69.1536 28.4898C69.7938 28.3618 70.4473 28.3142 71.0992 28.348H71.0961Z" fill="#0F0E1B"/>
<path d="M83.4064 20.5949H88.4119L88.678 19.2163H83.6725L83.9871 17.5841L84.8119 17.3619L84.981 16.4844H84.1999H82.9744H80.6641L79.3994 23.0369H82.9352L83.4064 20.5949Z" fill="#0F0E1B"/>
<path d="M94.1407 16.4844H90.6049L89.3402 23.0369H92.876L94.1407 16.4844Z" fill="#0F0E1B"/>
<path d="M81.5093 33.8811H84.1123L86.0313 23.7979H77.5681L77.3459 24.9495H78.3601L77.2379 30.7632L76.4005 30.8577L75.9653 33.1784L82.0055 31.2705L81.5093 33.8811ZM79.8972 30.467L80.2994 28.3857H81.9038L82.1699 27.0072H80.5655L80.9631 24.959H83.2107L82.209 30.218L79.8972 30.467Z" fill="#0F0E1B"/>
<path d="M91.6614 31.1133C92.2181 31.9014 92.5827 32.8103 92.7257 33.7665L92.7351 33.8799H93.9873L93.9654 33.6483C93.7912 32.2961 93.2343 31.0229 92.361 29.9805C93.0432 28.7443 93.6147 27.4494 94.0687 26.1111L94.2049 25.6904H92.8979L92.8869 25.7235C92.4963 26.8922 92.0066 28.0249 91.4235 29.1093C90.6564 28.5457 89.7205 28.2637 88.772 28.3105C86.7231 28.4019 85.3066 30.2499 85.316 31.8538C85.316 33.0953 86.1815 33.9256 87.5073 33.9681C88.9567 34.0138 90.3466 33.0559 91.6614 31.1133ZM86.5541 31.8507C86.5541 30.5162 87.8923 29.6056 88.8236 29.5646C88.8706 29.5646 88.916 29.5646 88.9629 29.5646C89.6231 29.564 90.2645 29.7859 90.7848 30.1948C89.8629 31.6128 88.7344 32.7645 87.5417 32.7251C86.8812 32.6967 86.5572 32.4115 86.5541 31.8507Z" fill="#0F0E1B"/>
<path d="M64.4234 33.7617H64.3029L64.4202 33.7838L64.4234 33.7617Z" fill="#0F0E1B"/>
<path d="M106.581 22.6721H114.573L114.795 21.5204H107.007C107.503 20.0739 107.877 18.5883 108.127 17.079L108.79 16.8994L108.959 16.0234H104.465C104.681 17.8574 104.595 19.7147 104.21 21.5204H97.1772L96.9549 22.6721H103.923C102.768 26.718 100.298 29.8517 98.193 31.5721C95.8248 33.5068 94.6635 33.729 94.6635 33.729L94.9765 33.8865C101.524 32.0889 104.881 26.9669 106.581 22.6721Z" fill="#0F0E1B"/>
<path d="M52.2616 18.0344L52.4307 17.1585H46.2715C46.4349 18.4284 46.4127 19.7156 46.2058 20.9791C45.4679 25.8935 43.4327 30.5184 40.3128 34.3709C37.738 32.8206 33.5823 31.2419 29.8367 29.9878C32.9645 27.1462 35.3099 23.5394 36.6454 19.517H41.8201L42.0423 18.3653H27.9945L27.2698 19.517H32.8529C31.1368 22.9351 28.9326 26.0817 26.3103 28.8566C23.5539 28.0074 21.5692 27.4764 21.5692 27.4764L30.408 12.7218L31.5162 12.4225L31.6853 11.5449H29.9635C28.9195 11.5449 27.3152 11.5449 25.8079 11.5449C25.7703 13.2102 24.7826 15.7137 23.4334 18.3637H16.0878L15.8609 19.5154H22.8261C21.3439 22.2804 19.5752 25.0958 18.1712 27.2039C20.5612 27.5032 23.1266 28.4044 25.6106 29.5671C22.2157 32.975 17.5967 36.2615 11.6191 37.7692C11.6473 37.7929 12.0652 38.1568 12.1419 38.2261C16.3305 37.4778 23.0186 35.573 28.5611 31.0859C31.75 32.8946 34.8002 34.9406 37.6863 37.2068C33.4039 41.2747 29.1856 42.8991 29.1856 42.8991L29.8117 43.3512C45.9444 38.2308 50.5086 22.5357 51.4681 18.2503L52.2616 18.0344Z" fill="#0F0E1B"/>
<path d="M114.795 32.5517C112.056 32.5517 110.1 31.8679 108.987 30.5177C108.526 29.9616 107.307 28.4853 108.104 24.1464C108.12 24.0566 108.135 23.9747 108.148 23.9038L108.251 23.3066H106.989L106.924 23.6879L106.881 23.9195C106.636 25.2634 105.98 28.8351 108.032 31.3244C109.395 32.9724 111.669 33.809 114.795 33.809H115.136L115.376 32.558L114.795 32.5517Z" fill="#0F0E1B"/>
<path d="M81.4811 47.84L81.2667 47.8841L81.1101 47.9125L80.7971 47.9582L80.4496 48.0102L80.3541 48.0243C80.2821 48.0338 80.2086 48.0432 80.1366 48.0496H80.0865L79.4056 48.111H79.343C79.2788 48.111 79.2147 48.1204 79.1521 48.122H79.0566L78.7091 48.1331L78.454 48.1425H78.2693H78.1848H78.011L77.3333 48.1299H77.2973L76.6227 48.0858C76.4661 48.0748 76.3096 48.0606 76.1531 48.0448H76.1014C75.9574 48.0306 75.8134 48.0133 75.6694 47.996L75.5333 47.9787C74.5507 47.8505 73.5768 47.6616 72.6173 47.413L72.5155 47.3847L72.298 47.3264C72.3872 47.1342 72.4733 46.942 72.5531 46.7435C73.0853 45.4152 73.3575 43.9959 73.3545 42.5636C73.3545 40.422 72.6293 38.7173 71.1788 37.4495C69.7284 36.1818 67.8804 35.55 65.6348 35.5542C62.7226 35.5478 59.9224 36.6831 57.8275 38.7194C57.7884 38.7572 57.7524 38.7982 57.7132 38.836C53.9567 35.9623 51.2098 32.671 48.8838 27.2607L48.1654 28.6787C48.6084 30.6717 51.0626 36.594 55.7614 41.5065C55.6378 41.7444 55.5204 41.9791 55.4124 42.2344C54.8274 43.5919 54.5299 45.0573 54.539 46.5371C54.539 48.6314 55.2564 50.3267 56.6912 51.6228C58.1259 52.9189 59.9593 53.568 62.1913 53.5701C63.8974 53.5701 65.424 53.2734 66.7712 52.68C68.0861 52.1079 69.2795 51.2869 70.2867 50.2616C70.8034 49.7318 71.262 49.1476 71.6547 48.519C71.8253 48.5474 71.9959 48.571 72.1665 48.5962L72.2901 48.6152L72.4388 48.6372C72.8646 48.7002 73.295 48.7428 73.7254 48.7837C74.6836 48.8669 75.6459 48.8911 76.607 48.8562C76.8418 48.8483 77.0766 48.8357 77.3129 48.8184H77.3333C77.6573 48.7948 77.9813 48.7617 78.3021 48.7223L78.3961 48.7113L78.49 48.6971C78.7263 48.6656 78.9595 48.6309 79.1974 48.5899L79.3947 48.5553L79.4573 48.5427C79.6858 48.5001 79.9128 48.4529 80.1397 48.4009H80.1569L80.1914 48.393C80.2634 48.3773 80.3354 48.3599 80.4074 48.341C80.6641 48.2801 80.9181 48.2129 81.1696 48.1394H81.1915L81.2917 48.1078C81.5985 48.0165 81.9032 47.9162 82.2058 47.8069L82.1761 47.7077L81.4811 47.84ZM67.1014 48.8767C66.6361 49.8549 65.9772 50.7271 65.1653 51.44C64.4432 52.0899 63.509 52.4499 62.5404 52.4515C61.4249 52.4515 60.5901 52.0203 60.036 51.158C59.4819 50.2957 59.2028 49.154 59.1986 47.7329C59.2006 46.4062 59.3407 45.0835 59.6166 43.7862C59.866 42.5516 60.2722 41.3544 60.8249 40.224C61.2945 39.2467 61.9552 38.3749 62.7673 37.6607C63.4885 37.0204 64.4181 36.6689 65.3797 36.6728C66.4879 36.6728 67.3226 37.093 67.884 37.9332C68.4454 38.7735 68.7246 39.9289 68.7214 41.3993C68.7186 42.6955 68.5864 43.9881 68.327 45.2578C68.2847 45.4673 68.2362 45.6737 68.1877 45.8785L68.1642 45.869C67.919 45.764 67.6738 45.6537 67.4286 45.5382L67.0013 45.3349L66.574 45.1396C66.4503 45.0797 66.3266 45.0167 66.203 44.9537L66.1044 44.9033L65.8461 44.7678C65.602 44.6402 65.3609 44.511 65.1199 44.377L64.7912 44.1943L64.4312 43.9816L64.1526 43.824C64.0539 43.7673 63.9569 43.709 63.8599 43.6492L63.7033 43.5578C63.3136 43.3199 62.9286 43.0725 62.5513 42.8204C62.3619 42.6944 62.1773 42.5668 61.9926 42.4376L61.9706 42.4218C61.9065 42.3777 61.8454 42.332 61.7828 42.2863L61.7218 42.2485L61.6686 42.2107C61.326 43.042 61.0436 43.8971 60.8233 44.7693C60.9799 44.8513 61.1364 44.9269 61.2851 45.012C61.7202 45.2388 62.16 45.45 62.5999 45.6564L62.7673 45.732L63.1101 45.8895L63.2666 45.9589L63.4106 46.0234L63.8254 46.2015L63.935 46.2472L64.1901 46.3527L64.608 46.5245L65.0025 46.682L65.2858 46.7923L65.3922 46.8301C65.5315 46.8837 65.6724 46.9341 65.8133 46.9877L65.9698 47.0428L66.2453 47.1405C66.3814 47.1877 66.5176 47.2366 66.6553 47.2823L66.7367 47.3075L67.3472 47.5013L67.535 47.5611L67.654 47.599C67.4911 48.0339 67.3067 48.4604 67.1014 48.8767Z" fill="#0F0E1B"/>
<path d="M84.4176 43.8605C84.0904 43.8605 83.8635 43.8069 83.7336 43.7029C83.6036 43.5989 83.5379 43.3878 83.5379 43.0948C83.5465 42.9108 83.5706 42.728 83.6099 42.5481C83.6584 42.3023 83.7007 42.1038 83.7367 41.9557L84.8214 37.2292L84.729 37.1205L82.2889 37.2292L81.0257 42.7844C80.7375 43.0721 80.409 43.3157 80.0506 43.5076C79.8085 43.6502 79.538 43.7368 79.2586 43.7612C79.1519 43.7727 79.0439 43.7595 78.943 43.7226C78.8421 43.6857 78.7509 43.6262 78.6763 43.5485C78.557 43.3817 78.4979 43.1788 78.5088 42.9735C78.5147 42.8225 78.5299 42.672 78.5542 42.5229C78.583 42.3268 78.6238 42.1326 78.6763 41.9415L79.2351 39.8934C79.2986 39.6691 79.3395 39.439 79.3572 39.2064C79.3775 38.9591 79.3885 38.7905 79.3885 38.6976C79.3927 38.4832 79.3506 38.2705 79.2652 38.0742C79.1798 37.8778 79.0531 37.7024 78.8939 37.56C78.5652 37.2544 78.0956 37.1016 77.4852 37.1016C77.1212 37.1059 76.76 37.167 76.4146 37.2827C76.0368 37.4025 75.6414 37.5474 75.2281 37.7176L75.0607 38.4108C75.1828 38.3635 75.3299 38.3163 75.5005 38.2643C75.6633 38.2137 75.8326 38.1877 76.0029 38.1871C76.3348 38.1871 76.557 38.2454 76.6728 38.3604C76.8045 38.5297 76.8661 38.7436 76.845 38.9575C76.8363 39.1435 76.8122 39.3285 76.773 39.5105C76.7245 39.7594 76.6822 39.9564 76.6462 40.0998L76.0687 42.2487C76.0061 42.477 75.9586 42.7091 75.9262 42.9435C75.9089 43.1047 75.9 43.2667 75.8996 43.4288C75.8967 43.6411 75.9369 43.8517 76.0176 44.0478C76.0984 44.244 76.218 44.4215 76.3692 44.5695C76.6822 44.8846 77.1158 45.0421 77.6808 45.0421C78.2615 45.0542 78.8372 44.9319 79.3635 44.6845C79.9236 44.3925 80.4391 44.0211 80.8942 43.5816H80.9475C81.0312 43.9767 81.2576 44.3265 81.5829 44.5632C81.9789 44.8346 82.4522 44.968 82.9306 44.9429C83.2864 44.9495 83.6409 44.8963 83.9793 44.7853C84.2798 44.6803 84.6831 44.5274 85.1892 44.3268L85.3567 43.6336C85.2208 43.6923 85.0805 43.7403 84.9372 43.777C84.7684 43.8278 84.5937 43.8559 84.4176 43.8605Z" fill="#0F0E1B"/>
<path d="M91.9384 41.0954C92.5663 40.9443 93.1457 40.6353 93.6226 40.1974C93.8215 40.0143 93.98 39.7913 94.0879 39.5427C94.1957 39.2941 94.2505 39.0255 94.2487 38.7542C94.2611 38.4897 94.201 38.2269 94.0748 37.9945C93.9486 37.7622 93.7613 37.5693 93.5334 37.4371C93.0555 37.144 92.3605 36.9975 91.4485 36.9975C90.7194 36.9881 89.9959 37.1268 89.3214 37.4056C88.7222 37.6459 88.1783 38.0073 87.7233 38.4675C87.2897 38.9083 86.9486 39.4323 86.72 40.0083C86.497 40.5706 86.3828 41.1706 86.3835 41.776C86.3779 42.2224 86.4532 42.6661 86.6057 43.0853C86.7502 43.4762 86.9772 43.831 87.271 44.1251C87.5973 44.4389 87.9878 44.6771 88.4151 44.8231C88.9337 44.9992 89.4786 45.084 90.0257 45.0736C90.8171 45.0732 91.5953 44.8704 92.2875 44.4843C92.9889 44.104 93.5929 43.5646 94.0515 42.9088L93.4927 42.4362C93.1721 42.8872 92.7617 43.2661 92.2875 43.5485C91.814 43.7946 91.2862 43.9155 90.7536 43.8998C90.4545 43.9114 90.1579 43.8405 89.8958 43.695C89.6753 43.563 89.4955 43.3722 89.3762 43.1436C89.2638 42.9155 89.1863 42.6717 89.1461 42.4204C89.0986 42.1686 89.0678 41.9138 89.0537 41.6579C89.625 41.5964 90.1087 41.5287 90.5047 41.4578C90.9889 41.3635 91.4675 41.2426 91.9384 41.0954ZM89.0772 41.0261C89.1743 40.0398 89.3976 39.2248 89.7471 38.5809C90.0967 37.9371 90.4676 37.6146 90.86 37.6135C90.9906 37.6098 91.12 37.6402 91.2355 37.7017C91.351 37.7633 91.4487 37.854 91.519 37.9649C91.6941 38.2693 91.7763 38.6189 91.7553 38.9701C91.7727 39.3409 91.6853 39.7091 91.5033 40.0319C91.2987 40.3283 91.011 40.5564 90.6769 40.6874C90.45 40.7797 90.2139 40.8468 89.9725 40.8874C89.6772 40.9442 89.3788 40.9904 89.0772 41.0261Z" fill="#0F0E1B"/>
<path d="M100.984 41.0964C101.611 40.9452 102.19 40.6362 102.666 40.1983C102.865 40.0153 103.024 39.7922 103.132 39.5436C103.24 39.295 103.294 39.0264 103.293 38.7552C103.305 38.4907 103.245 38.2278 103.119 37.9955C102.992 37.7631 102.805 37.5703 102.577 37.438C102.108 37.145 101.405 36.9985 100.492 36.9985C99.7633 36.9893 99.0398 37.1281 98.3652 37.4065C97.766 37.6468 97.2221 38.0082 96.7671 38.4684C96.3335 38.9089 95.9928 39.433 95.7654 40.0093C95.5418 40.5714 95.4275 41.1715 95.4289 41.777C95.4235 42.2232 95.4983 42.6667 95.6496 43.0862C95.7952 43.4769 96.0226 43.8316 96.3163 44.1261C96.6423 44.4395 97.0322 44.6777 97.4589 44.824C97.978 45.0001 98.5234 45.0849 99.0711 45.0745C99.862 45.0741 100.64 44.8713 101.331 44.4853C102.033 44.1054 102.637 43.5659 103.095 42.9098L102.537 42.4371C102.216 42.8885 101.806 43.2674 101.331 43.5494C100.858 43.7957 100.33 43.9166 99.7974 43.9008C99.4988 43.9123 99.2027 43.8415 98.9412 43.6959C98.7199 43.5645 98.5394 43.3735 98.42 43.1445C98.309 42.9159 98.2315 42.6723 98.1899 42.4214C98.1429 42.1695 98.1126 41.9147 98.0991 41.6588C98.6704 41.5974 99.1541 41.5296 99.5485 41.4587C100.033 41.3645 100.512 41.2435 100.984 41.0964ZM98.121 41.027C98.1805 40.1752 98.4083 39.3439 98.791 38.5819C99.1395 37.9369 99.511 37.6145 99.9054 37.6145C100.036 37.6105 100.165 37.6409 100.28 37.7025C100.396 37.7641 100.493 37.8548 100.563 37.9658C100.739 38.2698 100.822 38.6196 100.801 38.971C100.818 39.342 100.73 39.7105 100.547 40.0329C100.343 40.3299 100.055 40.5582 99.7207 40.6883C99.4939 40.7807 99.2577 40.8478 99.0163 40.8884C98.7205 40.9451 98.4231 40.9892 98.121 41.027Z" fill="#0F0E1B"/>
<path d="M113.587 43.8614C113.26 43.8614 113.031 43.8078 112.901 43.7038C112.772 43.5998 112.706 43.3887 112.706 43.0957C112.712 42.9199 112.732 42.745 112.767 42.5726C112.808 42.341 112.854 42.1362 112.905 41.9566L113.487 39.7918C113.549 39.5687 113.592 39.3404 113.614 39.1096C113.631 38.897 113.64 38.7315 113.64 38.6134C113.644 38.4002 113.603 38.1886 113.52 37.9922C113.438 37.7958 113.316 37.6188 113.161 37.4727C112.848 37.1576 112.401 37 111.836 37C111.247 36.9973 110.665 37.1276 110.133 37.3813C109.567 37.6579 109.045 38.0173 108.585 38.4479H108.53C108.455 38.0534 108.245 37.6978 107.937 37.4428C107.639 37.2054 107.189 37.0862 106.586 37.0851C106.221 37.0895 105.86 37.1507 105.514 37.2663C105.136 37.386 104.74 37.531 104.327 37.7011L104.16 38.3944C104.282 38.3487 104.429 38.2998 104.599 38.2478C104.762 38.1982 104.931 38.1722 105.1 38.1706C105.413 38.1706 105.636 38.2258 105.756 38.3361C105.877 38.4464 105.936 38.6512 105.936 38.9411C105.931 39.1358 105.906 39.3295 105.863 39.5193C105.814 39.7493 105.775 39.9368 105.744 40.0817L104.648 44.8177H107.177L108.455 39.2562C108.768 38.9435 109.132 38.6867 109.532 38.4968C109.764 38.3838 110.015 38.3144 110.272 38.292C110.381 38.2805 110.49 38.2931 110.594 38.329C110.697 38.365 110.791 38.4233 110.87 38.4999C110.995 38.6652 111.058 38.8704 111.045 39.0781C111.042 39.224 111.028 39.3693 111.003 39.513C110.975 39.691 110.932 39.8895 110.876 40.1101L110.322 42.1582C110.259 42.394 110.216 42.635 110.195 42.8783C110.181 43.0705 110.175 43.228 110.175 43.3509C110.171 43.5664 110.215 43.7799 110.302 43.9765C110.39 44.1731 110.52 44.3479 110.682 44.4884C111.019 44.793 111.492 44.9453 112.1 44.9453C112.456 44.9521 112.81 44.8989 113.149 44.7878C113.451 44.6827 113.855 44.5299 114.36 44.3293L114.529 43.6361C114.393 43.695 114.252 43.7429 114.108 43.7794C113.939 43.8299 113.764 43.8574 113.587 43.8614Z" fill="#0F0E1B"/>
</svg>
