<svg width="128" height="65" viewBox="0 0 128 65" fill="none" xmlns="http://www.w3.org/2000/svg">
<g clip-path="url(#clip0_636_1816)">
<path d="M114.56 40.9227C114.56 48.6699 108.377 54.8284 99.8006 54.8284H89.6251V44.6719C87.9467 50.8915 82.2366 55.4831 75.4705 55.4831C72.3591 55.4831 69.4142 54.5273 66.947 52.7596C64.4798 54.5273 61.535 55.4831 58.4236 55.4831C52.5777 55.4831 47.5206 52.0525 45.1673 47.1074V50.0622C44.2909 51.0574 43.2523 51.9696 42.0559 52.7639C40.0226 54.1563 36.9901 55.4264 32.9979 55.4264C24.3824 55.4264 17.8353 48.8707 17.8353 40.9227C17.8353 32.9747 24.378 26.419 32.9979 26.419C36.8674 26.419 39.8604 27.8113 41.8149 29.1992C42.6037 29.7666 43.2917 30.3733 43.9184 31.028L40.0708 35.157C39.6588 34.7336 39.2206 34.3408 38.743 33.9654C37.4283 32.9703 35.5133 31.9795 32.9979 31.9795C28.0109 31.9795 24.023 35.9513 24.023 40.9183C24.023 45.8853 28.0109 49.8571 32.9979 49.8571C35.0312 49.8571 36.508 49.3813 37.586 48.7834C38.1864 48.4648 38.743 48.1069 39.1812 47.6704V44.2922H33.8305V39.526H43.8263C44.5144 32.1105 50.7941 26.2793 58.4192 26.2793C61.5306 26.2793 64.4798 27.2352 66.947 29.0028C69.4186 27.2352 72.3678 26.2793 75.4705 26.2793C82.2366 26.2793 87.9423 30.8709 89.6251 37.0861V27.0082H99.8006C108.377 27.0082 114.56 33.1667 114.56 40.9139V40.9227ZM84.4321 40.8834C84.4321 35.9644 80.4136 31.9577 75.4705 31.9577C73.2048 31.9577 71.0751 32.7957 69.4186 34.3146L60.8689 42.83C60.3123 43.3843 59.5849 43.6593 58.853 43.6593C58.1212 43.6593 57.3937 43.3843 56.8372 42.83C55.7241 41.7214 55.7241 39.9275 56.8372 38.8189L62.6612 33.0183C61.3728 32.3287 59.9311 31.9577 58.4192 31.9577C53.4804 31.9577 49.4575 35.9601 49.4575 40.8834C49.4575 45.8067 53.476 49.8091 58.4192 49.8091C60.8864 49.8091 63.1827 48.8314 64.8874 47.0594C64.8874 47.0594 64.8874 47.055 64.8961 47.0506L73.104 38.8757C74.2171 37.767 76.0226 37.767 77.1313 38.8757C78.2444 39.9843 78.2444 41.7781 77.1313 42.8868L71.2416 48.7528C72.5256 49.4381 73.963 49.8047 75.4661 49.8047C80.4048 49.8047 84.4277 45.8023 84.4277 40.879H84.4321V40.8834ZM108.377 40.9227C108.377 36.1565 104.788 32.5775 99.8006 32.5775H95.6112V49.2679H99.8006C104.788 49.2679 108.377 45.6932 108.377 40.9227Z" fill="#0F0E1B"/>
<path d="M21.7311 13.5695L19.8029 19.8153H17.2218C16.4987 19.8153 15.9772 19.1169 16.192 18.4273L17.6863 13.5738H13.6766C13.5188 13.5738 13.4049 13.4211 13.4531 13.2727L13.7993 12.1553C14.1148 11.1427 15.057 10.4531 16.1218 10.4531H26.0651L25.5831 12.0157H20.7057C20.3025 12.0157 19.9475 12.2775 19.8248 12.6616L19.5356 13.5782H21.7267V13.5695H21.7311Z" fill="#0F0E1B"/>
<path d="M39.0762 13.9927C39.1901 13.6261 39.5319 13.373 39.9176 13.373H43.1736C43.5066 13.373 43.8046 13.1547 43.9054 12.8361L44.1596 12.0068H39.7992C38.8088 12.0068 37.9368 12.6484 37.6476 13.5912C37.2006 15.0359 38.2874 16.4937 39.7992 16.4937H41.1972C41.8545 16.4937 42.3278 17.1266 42.135 17.7551C42.0079 18.1653 41.631 18.4447 41.1972 18.4447H37.4504C37.1173 18.4447 36.8193 18.6629 36.7185 18.9815L36.4644 19.8108H41.3374C42.3585 19.8108 43.2568 19.1474 43.5592 18.1784C44.0281 16.6639 42.8887 15.1319 41.298 15.1319H39.9176C39.326 15.1319 38.9009 14.5602 39.0762 13.9971V13.9927Z" fill="#0F0E1B"/>
<path d="M35.8288 15.8739C36.1005 15.6164 36.3108 15.289 36.4248 14.9093C36.8717 13.4646 35.7849 12.0068 34.2731 12.0068H30.0793C29.7769 12.0068 29.4877 12.1334 29.2817 12.3604L23.6418 18.5756C23.6111 18.6105 23.5541 18.5756 23.5673 18.532L25.0967 13.5694H23.6549C23.4095 13.5694 23.1948 13.7265 23.1203 13.9622L21.3148 19.8152H24.045C24.4481 19.8108 24.8338 19.6406 25.1011 19.3438L30.3291 13.5825C30.4474 13.4515 30.6183 13.3773 30.7936 13.3773H34.146C34.7376 13.3773 35.1627 13.9491 34.9874 14.5121C34.8734 14.8788 34.5316 15.1319 34.146 15.1319H32.6473L32.2266 16.4981H33.905C34.5623 16.4981 35.0356 17.1309 34.8428 17.7594C34.7157 18.1697 34.3344 18.449 33.905 18.449H30.8111C30.7629 18.449 30.7279 18.401 30.741 18.353L31.9724 14.3506H30.833C30.5876 14.3506 30.3729 14.5078 30.2984 14.7435L29.067 18.7458C28.9048 19.2783 29.3036 19.8152 29.8602 19.8152H34.1066C35.1408 19.8152 36.0523 19.143 36.3546 18.161C36.6176 17.3142 36.3722 16.4588 35.8288 15.8739Z" fill="#0F0E1B"/>
</g>
<defs>
<clipPath id="clip0_636_1816">
<rect width="101.12" height="45.03" fill="white" transform="translate(13.4399 10.4531)"/>
</clipPath>
</defs>
</svg>
