<svg width="128" height="65" viewBox="0 0 128 65" fill="none" xmlns="http://www.w3.org/2000/svg">
<path d="M103.19 26.9358H98.8443C96.7855 26.9358 96.9452 26.4372 96.9452 26.4372C97.105 25.9385 95.5766 25.9385 95.5766 25.9385C94.0482 25.9385 93.8914 26.4372 93.8914 26.4372C93.7317 26.9358 90.4149 26.9358 90.4149 26.9358H89.8038C89.6433 26.9358 89.573 26.9513 89.4265 26.9535C89.4804 26.6989 89.4744 26.4352 89.4089 26.1834C89.379 26.0302 89.3827 25.8724 89.4199 25.7208C89.4865 25.4553 89.9042 25.078 90.609 24.8559C91.3139 24.6337 92.0011 24.4403 92.3345 24.3587C92.5715 24.2898 92.796 24.1836 92.9998 24.0439C93.2212 23.8504 93.4012 23.6136 93.5286 23.3481C93.6561 23.0826 93.7284 22.7938 93.7412 22.4994C93.7909 22.1903 93.7536 21.8735 93.6334 21.5846C93.5133 21.2957 93.3151 21.0462 93.0613 20.8644C92.6862 20.6871 92.5719 20.7239 92.5719 20.7239C92.4977 20.7557 92.4321 20.8045 92.3803 20.8665C92.3285 20.9285 92.2919 21.0018 92.2737 21.0806C92.2439 21.3418 92.2745 21.6063 92.3631 21.8536C92.4521 22.0998 92.4832 22.3634 92.4539 22.6237C92.4261 22.7492 92.3683 22.8661 92.2854 22.9642C92.2304 23.0172 91.1439 23.3422 91.1439 23.3422L90.0588 23.6673C89.5035 23.8599 89.012 24.2024 88.6381 24.6573C88.5145 24.9625 88.4279 25.2815 88.3802 25.6075C88.3021 26.0826 88.3833 26.5702 88.611 26.9939C86.5522 27.1256 86.2928 27.5374 86.2928 27.5374L86.1008 28.1383L85.7103 29.3592L85.4758 30.0947C85.2414 30.8302 85.6715 30.8302 85.6715 30.8302C86.1016 30.8302 85.7755 31.8481 85.7755 31.8481C85.4495 32.8653 85.9902 32.8653 85.9902 32.8653C86.5309 32.8653 86.0202 33.6596 86.0202 33.6596L85.5074 34.4532C85.3707 34.6563 85.1844 34.8209 84.9664 34.9312C84.7483 35.0415 84.5058 35.094 84.2618 35.0835H83.6581L83.4903 36.2948C83.3232 37.5062 84.2559 37.5062 84.2559 37.5062H85.1886C85.7241 37.5038 86.2416 37.3115 86.6496 36.9634C86.931 36.6912 88.77 36.6913 88.77 36.6913H90.609L88.6308 42.8796C88.603 43.0239 88.5257 43.1539 88.4123 43.2469C88.2989 43.3399 88.1566 43.39 88.0102 43.3886H87.361C86.7119 43.3886 86.5258 44.5999 86.5258 44.5999C86.3389 45.8112 87.6483 45.8112 87.6483 45.8112H88.9568C90.1394 45.8112 90.9495 45.1464 91.3871 43.8166L94.4915 34.1082H90.1276C88.8198 34.1082 89.2558 33.4875 89.2558 33.4875C89.6954 32.8668 93.01 32.8667 93.01 32.8667H97.7204C101.037 32.8667 101.363 31.8496 101.363 31.8496C101.688 30.8317 102.201 30.8317 102.201 30.8317C102.714 30.8317 103.335 28.8878 103.335 28.8878C103.956 26.9432 103.188 26.9432 103.188 26.9432M99.928 29.9873C99.7302 30.6081 96.4111 30.6081 96.4111 30.6081H91.6853C88.3692 30.6081 88.567 29.9873 88.567 29.9873C88.7656 29.3659 92.0839 29.3658 92.0839 29.3658H96.8112C100.129 29.3658 99.9302 29.9873 99.9302 29.9873M89.9928 19.1184C90.2742 18.3248 89.9379 15.9477 89.2785 12.8859L89.1319 12.4828C88.9964 11.9268 88.0769 12.0254 88.0058 12.8749L88.071 12.8189C87.9303 13.2154 88.1194 14.1127 88.6249 15.8719C88.8897 16.541 89.0156 17.2573 88.9949 17.9769C88.8704 18.4777 88.9216 18.9867 88.7817 19.1184C88.6418 19.25 88.1494 19.7068 88.1494 19.7068C88.0314 19.9274 87.309 20.1326 86.1235 21.0306C85.2836 21.5331 84.6305 22.2977 84.264 23.2076C83.8977 24.5131 84.0354 25.3803 84.3585 25.595C84.5091 25.7083 84.6819 25.7883 84.8655 25.8296L85.0487 25.851C85.1593 25.7446 85.2372 25.6085 85.2729 25.459C85.3011 25.248 85.2904 25.0336 85.2414 24.8265C85.192 24.6199 85.1815 24.4058 85.2106 24.1954C85.2371 24.0857 85.2908 23.9845 85.3667 23.9012C85.4376 23.8003 85.4994 23.6932 85.5513 23.5813C86.1946 22.7748 86.9416 22.0576 87.7728 21.4484C88.9598 20.6879 89.8185 19.9774 89.9899 19.122M82.8096 26.2077H80.1456C76.828 26.2077 76.3884 27.5823 76.3884 27.5823C75.9488 28.9554 79.2656 28.9554 79.2656 28.9554H81.9333C85.2509 28.9554 85.6905 27.5823 85.6905 27.5823C86.1301 26.2077 82.8118 26.2077 82.8118 26.2077M82.4491 18.4116C82.7239 17.8151 82.3913 16.7994 81.9209 16.0823C81.5727 15.5838 81.1658 15.1294 80.709 14.729C80.1172 14.1982 79.4913 13.7068 78.8356 13.258C78.1989 13.0269 77.508 12.992 76.8515 13.158C76.7904 13.1911 76.7369 13.2366 76.6943 13.2915C76.6517 13.3465 76.6209 13.4097 76.6038 13.4772C76.5804 13.6545 76.7694 13.9023 77.1958 14.0428C77.9554 14.1165 78.6851 14.377 79.3205 14.8013C79.9559 15.2255 80.4773 15.8004 80.8387 16.475C81.29 17.5202 81.1794 17.7092 81.1794 17.7092C80.6055 18.2379 79.9469 18.6656 79.2312 18.9742C78.0785 19.5651 77.4085 20.2365 77.2215 20.9887C77.0654 21.5626 77.0444 22.1652 77.1602 22.7487C77.2761 23.3321 77.5256 23.8806 77.8889 24.3506C78.4817 24.9986 78.5799 25.0236 78.5799 25.0236C78.7721 25.0217 78.96 24.9656 79.122 24.8618C79.1687 24.8388 79.2096 24.8056 79.2417 24.7646C79.2738 24.7236 79.2963 24.6759 79.3074 24.6249C79.2145 24.213 79.0401 23.8241 78.7945 23.4812C78.4926 23.0723 78.3299 22.5766 78.3307 22.0676C78.298 21.3606 78.9249 20.6947 80.2115 20.0701C81.4981 19.4454 82.243 18.8928 82.4462 18.4123M74.9963 27.5838C75.4359 26.2092 72.1191 26.2092 72.1191 26.2092H72.0905C71.2133 26.1756 70.339 26.3302 69.5261 26.6629L72.6298 16.9766H67.6607C65.7455 16.9766 66.687 14.0347 66.687 14.0347C67.6299 11.0928 66.1008 11.0928 66.1008 11.0928C64.5695 11.0928 63.6266 14.0347 63.6266 14.0347C62.6851 16.9766 59.3675 16.9766 59.3675 16.9766H59.0341C55.7173 16.9766 55.4989 17.6577 55.4989 17.6577L55.2791 18.3395L54.8359 19.7244L53.35 24.3624L53.8907 16.0337L53.9017 15.9992C53.9127 15.9646 50.5958 15.9646 50.5958 15.9646H40.3617C39.3597 15.9984 38.3812 16.2788 37.5124 16.7813C36.6436 17.2838 35.9112 17.9929 35.3795 18.8462L32.1631 24.4197C31.8905 24.9257 31.5771 25.1903 31.223 25.2133H30.8215L30.1621 27.2668C29.5027 29.3202 30.0383 29.3202 30.0383 29.3202C30.5702 29.3202 29.5569 32.4902 29.5569 32.4902L25.2986 45.8149C24.5859 48.0464 24.9984 49.1741 26.5361 49.1981H31.859L32.4715 47.2859C33.0833 45.3736 31.5337 45.3736 31.5337 45.3736H29.9863C29.5921 45.3736 29.4868 45.086 29.6705 44.5109L30.7175 41.2351C30.864 42.214 31.9352 43.8681 33.9251 45.3817C35.4823 46.4654 37.1183 47.4301 38.8195 48.2677C39.3926 48.5259 39.9486 48.8207 40.4841 49.1503L40.5405 49.2239C39.5973 50.1751 38.2355 51.4159 36.4551 52.9462C34.4285 54.6885 33.0349 55.9153 32.6569 56.272C32.2788 56.6287 32.3426 56.9163 32.3426 56.9163C32.3834 57.0874 32.4576 57.2486 32.5608 57.3908C32.664 57.5329 32.7943 57.6531 32.9441 57.7445C33.6838 58.2483 34.5675 58.495 35.4601 58.4469C36.2045 58.3145 36.4947 58.0945 36.4126 57.9416C36.3305 57.7886 37.878 56.3272 37.878 56.3272C39.4283 54.8665 42.5122 52.0886 44.0457 50.7706C44.5686 50.2659 45.1363 49.8102 45.7418 49.4092L45.9045 49.3666L57.0793 54.6017C57.1094 54.6157 57.3182 54.7488 57.7036 54.9967C57.9476 55.1779 58.2531 55.2549 58.5535 55.2107C58.6651 55.1865 58.7732 55.1482 58.8751 55.0967C59.4824 54.692 60.0652 54.2514 60.6204 53.7772C60.7677 53.6514 60.8954 53.5042 60.9992 53.3404C61.0959 53.1631 60.9743 52.8734 60.5376 52.6483C54.5428 49.6622 50.6281 47.7448 49.7137 47.319C48.7993 46.8931 48.7803 46.7836 48.7803 46.7836L48.7627 46.6732C49.7943 45.7428 50.5702 45.0552 50.8303 44.8345C50.917 44.7478 51.0131 44.6711 51.1168 44.6058C51.2261 44.5349 51.3236 44.447 51.4055 44.3454C51.4643 44.2709 51.539 44.2105 51.624 44.1687C51.7091 44.1268 51.8024 44.1045 51.8971 44.1035C52.5508 44.3164 53.2215 44.4731 53.9017 44.572C54.4786 44.7112 55.0789 44.7212 55.6601 44.6014C56.5449 44.4344 57.3987 44.1315 58.1915 43.7033C59.7185 42.5143 60.858 41.6278 61.6102 41.0438C62.7442 40.164 63.7852 39.1695 64.7168 38.0762L64.7029 37.9945C64.6882 37.9129 64.5292 37.8195 64.5292 37.8195C64.2026 37.6969 63.8469 37.6751 63.5079 37.757C63.1198 37.836 62.7397 37.9502 62.3722 38.0982C61.7861 38.3331 61.4261 38.4716 61.2922 38.5138L60.5757 38.808C60.3757 38.8942 60.1595 38.9359 59.9419 38.9301C59.8254 38.9139 60.1969 38.4366 60.1969 38.4366C60.5676 37.9607 61.1699 37.2546 61.4 37.0274C61.63 36.8001 61.6124 36.6913 61.6124 36.6913L61.5926 36.5824C61.2452 36.3908 60.84 36.3332 60.4533 36.4206C60.0651 36.5114 59.6878 36.6441 59.3279 36.8163C58.7418 37.0502 58.341 37.1973 58.2326 37.2259C58.1241 37.2546 58.1117 37.1862 58.1117 37.1862L58.1 37.1178C59.1895 35.8616 59.7397 35.1931 59.747 35.1548C59.7543 35.1166 59.6342 34.9982 59.6342 34.9982C59.332 34.8334 58.9771 34.7955 58.6473 34.893C56.5833 35.7822 55.329 36.3412 55.107 36.4552C54.885 36.5692 54.8183 36.553 54.8183 36.553L54.7509 36.5272C55.1001 35.9232 55.3766 35.4721 55.5803 35.174C55.9717 34.6889 56.3084 34.1618 56.584 33.6022C56.6053 33.4772 56.4045 33.3911 56.4045 33.3911C56.1954 33.311 55.9725 33.2735 55.7488 33.281C55.5251 33.2884 55.3052 33.3406 55.1018 33.4345C53.37 34.5201 51.7434 35.7663 50.2434 37.1568C49.0614 38.2076 48.5729 39.3221 48.7781 40.5003C48.8493 40.9214 49.0089 41.3225 49.2462 41.6771C49.4162 41.8977 48.6293 42.6089 48.6293 42.6089C47.8424 43.3187 46.6276 44.3469 46.2005 44.6683C45.9945 44.8377 45.7586 44.9667 45.5052 45.0486L45.2385 45.1096C39.4386 42.2331 35.0637 40.0929 33.5888 39.3927C33.2049 39.2103 32.8994 39.0801 32.6481 38.9816H46.0561C47.5855 38.9816 48.7187 37.8538 49.4558 35.5983L51.4619 29.3188H51.9564C51.8531 30.8898 52.7624 30.9589 52.7624 30.9589C54.2929 30.9589 55.3092 27.789 55.3092 27.789L56.8778 22.8929C57.8933 19.7229 61.2102 19.7229 61.2102 19.7229H65.3747C68.6931 19.7229 67.6761 22.8929 67.6761 22.8929L66.1375 27.7015C66.1097 27.8459 66.0323 27.976 65.9187 28.069C65.8052 28.162 65.6627 28.212 65.5162 28.2104H65.1681C64.8194 28.2104 64.8465 28.1435 64.8465 28.1435C64.8743 28.0751 64.9278 27.9464 64.9798 27.8243L67.1522 21.0453H59.2393C58.5147 21.0453 57.549 24.0608 57.549 24.0608L56.5833 27.0763L56.1437 28.4406L55.9239 29.1327C55.7041 29.824 59.0195 29.824 59.0195 29.824H62.5407C62.8496 29.8454 63.1595 29.8008 63.45 29.6931C63.7404 29.5855 64.0049 29.4173 64.2259 29.1996C64.4545 28.8878 64.2772 29.9263 64.2772 29.9263L64.1006 30.9648H66.3565C67.5425 30.9648 68.3546 30.2997 68.7927 28.9694L68.7964 28.9569H68.8198C69.7437 28.9569 68.8814 31.6547 68.8814 31.6547C68.0183 34.3524 67.131 34.3524 67.131 34.3524C66.243 34.3524 65.8034 35.7263 65.8034 35.7263C65.3638 37.1002 66.251 37.1002 66.251 37.1002C67.1398 37.1002 66.1858 40.0818 66.1858 40.0818C65.2333 43.0635 64.2706 43.0635 64.2706 43.0635C63.3093 43.0635 62.8704 44.4374 62.8704 44.4374C62.4308 45.8113 65.7484 45.8112 65.7484 45.8112H65.9968C69.3144 45.8112 69.754 44.4374 69.754 44.4374C70.1936 43.0635 69.2411 43.0635 69.2411 43.0635C68.2886 43.0635 69.2411 40.0818 69.2411 40.0818C70.1936 37.1002 71.0369 37.1002 71.0369 37.1002C71.8788 37.1002 72.3184 35.7263 72.3184 35.7263C72.758 34.3524 71.9161 34.3524 71.9161 34.3524C71.0735 34.3524 71.9366 31.6547 71.9366 31.6547C72.7997 28.9569 73.6782 28.9569 73.6782 28.9569C74.5574 28.9569 74.9963 27.5838 74.9963 27.5838ZM62.9078 25.1802L62.4682 26.5644C62.4401 26.7086 62.3626 26.8384 62.2491 26.9313C62.1356 27.0241 61.9933 27.0741 61.8469 27.0726H59.5023L60.0269 25.434C60.1346 24.9914 60.3792 24.5945 60.7255 24.3002C61.0718 24.0058 61.502 23.829 61.9546 23.7953C63.3569 23.7953 62.9137 25.1795 62.9137 25.1795M50.2493 40.2944C50.195 39.9926 50.2133 39.6822 50.3028 39.389C50.7911 38.4039 51.4806 37.5331 52.3264 36.8332C52.8598 36.4655 52.5843 36.9266 52.5843 36.9266C52.3096 37.3856 51.8517 38.0938 51.6677 38.341C51.4838 38.5881 51.4934 38.6425 51.4934 38.6425C51.5029 38.6969 51.6143 38.8087 51.8194 38.9212C51.937 38.982 52.0512 39.049 52.1616 39.122C52.2464 39.1245 52.3313 39.1189 52.4151 39.1051C52.855 39.0013 53.2755 38.8275 53.6606 38.5903C54.6637 37.9835 55.4191 37.5216 55.6799 37.3642C55.9407 37.2068 55.9693 37.2708 55.9693 37.2708L56.0016 37.3355L55.1575 38.2417C54.3135 39.147 54.2732 39.3228 54.2732 39.3228C54.2329 39.4971 54.5391 39.7053 54.8879 39.7376C55.227 39.7168 55.5597 39.6357 55.8704 39.4979C56.5056 39.2265 57.4244 38.7822 57.7065 38.6116C57.8455 38.5213 57.9954 38.4494 58.1527 38.3976L58.3168 38.3535C57.9105 38.9298 57.4647 39.4771 56.9826 39.9914C56.865 40.0811 56.7863 40.2127 56.7628 40.3591C56.7628 40.5187 57.0661 40.7077 57.3702 40.7364C57.5495 40.7547 57.7304 40.7507 57.9087 40.7246C58.4913 40.5717 59.0607 40.3723 59.6115 40.1282C60.1472 39.8938 60.6965 39.6919 61.2563 39.5236C61.4615 39.4773 61.1985 39.7582 61.1985 39.7582C60.5452 40.3794 59.8534 40.9584 59.1272 41.4918C58.7765 41.76 57.9165 42.3711 56.5474 43.3253C56.1214 43.5212 55.6741 43.6669 55.2147 43.7593C54.855 43.8446 54.4807 43.8468 54.12 43.7659C53.9776 43.7199 53.8298 43.6929 53.6804 43.6857C53.2602 43.6248 52.8763 43.4125 52.6005 43.0885C52.3848 42.8135 52.1091 42.5921 51.7945 42.4413C51.5956 42.3351 51.4103 42.2049 51.2428 42.0537C50.7373 41.5854 50.39 40.9703 50.2493 40.2944ZM46.9588 48.295C46.9214 48.078 47.2116 47.8684 47.5208 47.7662C47.83 47.6639 49.743 48.5892 49.743 48.5892C51.6568 49.5107 54.2856 50.789 55.7246 51.5054C57.6875 52.4615 58.8986 53.1175 59.1286 53.2919C59.3587 53.4662 59.3045 53.6434 59.3045 53.6434C59.2557 53.748 59.1817 53.8386 59.0892 53.9072C58.9967 53.9758 58.8886 54.0201 58.7748 54.0362C58.5645 54.0545 55.611 52.6895 55.611 52.6895L52.6569 51.3244C50.4552 50.2947 48.578 49.3291 47.8007 48.8782C47.0233 48.4274 47.005 48.4031 47.005 48.4031C46.9824 48.3718 46.9665 48.3363 46.9581 48.2987M47.6387 44.9522C50.1701 42.7994 50.2764 42.7715 50.2764 42.7715C50.3643 42.7725 50.4509 42.7921 50.5308 42.8288C50.6107 42.8655 50.682 42.9187 50.7402 42.9848C50.864 43.1201 50.3006 43.6467 50.3006 43.6467C49.7393 44.1763 48.4527 45.3567 47.0035 46.6622L41.175 51.8473C38.9804 53.7841 37.0532 55.5424 35.3934 57.1222C35.0586 57.3171 34.8513 57.4297 34.8117 57.4458C34.7443 57.4513 34.6765 57.4473 34.6102 57.4341C34.3961 57.3673 34.2114 57.2286 34.0871 57.0413C34.0577 56.9965 34.0377 56.9461 34.0284 56.8932C34.0191 56.8404 34.0206 56.7862 34.0328 56.7339C34.206 56.4238 34.4386 56.1511 34.7172 55.9315C35.0371 55.6505 35.3715 55.3669 35.7202 55.0805L47.6387 44.9522ZM31.9872 39.9347L32.0216 39.8869L33.1163 40.2804L38.7836 43.112C40.7838 44.1196 42.6221 45.0978 43.461 45.5774C44.2999 46.0569 43.9915 46.4077 43.9915 46.4077C43.4706 46.9363 42.8951 47.4077 42.2748 47.814C42.068 47.9743 41.8335 48.095 41.5831 48.1699C41.3048 48.1471 41.0339 48.0681 40.7867 47.9375L39.9925 47.5462C39.2716 47.0884 38.5158 46.6885 37.7322 46.3503C36.3703 45.5532 35.0798 44.639 33.8753 43.618C32.9471 42.8483 32.2886 41.8006 31.996 40.6283C31.959 40.3986 31.9561 40.1646 31.9872 39.934M33.054 33.9214C33.3573 32.9727 36.6749 32.9727 36.6749 32.9727H46.3463L46.0159 34.0082C45.8317 34.5829 45.5423 34.8704 45.1476 34.8709H32.7507L33.054 33.9214ZM38.4172 27.5227H44.771C48.0879 27.5227 47.7626 28.5399 47.7626 28.5399C47.4365 29.5578 44.1197 29.5578 44.1197 29.5578H37.7666C34.4497 29.5578 34.7751 28.5399 34.7751 28.5399C35.0996 27.5227 38.4172 27.5227 38.4172 27.5227ZM49.3913 21.7418C49.258 23.4158 47.1413 23.4158 47.1413 23.4158C45.0238 23.4158 45.3608 22.3626 45.3608 22.3626C45.6971 21.3101 43.7218 21.3101 43.7218 21.3101C41.7436 21.3101 41.4102 22.3626 41.4102 22.3626C41.0739 23.4158 38.9565 23.4158 38.9565 23.4158C36.839 23.4158 37.7996 21.7418 37.7996 21.7418C38.7608 20.0679 42.0777 20.0679 42.0777 20.0679H46.2078C49.5254 20.0679 49.3913 21.7418 49.3913 21.7418ZM73.7412 14.6812C74.1552 13.3889 73.5947 13.389 73.5947 13.389H73.0349C72.7658 13.389 72.6017 13.233 72.5426 12.9212L72.1154 11.7415H70.4376C68.7597 11.7415 69.0916 13.0543 69.0916 13.0543L69.4228 14.3671C69.4269 14.5939 69.4777 14.8174 69.5719 15.0235C69.6661 15.2296 69.8018 15.414 69.9703 15.565C70.1389 15.716 70.3367 15.8305 70.5514 15.9011C70.7661 15.9718 70.993 15.9972 71.2179 15.9757H73.3265L73.7412 14.6812ZM60.6262 14.3458L62.7627 11.74H59.4818L58.6026 12.6564C58.4542 12.8598 58.2599 13.0249 58.0356 13.1382C57.8113 13.2515 57.5634 13.3097 57.3123 13.308H56.3034L56.1093 14.601C56.0646 14.7527 56.0561 14.9127 56.0846 15.0683C56.113 15.2238 56.1775 15.3704 56.2729 15.4963C56.3683 15.6221 56.4919 15.7236 56.6336 15.7926C56.7754 15.8616 56.9314 15.8961 57.0889 15.8933H58.2611C59.1057 15.8933 59.8945 15.3784 60.6277 14.3488M70.5768 44.4322C70.357 45.8061 71.0713 45.8061 71.0713 45.8061H71.785C72.3391 45.7989 72.8776 45.6213 73.3281 45.2974C73.7786 44.9736 74.1194 44.5189 74.3047 43.9946L78.3198 34.654H79.0883C79.8569 34.654 78.8429 37.8246 78.8429 37.8246L76.9291 43.8085C76.5091 45.125 76.8944 45.7899 78.0853 45.8032H80.3002L80.7398 44.4293C81.1794 43.0554 80.9325 43.0554 80.9325 43.0554H80.6878C80.3825 43.0554 80.2848 42.8857 80.3947 42.5464L82.921 34.6488H83.3972C83.8735 34.6488 84.3124 33.2749 84.3124 33.2749C84.752 31.9018 81.4351 31.9018 81.4351 31.9018H77.8193C74.5018 31.9018 74.0621 33.2749 74.0621 33.2749C73.6225 34.6488 74.4468 34.6488 74.4468 34.6488H75.2659L71.9967 42.4655C71.826 42.8458 71.6047 43.0422 71.3322 43.0539H70.801L70.5768 44.4322ZM84.3724 41.6528C84.8392 41.6145 85.2897 41.463 85.6853 41.2114C86.081 40.9598 86.4098 40.6156 86.6437 40.2083L88.4667 37.8268H85.2648L84.6237 38.7433C84.4882 38.946 84.3045 39.1116 84.0892 39.2252C83.8739 39.3389 83.6338 39.3969 83.3906 39.3941H82.6396L82.4982 40.5239C82.4621 40.6569 82.4571 40.7966 82.4836 40.932C82.5102 41.0673 82.5675 41.1947 82.6512 41.3041C82.735 41.4135 82.8428 41.5019 82.9662 41.5626C83.0896 41.6232 83.2254 41.6543 83.3628 41.6536L84.3724 41.6528ZM81.3157 43.5467L81.1743 44.6764C81.0329 45.8061 82.0022 45.8061 82.0022 45.8061H82.9723C83.4391 45.7675 83.8896 45.6158 84.2852 45.3641C84.6808 45.1124 85.0096 44.7682 85.2436 44.3609L86.9669 42.061H83.765L83.2236 42.8951C83.0881 43.0979 82.9044 43.2637 82.6891 43.3774C82.4739 43.4912 82.2338 43.5494 81.9905 43.5467H81.3157ZM94.7509 37.237L93.147 43.9122C92.8276 45.1748 93.211 45.8061 94.2973 45.8061H97.9204L98.36 44.4315C98.7997 43.0568 97.7666 43.0569 97.7666 43.0569H96.7335C96.4639 43.0569 96.3811 42.8612 96.4815 42.4685L96.6771 41.5734H97.5006C98.1586 41.5734 98.7029 40.9965 99.1338 39.8428L101.562 34.6518H100.692C99.8225 34.6518 98.9337 36.6059 98.9337 36.6059L98.0443 38.5601C97.941 38.8448 97.7849 38.9882 97.5783 38.9882H97.3035L97.9094 36.4941C98.5146 34.0001 97.0229 34.0001 97.0229 34.0001C95.5312 34.0001 94.7516 37.2362 94.7516 37.2362" fill="#0F0E1B"/>
</svg>
